G04 #@! TF.GenerationSoftware,KiCad,Pcbnew,5.0.0-fee4fd1~66~ubuntu18.04.1*
G04 #@! TF.CreationDate,2018-09-19T00:34:01+01:00*
G04 #@! TF.ProjectId,ArduBoard,41726475426F6172642E6B696361645F,rev?*
G04 #@! TF.SameCoordinates,Original*
G04 #@! TF.FileFunction,Copper,L1,Top,Signal*
G04 #@! TF.FilePolarity,Positive*
%FSLAX46Y46*%
G04 Gerber Fmt 4.6, Leading zero omitted, Abs format (unit mm)*
G04 Created by KiCad (PCBNEW 5.0.0-fee4fd1~66~ubuntu18.04.1) date Wed Sep 19 00:34:01 2018*
%MOMM*%
%LPD*%
G01*
G04 APERTURE LIST*
G04 #@! TA.AperFunction,NonConductor*
%ADD10C,0.300000*%
G04 #@! TD*
G04 #@! TA.AperFunction,ComponentPad*
%ADD11C,1.574800*%
G04 #@! TD*
G04 #@! TA.AperFunction,ComponentPad*
%ADD12R,1.800000X1.800000*%
G04 #@! TD*
G04 #@! TA.AperFunction,ComponentPad*
%ADD13C,1.800000*%
G04 #@! TD*
G04 #@! TA.AperFunction,ComponentPad*
%ADD14R,1.700000X1.700000*%
G04 #@! TD*
G04 #@! TA.AperFunction,ComponentPad*
%ADD15O,1.700000X1.700000*%
G04 #@! TD*
G04 #@! TA.AperFunction,ComponentPad*
%ADD16R,1.905000X2.000000*%
G04 #@! TD*
G04 #@! TA.AperFunction,ComponentPad*
%ADD17O,1.905000X2.000000*%
G04 #@! TD*
G04 #@! TA.AperFunction,ComponentPad*
%ADD18R,2.500000X4.500000*%
G04 #@! TD*
G04 #@! TA.AperFunction,ComponentPad*
%ADD19O,2.500000X4.500000*%
G04 #@! TD*
G04 #@! TA.AperFunction,ComponentPad*
%ADD20C,1.600000*%
G04 #@! TD*
G04 #@! TA.AperFunction,ComponentPad*
%ADD21O,1.600000X1.600000*%
G04 #@! TD*
G04 #@! TA.AperFunction,ViaPad*
%ADD22C,1.500000*%
G04 #@! TD*
G04 #@! TA.AperFunction,Conductor*
%ADD23C,1.300000*%
G04 #@! TD*
G04 #@! TA.AperFunction,Conductor*
%ADD24C,0.254000*%
G04 #@! TD*
G04 APERTURE END LIST*
D10*
X125884456Y-73989494D02*
X125813027Y-74132351D01*
X125813027Y-74346637D01*
X125884456Y-74560922D01*
X126027313Y-74703779D01*
X126170170Y-74775208D01*
X126455884Y-74846637D01*
X126670170Y-74846637D01*
X126955884Y-74775208D01*
X127098741Y-74703779D01*
X127241598Y-74560922D01*
X127313027Y-74346637D01*
X127313027Y-74203779D01*
X127241598Y-73989494D01*
X127170170Y-73918065D01*
X126670170Y-73918065D01*
X126670170Y-74203779D01*
X127313027Y-73275208D02*
X125813027Y-73275208D01*
X127313027Y-72418065D01*
X125813027Y-72418065D01*
X127313027Y-71703779D02*
X125813027Y-71703779D01*
X125813027Y-71346637D01*
X125884456Y-71132351D01*
X126027313Y-70989494D01*
X126170170Y-70918065D01*
X126455884Y-70846637D01*
X126670170Y-70846637D01*
X126955884Y-70918065D01*
X127098741Y-70989494D01*
X127241598Y-71132351D01*
X127313027Y-71346637D01*
X127313027Y-71703779D01*
X125488000Y-111124857D02*
X125416571Y-111267714D01*
X125416571Y-111482000D01*
X125488000Y-111696285D01*
X125630857Y-111839142D01*
X125773714Y-111910571D01*
X126059428Y-111982000D01*
X126273714Y-111982000D01*
X126559428Y-111910571D01*
X126702285Y-111839142D01*
X126845142Y-111696285D01*
X126916571Y-111482000D01*
X126916571Y-111339142D01*
X126845142Y-111124857D01*
X126773714Y-111053428D01*
X126273714Y-111053428D01*
X126273714Y-111339142D01*
X126916571Y-110410571D02*
X125416571Y-110410571D01*
X126916571Y-109553428D01*
X125416571Y-109553428D01*
X126916571Y-108839142D02*
X125416571Y-108839142D01*
X125416571Y-108482000D01*
X125488000Y-108267714D01*
X125630857Y-108124857D01*
X125773714Y-108053428D01*
X126059428Y-107982000D01*
X126273714Y-107982000D01*
X126559428Y-108053428D01*
X126702285Y-108124857D01*
X126845142Y-108267714D01*
X126916571Y-108482000D01*
X126916571Y-108839142D01*
X135902000Y-110362857D02*
X135830571Y-110505714D01*
X135830571Y-110720000D01*
X135902000Y-110934285D01*
X136044857Y-111077142D01*
X136187714Y-111148571D01*
X136473428Y-111220000D01*
X136687714Y-111220000D01*
X136973428Y-111148571D01*
X137116285Y-111077142D01*
X137259142Y-110934285D01*
X137330571Y-110720000D01*
X137330571Y-110577142D01*
X137259142Y-110362857D01*
X137187714Y-110291428D01*
X136687714Y-110291428D01*
X136687714Y-110577142D01*
X137330571Y-109648571D02*
X135830571Y-109648571D01*
X137330571Y-108791428D01*
X135830571Y-108791428D01*
X137330571Y-108077142D02*
X135830571Y-108077142D01*
X135830571Y-107720000D01*
X135902000Y-107505714D01*
X136044857Y-107362857D01*
X136187714Y-107291428D01*
X136473428Y-107220000D01*
X136687714Y-107220000D01*
X136973428Y-107291428D01*
X137116285Y-107362857D01*
X137259142Y-107505714D01*
X137330571Y-107720000D01*
X137330571Y-108077142D01*
X158904456Y-73989494D02*
X158833027Y-74132351D01*
X158833027Y-74346637D01*
X158904456Y-74560922D01*
X159047313Y-74703779D01*
X159190170Y-74775208D01*
X159475884Y-74846637D01*
X159690170Y-74846637D01*
X159975884Y-74775208D01*
X160118741Y-74703779D01*
X160261598Y-74560922D01*
X160333027Y-74346637D01*
X160333027Y-74203779D01*
X160261598Y-73989494D01*
X160190170Y-73918065D01*
X159690170Y-73918065D01*
X159690170Y-74203779D01*
X160333027Y-73275208D02*
X158833027Y-73275208D01*
X160333027Y-72418065D01*
X158833027Y-72418065D01*
X160333027Y-71703779D02*
X158833027Y-71703779D01*
X158833027Y-71346637D01*
X158904456Y-71132351D01*
X159047313Y-70989494D01*
X159190170Y-70918065D01*
X159475884Y-70846637D01*
X159690170Y-70846637D01*
X159975884Y-70918065D01*
X160118741Y-70989494D01*
X160261598Y-71132351D01*
X160333027Y-71346637D01*
X160333027Y-71703779D01*
X177970571Y-115313428D02*
X176470571Y-115313428D01*
X176470571Y-114742000D01*
X176542000Y-114599142D01*
X176613428Y-114527714D01*
X176756285Y-114456285D01*
X176970571Y-114456285D01*
X177113428Y-114527714D01*
X177184857Y-114599142D01*
X177256285Y-114742000D01*
X177256285Y-115313428D01*
X177970571Y-113813428D02*
X176970571Y-113813428D01*
X177256285Y-113813428D02*
X177113428Y-113742000D01*
X177042000Y-113670571D01*
X176970571Y-113527714D01*
X176970571Y-113384857D01*
X177970571Y-112670571D02*
X177899142Y-112813428D01*
X177827714Y-112884857D01*
X177684857Y-112956285D01*
X177256285Y-112956285D01*
X177113428Y-112884857D01*
X177042000Y-112813428D01*
X176970571Y-112670571D01*
X176970571Y-112456285D01*
X177042000Y-112313428D01*
X177113428Y-112242000D01*
X177256285Y-112170571D01*
X177684857Y-112170571D01*
X177827714Y-112242000D01*
X177899142Y-112313428D01*
X177970571Y-112456285D01*
X177970571Y-112670571D01*
X176970571Y-111670571D02*
X177970571Y-111313428D01*
X176970571Y-110956285D02*
X177970571Y-111313428D01*
X178327714Y-111456285D01*
X178399142Y-111527714D01*
X178470571Y-111670571D01*
X177899142Y-109813428D02*
X177970571Y-109956285D01*
X177970571Y-110242000D01*
X177899142Y-110384857D01*
X177756285Y-110456285D01*
X177184857Y-110456285D01*
X177042000Y-110384857D01*
X176970571Y-110242000D01*
X176970571Y-109956285D01*
X177042000Y-109813428D01*
X177184857Y-109742000D01*
X177327714Y-109742000D01*
X177470571Y-110456285D01*
X177899142Y-108456285D02*
X177970571Y-108599142D01*
X177970571Y-108884857D01*
X177899142Y-109027714D01*
X177827714Y-109099142D01*
X177684857Y-109170571D01*
X177256285Y-109170571D01*
X177113428Y-109099142D01*
X177042000Y-109027714D01*
X176970571Y-108884857D01*
X176970571Y-108599142D01*
X177042000Y-108456285D01*
X176970571Y-108027714D02*
X176970571Y-107456285D01*
X176470571Y-107813428D02*
X177756285Y-107813428D01*
X177899142Y-107742000D01*
X177970571Y-107599142D01*
X177970571Y-107456285D01*
X177970571Y-106742000D02*
X177899142Y-106884857D01*
X177827714Y-106956285D01*
X177684857Y-107027714D01*
X177256285Y-107027714D01*
X177113428Y-106956285D01*
X177042000Y-106884857D01*
X176970571Y-106742000D01*
X176970571Y-106527714D01*
X177042000Y-106384857D01*
X177113428Y-106313428D01*
X177256285Y-106242000D01*
X177684857Y-106242000D01*
X177827714Y-106313428D01*
X177899142Y-106384857D01*
X177970571Y-106527714D01*
X177970571Y-106742000D01*
X177970571Y-103813428D02*
X176470571Y-103813428D01*
X177899142Y-103813428D02*
X177970571Y-103956285D01*
X177970571Y-104242000D01*
X177899142Y-104384857D01*
X177827714Y-104456285D01*
X177684857Y-104527714D01*
X177256285Y-104527714D01*
X177113428Y-104456285D01*
X177042000Y-104384857D01*
X176970571Y-104242000D01*
X176970571Y-103956285D01*
X177042000Y-103813428D01*
X177899142Y-102527714D02*
X177970571Y-102670571D01*
X177970571Y-102956285D01*
X177899142Y-103099142D01*
X177756285Y-103170571D01*
X177184857Y-103170571D01*
X177042000Y-103099142D01*
X176970571Y-102956285D01*
X176970571Y-102670571D01*
X177042000Y-102527714D01*
X177184857Y-102456285D01*
X177327714Y-102456285D01*
X177470571Y-103170571D01*
X177899142Y-100027714D02*
X177970571Y-100170571D01*
X177970571Y-100456285D01*
X177899142Y-100599142D01*
X177827714Y-100670571D01*
X177684857Y-100742000D01*
X177256285Y-100742000D01*
X177113428Y-100670571D01*
X177042000Y-100599142D01*
X176970571Y-100456285D01*
X176970571Y-100170571D01*
X177042000Y-100027714D01*
X177970571Y-99170571D02*
X177899142Y-99313428D01*
X177827714Y-99384857D01*
X177684857Y-99456285D01*
X177256285Y-99456285D01*
X177113428Y-99384857D01*
X177042000Y-99313428D01*
X176970571Y-99170571D01*
X176970571Y-98956285D01*
X177042000Y-98813428D01*
X177113428Y-98742000D01*
X177256285Y-98670571D01*
X177684857Y-98670571D01*
X177827714Y-98742000D01*
X177899142Y-98813428D01*
X177970571Y-98956285D01*
X177970571Y-99170571D01*
X177970571Y-98027714D02*
X176970571Y-98027714D01*
X177113428Y-98027714D02*
X177042000Y-97956285D01*
X176970571Y-97813428D01*
X176970571Y-97599142D01*
X177042000Y-97456285D01*
X177184857Y-97384857D01*
X177970571Y-97384857D01*
X177184857Y-97384857D02*
X177042000Y-97313428D01*
X176970571Y-97170571D01*
X176970571Y-96956285D01*
X177042000Y-96813428D01*
X177184857Y-96742000D01*
X177970571Y-96742000D01*
X176970571Y-95384857D02*
X177970571Y-95384857D01*
X176970571Y-96027714D02*
X177756285Y-96027714D01*
X177899142Y-95956285D01*
X177970571Y-95813428D01*
X177970571Y-95599142D01*
X177899142Y-95456285D01*
X177827714Y-95384857D01*
X176970571Y-94670571D02*
X177970571Y-94670571D01*
X177113428Y-94670571D02*
X177042000Y-94599142D01*
X176970571Y-94456285D01*
X176970571Y-94242000D01*
X177042000Y-94099142D01*
X177184857Y-94027714D01*
X177970571Y-94027714D01*
X177970571Y-93313428D02*
X176970571Y-93313428D01*
X176470571Y-93313428D02*
X176542000Y-93384857D01*
X176613428Y-93313428D01*
X176542000Y-93242000D01*
X176470571Y-93313428D01*
X176613428Y-93313428D01*
X177899142Y-91956285D02*
X177970571Y-92099142D01*
X177970571Y-92384857D01*
X177899142Y-92527714D01*
X177827714Y-92599142D01*
X177684857Y-92670571D01*
X177256285Y-92670571D01*
X177113428Y-92599142D01*
X177042000Y-92527714D01*
X176970571Y-92384857D01*
X176970571Y-92099142D01*
X177042000Y-91956285D01*
X177970571Y-90670571D02*
X177184857Y-90670571D01*
X177042000Y-90742000D01*
X176970571Y-90884857D01*
X176970571Y-91170571D01*
X177042000Y-91313428D01*
X177899142Y-90670571D02*
X177970571Y-90813428D01*
X177970571Y-91170571D01*
X177899142Y-91313428D01*
X177756285Y-91384857D01*
X177613428Y-91384857D01*
X177470571Y-91313428D01*
X177399142Y-91170571D01*
X177399142Y-90813428D01*
X177327714Y-90670571D01*
X177899142Y-89313428D02*
X177970571Y-89456285D01*
X177970571Y-89742000D01*
X177899142Y-89884857D01*
X177827714Y-89956285D01*
X177684857Y-90027714D01*
X177256285Y-90027714D01*
X177113428Y-89956285D01*
X177042000Y-89884857D01*
X176970571Y-89742000D01*
X176970571Y-89456285D01*
X177042000Y-89313428D01*
X177970571Y-88670571D02*
X176970571Y-88670571D01*
X176470571Y-88670571D02*
X176542000Y-88742000D01*
X176613428Y-88670571D01*
X176542000Y-88599142D01*
X176470571Y-88670571D01*
X176613428Y-88670571D01*
X177970571Y-87742000D02*
X177899142Y-87884857D01*
X177827714Y-87956285D01*
X177684857Y-88027714D01*
X177256285Y-88027714D01*
X177113428Y-87956285D01*
X177042000Y-87884857D01*
X176970571Y-87742000D01*
X176970571Y-87527714D01*
X177042000Y-87384857D01*
X177113428Y-87313428D01*
X177256285Y-87242000D01*
X177684857Y-87242000D01*
X177827714Y-87313428D01*
X177899142Y-87384857D01*
X177970571Y-87527714D01*
X177970571Y-87742000D01*
X176970571Y-86599142D02*
X177970571Y-86599142D01*
X177113428Y-86599142D02*
X177042000Y-86527714D01*
X176970571Y-86384857D01*
X176970571Y-86170571D01*
X177042000Y-86027714D01*
X177184857Y-85956285D01*
X177970571Y-85956285D01*
X177899142Y-84670571D02*
X177970571Y-84813428D01*
X177970571Y-85099142D01*
X177899142Y-85242000D01*
X177756285Y-85313428D01*
X177184857Y-85313428D01*
X177042000Y-85242000D01*
X176970571Y-85099142D01*
X176970571Y-84813428D01*
X177042000Y-84670571D01*
X177184857Y-84599142D01*
X177327714Y-84599142D01*
X177470571Y-85313428D01*
X177899142Y-84027714D02*
X177970571Y-83884857D01*
X177970571Y-83599142D01*
X177899142Y-83456285D01*
X177756285Y-83384857D01*
X177684857Y-83384857D01*
X177542000Y-83456285D01*
X177470571Y-83599142D01*
X177470571Y-83813428D01*
X177399142Y-83956285D01*
X177256285Y-84027714D01*
X177184857Y-84027714D01*
X177042000Y-83956285D01*
X176970571Y-83813428D01*
X176970571Y-83599142D01*
X177042000Y-83456285D01*
X177970571Y-81384857D02*
X177899142Y-81527714D01*
X177827714Y-81599142D01*
X177684857Y-81670571D01*
X177256285Y-81670571D01*
X177113428Y-81599142D01*
X177042000Y-81527714D01*
X176970571Y-81384857D01*
X176970571Y-81170571D01*
X177042000Y-81027714D01*
X177113428Y-80956285D01*
X177256285Y-80884857D01*
X177684857Y-80884857D01*
X177827714Y-80956285D01*
X177899142Y-81027714D01*
X177970571Y-81170571D01*
X177970571Y-81384857D01*
X176399142Y-81099142D02*
X176613428Y-81313428D01*
X176970571Y-80242000D02*
X178470571Y-80242000D01*
X177042000Y-80242000D02*
X176970571Y-80099142D01*
X176970571Y-79813428D01*
X177042000Y-79670571D01*
X177113428Y-79599142D01*
X177256285Y-79527714D01*
X177684857Y-79527714D01*
X177827714Y-79599142D01*
X177899142Y-79670571D01*
X177970571Y-79813428D01*
X177970571Y-80099142D01*
X177899142Y-80242000D01*
X176970571Y-79099142D02*
X176970571Y-78527714D01*
X176470571Y-78884857D02*
X177756285Y-78884857D01*
X177899142Y-78813428D01*
X177970571Y-78670571D01*
X177970571Y-78527714D01*
X177970571Y-78027714D02*
X176970571Y-78027714D01*
X176470571Y-78027714D02*
X176542000Y-78099142D01*
X176613428Y-78027714D01*
X176542000Y-77956285D01*
X176470571Y-78027714D01*
X176613428Y-78027714D01*
X177899142Y-76670571D02*
X177970571Y-76813428D01*
X177970571Y-77099142D01*
X177899142Y-77242000D01*
X177827714Y-77313428D01*
X177684857Y-77384857D01*
X177256285Y-77384857D01*
X177113428Y-77313428D01*
X177042000Y-77242000D01*
X176970571Y-77099142D01*
X176970571Y-76813428D01*
X177042000Y-76670571D01*
X177970571Y-75384857D02*
X177184857Y-75384857D01*
X177042000Y-75456285D01*
X176970571Y-75599142D01*
X176970571Y-75884857D01*
X177042000Y-76027714D01*
X177899142Y-75384857D02*
X177970571Y-75527714D01*
X177970571Y-75884857D01*
X177899142Y-76027714D01*
X177756285Y-76099142D01*
X177613428Y-76099142D01*
X177470571Y-76027714D01*
X177399142Y-75884857D01*
X177399142Y-75527714D01*
X177327714Y-75384857D01*
X177899142Y-74742000D02*
X177970571Y-74599142D01*
X177970571Y-74313428D01*
X177899142Y-74170571D01*
X177756285Y-74099142D01*
X177684857Y-74099142D01*
X177542000Y-74170571D01*
X177470571Y-74313428D01*
X177470571Y-74527714D01*
X177399142Y-74670571D01*
X177256285Y-74742000D01*
X177184857Y-74742000D01*
X177042000Y-74670571D01*
X176970571Y-74527714D01*
X176970571Y-74313428D01*
X177042000Y-74170571D01*
X128353027Y-74636351D02*
X129853027Y-74136351D01*
X128353027Y-73636351D01*
X129853027Y-73136351D02*
X128853027Y-73136351D01*
X128353027Y-73136351D02*
X128424456Y-73207779D01*
X128495884Y-73136351D01*
X128424456Y-73064922D01*
X128353027Y-73136351D01*
X128495884Y-73136351D01*
X128853027Y-72422065D02*
X129853027Y-72422065D01*
X128995884Y-72422065D02*
X128924456Y-72350637D01*
X128853027Y-72207779D01*
X128853027Y-71993494D01*
X128924456Y-71850637D01*
X129067313Y-71779208D01*
X129853027Y-71779208D01*
X115443142Y-86626000D02*
X115300285Y-86554571D01*
X115086000Y-86554571D01*
X114871714Y-86626000D01*
X114728857Y-86768857D01*
X114657428Y-86911714D01*
X114586000Y-87197428D01*
X114586000Y-87411714D01*
X114657428Y-87697428D01*
X114728857Y-87840285D01*
X114871714Y-87983142D01*
X115086000Y-88054571D01*
X115228857Y-88054571D01*
X115443142Y-87983142D01*
X115514571Y-87911714D01*
X115514571Y-87411714D01*
X115228857Y-87411714D01*
X116157428Y-88054571D02*
X116157428Y-86554571D01*
X117014571Y-88054571D01*
X117014571Y-86554571D01*
X117728857Y-88054571D02*
X117728857Y-86554571D01*
X118086000Y-86554571D01*
X118300285Y-86626000D01*
X118443142Y-86768857D01*
X118514571Y-86911714D01*
X118586000Y-87197428D01*
X118586000Y-87411714D01*
X118514571Y-87697428D01*
X118443142Y-87840285D01*
X118300285Y-87983142D01*
X118086000Y-88054571D01*
X117728857Y-88054571D01*
X114947142Y-95246000D02*
X115661428Y-95246000D01*
X114804285Y-95674571D02*
X115304285Y-94174571D01*
X115804285Y-95674571D01*
X116304285Y-95674571D02*
X116304285Y-94674571D01*
X116304285Y-94960285D02*
X116375714Y-94817428D01*
X116447142Y-94746000D01*
X116590000Y-94674571D01*
X116732857Y-94674571D01*
X117804285Y-95603142D02*
X117661428Y-95674571D01*
X117375714Y-95674571D01*
X117232857Y-95603142D01*
X117161428Y-95460285D01*
X117161428Y-94888857D01*
X117232857Y-94746000D01*
X117375714Y-94674571D01*
X117661428Y-94674571D01*
X117804285Y-94746000D01*
X117875714Y-94888857D01*
X117875714Y-95031714D01*
X117161428Y-95174571D01*
X118304285Y-94674571D02*
X118875714Y-94674571D01*
X118518571Y-95674571D02*
X118518571Y-94388857D01*
X118590000Y-94246000D01*
X118732857Y-94174571D01*
X118875714Y-94174571D01*
X115308285Y-91634571D02*
X116236857Y-91634571D01*
X115736857Y-92206000D01*
X115951142Y-92206000D01*
X116094000Y-92277428D01*
X116165428Y-92348857D01*
X116236857Y-92491714D01*
X116236857Y-92848857D01*
X116165428Y-92991714D01*
X116094000Y-93063142D01*
X115951142Y-93134571D01*
X115522571Y-93134571D01*
X115379714Y-93063142D01*
X115308285Y-92991714D01*
X116736857Y-92134571D02*
X117094000Y-93134571D01*
X117451142Y-92134571D01*
X117879714Y-91634571D02*
X118808285Y-91634571D01*
X118308285Y-92206000D01*
X118522571Y-92206000D01*
X118665428Y-92277428D01*
X118736857Y-92348857D01*
X118808285Y-92491714D01*
X118808285Y-92848857D01*
X118736857Y-92991714D01*
X118665428Y-93063142D01*
X118522571Y-93134571D01*
X118094000Y-93134571D01*
X117951142Y-93063142D01*
X117879714Y-92991714D01*
X117316285Y-89348571D02*
X116602000Y-89348571D01*
X116530571Y-90062857D01*
X116602000Y-89991428D01*
X116744857Y-89920000D01*
X117102000Y-89920000D01*
X117244857Y-89991428D01*
X117316285Y-90062857D01*
X117387714Y-90205714D01*
X117387714Y-90562857D01*
X117316285Y-90705714D01*
X117244857Y-90777142D01*
X117102000Y-90848571D01*
X116744857Y-90848571D01*
X116602000Y-90777142D01*
X116530571Y-90705714D01*
X117816285Y-89348571D02*
X118316285Y-90848571D01*
X118816285Y-89348571D01*
X115113714Y-80434571D02*
X114399428Y-80434571D01*
X114399428Y-78934571D01*
X115613714Y-79648857D02*
X116113714Y-79648857D01*
X116328000Y-80434571D02*
X115613714Y-80434571D01*
X115613714Y-78934571D01*
X116328000Y-78934571D01*
X116970857Y-80434571D02*
X116970857Y-78934571D01*
X117328000Y-78934571D01*
X117542285Y-79006000D01*
X117685142Y-79148857D01*
X117756571Y-79291714D01*
X117828000Y-79577428D01*
X117828000Y-79791714D01*
X117756571Y-80077428D01*
X117685142Y-80220285D01*
X117542285Y-80363142D01*
X117328000Y-80434571D01*
X116970857Y-80434571D01*
X114681142Y-76212000D02*
X114538285Y-76140571D01*
X114324000Y-76140571D01*
X114109714Y-76212000D01*
X113966857Y-76354857D01*
X113895428Y-76497714D01*
X113824000Y-76783428D01*
X113824000Y-76997714D01*
X113895428Y-77283428D01*
X113966857Y-77426285D01*
X114109714Y-77569142D01*
X114324000Y-77640571D01*
X114466857Y-77640571D01*
X114681142Y-77569142D01*
X114752571Y-77497714D01*
X114752571Y-76997714D01*
X114466857Y-76997714D01*
X115395428Y-77640571D02*
X115395428Y-76140571D01*
X116252571Y-77640571D01*
X116252571Y-76140571D01*
X116966857Y-77640571D02*
X116966857Y-76140571D01*
X117324000Y-76140571D01*
X117538285Y-76212000D01*
X117681142Y-76354857D01*
X117752571Y-76497714D01*
X117824000Y-76783428D01*
X117824000Y-76997714D01*
X117752571Y-77283428D01*
X117681142Y-77426285D01*
X117538285Y-77569142D01*
X117324000Y-77640571D01*
X116966857Y-77640571D01*
X168064571Y-111295428D02*
X166564571Y-111295428D01*
X166564571Y-110938285D01*
X166636000Y-110724000D01*
X166778857Y-110581142D01*
X166921714Y-110509714D01*
X167207428Y-110438285D01*
X167421714Y-110438285D01*
X167707428Y-110509714D01*
X167850285Y-110581142D01*
X167993142Y-110724000D01*
X168064571Y-110938285D01*
X168064571Y-111295428D01*
X168064571Y-109009714D02*
X168064571Y-109866857D01*
X168064571Y-109438285D02*
X166564571Y-109438285D01*
X166778857Y-109581142D01*
X166921714Y-109724000D01*
X166993142Y-109866857D01*
X166564571Y-108509714D02*
X166564571Y-107581142D01*
X167136000Y-108081142D01*
X167136000Y-107866857D01*
X167207428Y-107724000D01*
X167278857Y-107652571D01*
X167421714Y-107581142D01*
X167778857Y-107581142D01*
X167921714Y-107652571D01*
X167993142Y-107724000D01*
X168064571Y-107866857D01*
X168064571Y-108295428D01*
X167993142Y-108438285D01*
X167921714Y-108509714D01*
X165270571Y-111295428D02*
X163770571Y-111295428D01*
X163770571Y-110938285D01*
X163842000Y-110724000D01*
X163984857Y-110581142D01*
X164127714Y-110509714D01*
X164413428Y-110438285D01*
X164627714Y-110438285D01*
X164913428Y-110509714D01*
X165056285Y-110581142D01*
X165199142Y-110724000D01*
X165270571Y-110938285D01*
X165270571Y-111295428D01*
X165270571Y-109009714D02*
X165270571Y-109866857D01*
X165270571Y-109438285D02*
X163770571Y-109438285D01*
X163984857Y-109581142D01*
X164127714Y-109724000D01*
X164199142Y-109866857D01*
X163913428Y-108438285D02*
X163842000Y-108366857D01*
X163770571Y-108224000D01*
X163770571Y-107866857D01*
X163842000Y-107724000D01*
X163913428Y-107652571D01*
X164056285Y-107581142D01*
X164199142Y-107581142D01*
X164413428Y-107652571D01*
X165270571Y-108509714D01*
X165270571Y-107581142D01*
X162730571Y-111295428D02*
X161230571Y-111295428D01*
X161230571Y-110938285D01*
X161302000Y-110724000D01*
X161444857Y-110581142D01*
X161587714Y-110509714D01*
X161873428Y-110438285D01*
X162087714Y-110438285D01*
X162373428Y-110509714D01*
X162516285Y-110581142D01*
X162659142Y-110724000D01*
X162730571Y-110938285D01*
X162730571Y-111295428D01*
X162730571Y-109009714D02*
X162730571Y-109866857D01*
X162730571Y-109438285D02*
X161230571Y-109438285D01*
X161444857Y-109581142D01*
X161587714Y-109724000D01*
X161659142Y-109866857D01*
X162730571Y-107581142D02*
X162730571Y-108438285D01*
X162730571Y-108009714D02*
X161230571Y-108009714D01*
X161444857Y-108152571D01*
X161587714Y-108295428D01*
X161659142Y-108438285D01*
X160190571Y-111295428D02*
X158690571Y-111295428D01*
X158690571Y-110938285D01*
X158762000Y-110724000D01*
X158904857Y-110581142D01*
X159047714Y-110509714D01*
X159333428Y-110438285D01*
X159547714Y-110438285D01*
X159833428Y-110509714D01*
X159976285Y-110581142D01*
X160119142Y-110724000D01*
X160190571Y-110938285D01*
X160190571Y-111295428D01*
X160190571Y-109009714D02*
X160190571Y-109866857D01*
X160190571Y-109438285D02*
X158690571Y-109438285D01*
X158904857Y-109581142D01*
X159047714Y-109724000D01*
X159119142Y-109866857D01*
X158690571Y-108081142D02*
X158690571Y-107938285D01*
X158762000Y-107795428D01*
X158833428Y-107724000D01*
X158976285Y-107652571D01*
X159262000Y-107581142D01*
X159619142Y-107581142D01*
X159904857Y-107652571D01*
X160047714Y-107724000D01*
X160119142Y-107795428D01*
X160190571Y-107938285D01*
X160190571Y-108081142D01*
X160119142Y-108224000D01*
X160047714Y-108295428D01*
X159904857Y-108366857D01*
X159619142Y-108438285D01*
X159262000Y-108438285D01*
X158976285Y-108366857D01*
X158833428Y-108295428D01*
X158762000Y-108224000D01*
X158690571Y-108081142D01*
X157650571Y-109819142D02*
X156150571Y-109819142D01*
X156150571Y-109462000D01*
X156222000Y-109247714D01*
X156364857Y-109104857D01*
X156507714Y-109033428D01*
X156793428Y-108962000D01*
X157007714Y-108962000D01*
X157293428Y-109033428D01*
X157436285Y-109104857D01*
X157579142Y-109247714D01*
X157650571Y-109462000D01*
X157650571Y-109819142D01*
X157650571Y-108247714D02*
X157650571Y-107962000D01*
X157579142Y-107819142D01*
X157507714Y-107747714D01*
X157293428Y-107604857D01*
X157007714Y-107533428D01*
X156436285Y-107533428D01*
X156293428Y-107604857D01*
X156222000Y-107676285D01*
X156150571Y-107819142D01*
X156150571Y-108104857D01*
X156222000Y-108247714D01*
X156293428Y-108319142D01*
X156436285Y-108390571D01*
X156793428Y-108390571D01*
X156936285Y-108319142D01*
X157007714Y-108247714D01*
X157079142Y-108104857D01*
X157079142Y-107819142D01*
X157007714Y-107676285D01*
X156936285Y-107604857D01*
X156793428Y-107533428D01*
X155110571Y-109819142D02*
X153610571Y-109819142D01*
X153610571Y-109462000D01*
X153682000Y-109247714D01*
X153824857Y-109104857D01*
X153967714Y-109033428D01*
X154253428Y-108962000D01*
X154467714Y-108962000D01*
X154753428Y-109033428D01*
X154896285Y-109104857D01*
X155039142Y-109247714D01*
X155110571Y-109462000D01*
X155110571Y-109819142D01*
X154253428Y-108104857D02*
X154182000Y-108247714D01*
X154110571Y-108319142D01*
X153967714Y-108390571D01*
X153896285Y-108390571D01*
X153753428Y-108319142D01*
X153682000Y-108247714D01*
X153610571Y-108104857D01*
X153610571Y-107819142D01*
X153682000Y-107676285D01*
X153753428Y-107604857D01*
X153896285Y-107533428D01*
X153967714Y-107533428D01*
X154110571Y-107604857D01*
X154182000Y-107676285D01*
X154253428Y-107819142D01*
X154253428Y-108104857D01*
X154324857Y-108247714D01*
X154396285Y-108319142D01*
X154539142Y-108390571D01*
X154824857Y-108390571D01*
X154967714Y-108319142D01*
X155039142Y-108247714D01*
X155110571Y-108104857D01*
X155110571Y-107819142D01*
X155039142Y-107676285D01*
X154967714Y-107604857D01*
X154824857Y-107533428D01*
X154539142Y-107533428D01*
X154396285Y-107604857D01*
X154324857Y-107676285D01*
X154253428Y-107819142D01*
X152570571Y-109819142D02*
X151070571Y-109819142D01*
X151070571Y-109462000D01*
X151142000Y-109247714D01*
X151284857Y-109104857D01*
X151427714Y-109033428D01*
X151713428Y-108962000D01*
X151927714Y-108962000D01*
X152213428Y-109033428D01*
X152356285Y-109104857D01*
X152499142Y-109247714D01*
X152570571Y-109462000D01*
X152570571Y-109819142D01*
X151070571Y-108462000D02*
X151070571Y-107462000D01*
X152570571Y-108104857D01*
X150030571Y-109819142D02*
X148530571Y-109819142D01*
X148530571Y-109462000D01*
X148602000Y-109247714D01*
X148744857Y-109104857D01*
X148887714Y-109033428D01*
X149173428Y-108962000D01*
X149387714Y-108962000D01*
X149673428Y-109033428D01*
X149816285Y-109104857D01*
X149959142Y-109247714D01*
X150030571Y-109462000D01*
X150030571Y-109819142D01*
X148530571Y-107676285D02*
X148530571Y-107962000D01*
X148602000Y-108104857D01*
X148673428Y-108176285D01*
X148887714Y-108319142D01*
X149173428Y-108390571D01*
X149744857Y-108390571D01*
X149887714Y-108319142D01*
X149959142Y-108247714D01*
X150030571Y-108104857D01*
X150030571Y-107819142D01*
X149959142Y-107676285D01*
X149887714Y-107604857D01*
X149744857Y-107533428D01*
X149387714Y-107533428D01*
X149244857Y-107604857D01*
X149173428Y-107676285D01*
X149102000Y-107819142D01*
X149102000Y-108104857D01*
X149173428Y-108247714D01*
X149244857Y-108319142D01*
X149387714Y-108390571D01*
X147490571Y-109819142D02*
X145990571Y-109819142D01*
X145990571Y-109462000D01*
X146062000Y-109247714D01*
X146204857Y-109104857D01*
X146347714Y-109033428D01*
X146633428Y-108962000D01*
X146847714Y-108962000D01*
X147133428Y-109033428D01*
X147276285Y-109104857D01*
X147419142Y-109247714D01*
X147490571Y-109462000D01*
X147490571Y-109819142D01*
X145990571Y-107604857D02*
X145990571Y-108319142D01*
X146704857Y-108390571D01*
X146633428Y-108319142D01*
X146562000Y-108176285D01*
X146562000Y-107819142D01*
X146633428Y-107676285D01*
X146704857Y-107604857D01*
X146847714Y-107533428D01*
X147204857Y-107533428D01*
X147347714Y-107604857D01*
X147419142Y-107676285D01*
X147490571Y-107819142D01*
X147490571Y-108176285D01*
X147419142Y-108319142D01*
X147347714Y-108390571D01*
X144950571Y-109819142D02*
X143450571Y-109819142D01*
X143450571Y-109462000D01*
X143522000Y-109247714D01*
X143664857Y-109104857D01*
X143807714Y-109033428D01*
X144093428Y-108962000D01*
X144307714Y-108962000D01*
X144593428Y-109033428D01*
X144736285Y-109104857D01*
X144879142Y-109247714D01*
X144950571Y-109462000D01*
X144950571Y-109819142D01*
X143950571Y-107676285D02*
X144950571Y-107676285D01*
X143379142Y-108033428D02*
X144450571Y-108390571D01*
X144450571Y-107462000D01*
X142410571Y-109819142D02*
X140910571Y-109819142D01*
X140910571Y-109462000D01*
X140982000Y-109247714D01*
X141124857Y-109104857D01*
X141267714Y-109033428D01*
X141553428Y-108962000D01*
X141767714Y-108962000D01*
X142053428Y-109033428D01*
X142196285Y-109104857D01*
X142339142Y-109247714D01*
X142410571Y-109462000D01*
X142410571Y-109819142D01*
X140910571Y-108462000D02*
X140910571Y-107533428D01*
X141482000Y-108033428D01*
X141482000Y-107819142D01*
X141553428Y-107676285D01*
X141624857Y-107604857D01*
X141767714Y-107533428D01*
X142124857Y-107533428D01*
X142267714Y-107604857D01*
X142339142Y-107676285D01*
X142410571Y-107819142D01*
X142410571Y-108247714D01*
X142339142Y-108390571D01*
X142267714Y-108462000D01*
X139870571Y-109819142D02*
X138370571Y-109819142D01*
X138370571Y-109462000D01*
X138442000Y-109247714D01*
X138584857Y-109104857D01*
X138727714Y-109033428D01*
X139013428Y-108962000D01*
X139227714Y-108962000D01*
X139513428Y-109033428D01*
X139656285Y-109104857D01*
X139799142Y-109247714D01*
X139870571Y-109462000D01*
X139870571Y-109819142D01*
X138513428Y-108390571D02*
X138442000Y-108319142D01*
X138370571Y-108176285D01*
X138370571Y-107819142D01*
X138442000Y-107676285D01*
X138513428Y-107604857D01*
X138656285Y-107533428D01*
X138799142Y-107533428D01*
X139013428Y-107604857D01*
X139870571Y-108462000D01*
X139870571Y-107533428D01*
X132504571Y-110073142D02*
X131004571Y-110073142D01*
X131004571Y-109716000D01*
X131076000Y-109501714D01*
X131218857Y-109358857D01*
X131361714Y-109287428D01*
X131647428Y-109216000D01*
X131861714Y-109216000D01*
X132147428Y-109287428D01*
X132290285Y-109358857D01*
X132433142Y-109501714D01*
X132504571Y-109716000D01*
X132504571Y-110073142D01*
X131004571Y-108287428D02*
X131004571Y-108144571D01*
X131076000Y-108001714D01*
X131147428Y-107930285D01*
X131290285Y-107858857D01*
X131576000Y-107787428D01*
X131933142Y-107787428D01*
X132218857Y-107858857D01*
X132361714Y-107930285D01*
X132433142Y-108001714D01*
X132504571Y-108144571D01*
X132504571Y-108287428D01*
X132433142Y-108430285D01*
X132361714Y-108501714D01*
X132218857Y-108573142D01*
X131933142Y-108644571D01*
X131576000Y-108644571D01*
X131290285Y-108573142D01*
X131147428Y-108501714D01*
X131076000Y-108430285D01*
X131004571Y-108287428D01*
X129710571Y-110073142D02*
X128210571Y-110073142D01*
X128210571Y-109716000D01*
X128282000Y-109501714D01*
X128424857Y-109358857D01*
X128567714Y-109287428D01*
X128853428Y-109216000D01*
X129067714Y-109216000D01*
X129353428Y-109287428D01*
X129496285Y-109358857D01*
X129639142Y-109501714D01*
X129710571Y-109716000D01*
X129710571Y-110073142D01*
X129710571Y-107787428D02*
X129710571Y-108644571D01*
X129710571Y-108216000D02*
X128210571Y-108216000D01*
X128424857Y-108358857D01*
X128567714Y-108501714D01*
X128639142Y-108644571D01*
X157110456Y-74668065D02*
X157110456Y-73953779D01*
X157539027Y-74810922D02*
X156039027Y-74310922D01*
X157539027Y-73810922D01*
X157539027Y-73310922D02*
X156039027Y-73310922D01*
X156039027Y-72953779D01*
X156110456Y-72739494D01*
X156253313Y-72596637D01*
X156396170Y-72525208D01*
X156681884Y-72453779D01*
X156896170Y-72453779D01*
X157181884Y-72525208D01*
X157324741Y-72596637D01*
X157467598Y-72739494D01*
X157539027Y-72953779D01*
X157539027Y-73310922D01*
X156039027Y-71525208D02*
X156039027Y-71382351D01*
X156110456Y-71239494D01*
X156181884Y-71168065D01*
X156324741Y-71096637D01*
X156610456Y-71025208D01*
X156967598Y-71025208D01*
X157253313Y-71096637D01*
X157396170Y-71168065D01*
X157467598Y-71239494D01*
X157539027Y-71382351D01*
X157539027Y-71525208D01*
X157467598Y-71668065D01*
X157396170Y-71739494D01*
X157253313Y-71810922D01*
X156967598Y-71882351D01*
X156610456Y-71882351D01*
X156324741Y-71810922D01*
X156181884Y-71739494D01*
X156110456Y-71668065D01*
X156039027Y-71525208D01*
X154570456Y-74668065D02*
X154570456Y-73953779D01*
X154999027Y-74810922D02*
X153499027Y-74310922D01*
X154999027Y-73810922D01*
X154999027Y-73310922D02*
X153499027Y-73310922D01*
X153499027Y-72953779D01*
X153570456Y-72739494D01*
X153713313Y-72596637D01*
X153856170Y-72525208D01*
X154141884Y-72453779D01*
X154356170Y-72453779D01*
X154641884Y-72525208D01*
X154784741Y-72596637D01*
X154927598Y-72739494D01*
X154999027Y-72953779D01*
X154999027Y-73310922D01*
X154999027Y-71025208D02*
X154999027Y-71882351D01*
X154999027Y-71453779D02*
X153499027Y-71453779D01*
X153713313Y-71596637D01*
X153856170Y-71739494D01*
X153927598Y-71882351D01*
X151776456Y-74668065D02*
X151776456Y-73953779D01*
X152205027Y-74810922D02*
X150705027Y-74310922D01*
X152205027Y-73810922D01*
X152205027Y-73310922D02*
X150705027Y-73310922D01*
X150705027Y-72953779D01*
X150776456Y-72739494D01*
X150919313Y-72596637D01*
X151062170Y-72525208D01*
X151347884Y-72453779D01*
X151562170Y-72453779D01*
X151847884Y-72525208D01*
X151990741Y-72596637D01*
X152133598Y-72739494D01*
X152205027Y-72953779D01*
X152205027Y-73310922D01*
X150847884Y-71882351D02*
X150776456Y-71810922D01*
X150705027Y-71668065D01*
X150705027Y-71310922D01*
X150776456Y-71168065D01*
X150847884Y-71096637D01*
X150990741Y-71025208D01*
X151133598Y-71025208D01*
X151347884Y-71096637D01*
X152205027Y-71953779D01*
X152205027Y-71025208D01*
X149236456Y-74668065D02*
X149236456Y-73953779D01*
X149665027Y-74810922D02*
X148165027Y-74310922D01*
X149665027Y-73810922D01*
X149665027Y-73310922D02*
X148165027Y-73310922D01*
X148165027Y-72953779D01*
X148236456Y-72739494D01*
X148379313Y-72596637D01*
X148522170Y-72525208D01*
X148807884Y-72453779D01*
X149022170Y-72453779D01*
X149307884Y-72525208D01*
X149450741Y-72596637D01*
X149593598Y-72739494D01*
X149665027Y-72953779D01*
X149665027Y-73310922D01*
X148165027Y-71953779D02*
X148165027Y-71025208D01*
X148736456Y-71525208D01*
X148736456Y-71310922D01*
X148807884Y-71168065D01*
X148879313Y-71096637D01*
X149022170Y-71025208D01*
X149379313Y-71025208D01*
X149522170Y-71096637D01*
X149593598Y-71168065D01*
X149665027Y-71310922D01*
X149665027Y-71739494D01*
X149593598Y-71882351D01*
X149522170Y-71953779D01*
X146696456Y-74668065D02*
X146696456Y-73953779D01*
X147125027Y-74810922D02*
X145625027Y-74310922D01*
X147125027Y-73810922D01*
X147125027Y-73310922D02*
X145625027Y-73310922D01*
X145625027Y-72953779D01*
X145696456Y-72739494D01*
X145839313Y-72596637D01*
X145982170Y-72525208D01*
X146267884Y-72453779D01*
X146482170Y-72453779D01*
X146767884Y-72525208D01*
X146910741Y-72596637D01*
X147053598Y-72739494D01*
X147125027Y-72953779D01*
X147125027Y-73310922D01*
X146125027Y-71168065D02*
X147125027Y-71168065D01*
X145553598Y-71525208D02*
X146625027Y-71882351D01*
X146625027Y-70953779D01*
X144156456Y-74668065D02*
X144156456Y-73953779D01*
X144585027Y-74810922D02*
X143085027Y-74310922D01*
X144585027Y-73810922D01*
X144585027Y-73310922D02*
X143085027Y-73310922D01*
X143085027Y-72953779D01*
X143156456Y-72739494D01*
X143299313Y-72596637D01*
X143442170Y-72525208D01*
X143727884Y-72453779D01*
X143942170Y-72453779D01*
X144227884Y-72525208D01*
X144370741Y-72596637D01*
X144513598Y-72739494D01*
X144585027Y-72953779D01*
X144585027Y-73310922D01*
X143085027Y-71096637D02*
X143085027Y-71810922D01*
X143799313Y-71882351D01*
X143727884Y-71810922D01*
X143656456Y-71668065D01*
X143656456Y-71310922D01*
X143727884Y-71168065D01*
X143799313Y-71096637D01*
X143942170Y-71025208D01*
X144299313Y-71025208D01*
X144442170Y-71096637D01*
X144513598Y-71168065D01*
X144585027Y-71310922D01*
X144585027Y-71668065D01*
X144513598Y-71810922D01*
X144442170Y-71882351D01*
X141616456Y-74668065D02*
X141616456Y-73953779D01*
X142045027Y-74810922D02*
X140545027Y-74310922D01*
X142045027Y-73810922D01*
X142045027Y-73310922D02*
X140545027Y-73310922D01*
X140545027Y-72953779D01*
X140616456Y-72739494D01*
X140759313Y-72596637D01*
X140902170Y-72525208D01*
X141187884Y-72453779D01*
X141402170Y-72453779D01*
X141687884Y-72525208D01*
X141830741Y-72596637D01*
X141973598Y-72739494D01*
X142045027Y-72953779D01*
X142045027Y-73310922D01*
X140545027Y-71168065D02*
X140545027Y-71453779D01*
X140616456Y-71596637D01*
X140687884Y-71668065D01*
X140902170Y-71810922D01*
X141187884Y-71882351D01*
X141759313Y-71882351D01*
X141902170Y-71810922D01*
X141973598Y-71739494D01*
X142045027Y-71596637D01*
X142045027Y-71310922D01*
X141973598Y-71168065D01*
X141902170Y-71096637D01*
X141759313Y-71025208D01*
X141402170Y-71025208D01*
X141259313Y-71096637D01*
X141187884Y-71168065D01*
X141116456Y-71310922D01*
X141116456Y-71596637D01*
X141187884Y-71739494D01*
X141259313Y-71810922D01*
X141402170Y-71882351D01*
X139076456Y-74668065D02*
X139076456Y-73953779D01*
X139505027Y-74810922D02*
X138005027Y-74310922D01*
X139505027Y-73810922D01*
X139505027Y-73310922D02*
X138005027Y-73310922D01*
X138005027Y-72953779D01*
X138076456Y-72739494D01*
X138219313Y-72596637D01*
X138362170Y-72525208D01*
X138647884Y-72453779D01*
X138862170Y-72453779D01*
X139147884Y-72525208D01*
X139290741Y-72596637D01*
X139433598Y-72739494D01*
X139505027Y-72953779D01*
X139505027Y-73310922D01*
X138005027Y-71953779D02*
X138005027Y-70953779D01*
X139505027Y-71596637D01*
X105330857Y-79188571D02*
X106259428Y-79188571D01*
X105759428Y-79760000D01*
X105973714Y-79760000D01*
X106116571Y-79831428D01*
X106188000Y-79902857D01*
X106259428Y-80045714D01*
X106259428Y-80402857D01*
X106188000Y-80545714D01*
X106116571Y-80617142D01*
X105973714Y-80688571D01*
X105545142Y-80688571D01*
X105402285Y-80617142D01*
X105330857Y-80545714D01*
X107545142Y-79188571D02*
X107259428Y-79188571D01*
X107116571Y-79260000D01*
X107045142Y-79331428D01*
X106902285Y-79545714D01*
X106830857Y-79831428D01*
X106830857Y-80402857D01*
X106902285Y-80545714D01*
X106973714Y-80617142D01*
X107116571Y-80688571D01*
X107402285Y-80688571D01*
X107545142Y-80617142D01*
X107616571Y-80545714D01*
X107688000Y-80402857D01*
X107688000Y-80045714D01*
X107616571Y-79902857D01*
X107545142Y-79831428D01*
X107402285Y-79760000D01*
X107116571Y-79760000D01*
X106973714Y-79831428D01*
X106902285Y-79902857D01*
X106830857Y-80045714D01*
X108116571Y-79188571D02*
X108616571Y-80688571D01*
X109116571Y-79188571D01*
X105968952Y-76416000D02*
X105816571Y-76339809D01*
X105588000Y-76339809D01*
X105359428Y-76416000D01*
X105207047Y-76568380D01*
X105130857Y-76720761D01*
X105054666Y-77025523D01*
X105054666Y-77254095D01*
X105130857Y-77558857D01*
X105207047Y-77711238D01*
X105359428Y-77863619D01*
X105588000Y-77939809D01*
X105740380Y-77939809D01*
X105968952Y-77863619D01*
X106045142Y-77787428D01*
X106045142Y-77254095D01*
X105740380Y-77254095D01*
X106730857Y-77939809D02*
X106730857Y-76339809D01*
X107645142Y-77939809D01*
X107645142Y-76339809D01*
X108407047Y-77939809D02*
X108407047Y-76339809D01*
X108788000Y-76339809D01*
X109016571Y-76416000D01*
X109168952Y-76568380D01*
X109245142Y-76720761D01*
X109321333Y-77025523D01*
X109321333Y-77254095D01*
X109245142Y-77558857D01*
X109168952Y-77711238D01*
X109016571Y-77863619D01*
X108788000Y-77939809D01*
X108407047Y-77939809D01*
X175684571Y-109274000D02*
X174184571Y-109274000D01*
X174184571Y-108916857D01*
X174256000Y-108702571D01*
X174398857Y-108559714D01*
X174541714Y-108488285D01*
X174827428Y-108416857D01*
X175041714Y-108416857D01*
X175327428Y-108488285D01*
X175470285Y-108559714D01*
X175613142Y-108702571D01*
X175684571Y-108916857D01*
X175684571Y-109274000D01*
X175684571Y-107774000D02*
X174684571Y-107774000D01*
X174184571Y-107774000D02*
X174256000Y-107845428D01*
X174327428Y-107774000D01*
X174256000Y-107702571D01*
X174184571Y-107774000D01*
X174327428Y-107774000D01*
X175613142Y-107131142D02*
X175684571Y-106988285D01*
X175684571Y-106702571D01*
X175613142Y-106559714D01*
X175470285Y-106488285D01*
X175398857Y-106488285D01*
X175256000Y-106559714D01*
X175184571Y-106702571D01*
X175184571Y-106916857D01*
X175113142Y-107059714D01*
X174970285Y-107131142D01*
X174898857Y-107131142D01*
X174756000Y-107059714D01*
X174684571Y-106916857D01*
X174684571Y-106702571D01*
X174756000Y-106559714D01*
X175613142Y-105274000D02*
X175684571Y-105416857D01*
X175684571Y-105702571D01*
X175613142Y-105845428D01*
X175470285Y-105916857D01*
X174898857Y-105916857D01*
X174756000Y-105845428D01*
X174684571Y-105702571D01*
X174684571Y-105416857D01*
X174756000Y-105274000D01*
X174898857Y-105202571D01*
X175041714Y-105202571D01*
X175184571Y-105916857D01*
X174684571Y-104559714D02*
X175684571Y-104559714D01*
X174827428Y-104559714D02*
X174756000Y-104488285D01*
X174684571Y-104345428D01*
X174684571Y-104131142D01*
X174756000Y-103988285D01*
X174898857Y-103916857D01*
X175684571Y-103916857D01*
X174327428Y-104631142D02*
X174256000Y-104559714D01*
X174184571Y-104416857D01*
X174327428Y-104131142D01*
X174256000Y-103988285D01*
X174184571Y-103916857D01*
X175684571Y-102559714D02*
X174898857Y-102559714D01*
X174756000Y-102631142D01*
X174684571Y-102774000D01*
X174684571Y-103059714D01*
X174756000Y-103202571D01*
X175613142Y-102559714D02*
X175684571Y-102702571D01*
X175684571Y-103059714D01*
X175613142Y-103202571D01*
X175470285Y-103274000D01*
X175327428Y-103274000D01*
X175184571Y-103202571D01*
X175113142Y-103059714D01*
X175113142Y-102702571D01*
X175041714Y-102559714D01*
X175684571Y-101202571D02*
X174184571Y-101202571D01*
X175613142Y-101202571D02*
X175684571Y-101345428D01*
X175684571Y-101631142D01*
X175613142Y-101774000D01*
X175541714Y-101845428D01*
X175398857Y-101916857D01*
X174970285Y-101916857D01*
X174827428Y-101845428D01*
X174756000Y-101774000D01*
X174684571Y-101631142D01*
X174684571Y-101345428D01*
X174756000Y-101202571D01*
X175684571Y-100274000D02*
X175613142Y-100416857D01*
X175541714Y-100488285D01*
X175398857Y-100559714D01*
X174970285Y-100559714D01*
X174827428Y-100488285D01*
X174756000Y-100416857D01*
X174684571Y-100274000D01*
X174684571Y-100059714D01*
X174756000Y-99916857D01*
X174827428Y-99845428D01*
X174970285Y-99774000D01*
X175398857Y-99774000D01*
X175541714Y-99845428D01*
X175613142Y-99916857D01*
X175684571Y-100059714D01*
X175684571Y-100274000D01*
X174684571Y-97988285D02*
X176184571Y-97988285D01*
X174756000Y-97988285D02*
X174684571Y-97845428D01*
X174684571Y-97559714D01*
X174756000Y-97416857D01*
X174827428Y-97345428D01*
X174970285Y-97274000D01*
X175398857Y-97274000D01*
X175541714Y-97345428D01*
X175613142Y-97416857D01*
X175684571Y-97559714D01*
X175684571Y-97845428D01*
X175613142Y-97988285D01*
X175684571Y-96416857D02*
X175613142Y-96559714D01*
X175541714Y-96631142D01*
X175398857Y-96702571D01*
X174970285Y-96702571D01*
X174827428Y-96631142D01*
X174756000Y-96559714D01*
X174684571Y-96416857D01*
X174684571Y-96202571D01*
X174756000Y-96059714D01*
X174827428Y-95988285D01*
X174970285Y-95916857D01*
X175398857Y-95916857D01*
X175541714Y-95988285D01*
X175613142Y-96059714D01*
X175684571Y-96202571D01*
X175684571Y-96416857D01*
X175684571Y-95274000D02*
X174684571Y-95274000D01*
X174970285Y-95274000D02*
X174827428Y-95202571D01*
X174756000Y-95131142D01*
X174684571Y-94988285D01*
X174684571Y-94845428D01*
X174184571Y-93416857D02*
X174184571Y-92559714D01*
X175684571Y-92988285D02*
X174184571Y-92988285D01*
X175613142Y-91488285D02*
X175684571Y-91631142D01*
X175684571Y-91916857D01*
X175613142Y-92059714D01*
X175470285Y-92131142D01*
X174898857Y-92131142D01*
X174756000Y-92059714D01*
X174684571Y-91916857D01*
X174684571Y-91631142D01*
X174756000Y-91488285D01*
X174898857Y-91416857D01*
X175041714Y-91416857D01*
X175184571Y-92131142D01*
X175684571Y-90774000D02*
X174684571Y-90774000D01*
X174184571Y-90774000D02*
X174256000Y-90845428D01*
X174327428Y-90774000D01*
X174256000Y-90702571D01*
X174184571Y-90774000D01*
X174327428Y-90774000D01*
X175684571Y-89416857D02*
X174184571Y-89416857D01*
X175613142Y-89416857D02*
X175684571Y-89559714D01*
X175684571Y-89845428D01*
X175613142Y-89988285D01*
X175541714Y-90059714D01*
X175398857Y-90131142D01*
X174970285Y-90131142D01*
X174827428Y-90059714D01*
X174756000Y-89988285D01*
X174684571Y-89845428D01*
X174684571Y-89559714D01*
X174756000Y-89416857D01*
X175613142Y-88131142D02*
X175684571Y-88274000D01*
X175684571Y-88559714D01*
X175613142Y-88702571D01*
X175470285Y-88774000D01*
X174898857Y-88774000D01*
X174756000Y-88702571D01*
X174684571Y-88559714D01*
X174684571Y-88274000D01*
X174756000Y-88131142D01*
X174898857Y-88059714D01*
X175041714Y-88059714D01*
X175184571Y-88774000D01*
X175613142Y-87488285D02*
X175684571Y-87274000D01*
X175684571Y-86916857D01*
X175613142Y-86774000D01*
X175541714Y-86702571D01*
X175398857Y-86631142D01*
X175256000Y-86631142D01*
X175113142Y-86702571D01*
X175041714Y-86774000D01*
X174970285Y-86916857D01*
X174898857Y-87202571D01*
X174827428Y-87345428D01*
X174756000Y-87416857D01*
X174613142Y-87488285D01*
X174470285Y-87488285D01*
X174327428Y-87416857D01*
X174256000Y-87345428D01*
X174184571Y-87202571D01*
X174184571Y-86845428D01*
X174256000Y-86631142D01*
X175256000Y-86059714D02*
X175256000Y-85345428D01*
X175684571Y-86202571D02*
X174184571Y-85702571D01*
X175684571Y-85202571D01*
X174184571Y-84916857D02*
X174184571Y-84059714D01*
X175684571Y-84488285D02*
X174184571Y-84488285D01*
X172716000Y-109520000D02*
X172716000Y-108805714D01*
X173144571Y-109662857D02*
X171644571Y-109162857D01*
X173144571Y-108662857D01*
X173144571Y-108162857D02*
X172144571Y-108162857D01*
X172430285Y-108162857D02*
X172287428Y-108091428D01*
X172216000Y-108020000D01*
X172144571Y-107877142D01*
X172144571Y-107734285D01*
X173144571Y-106591428D02*
X171644571Y-106591428D01*
X173073142Y-106591428D02*
X173144571Y-106734285D01*
X173144571Y-107020000D01*
X173073142Y-107162857D01*
X173001714Y-107234285D01*
X172858857Y-107305714D01*
X172430285Y-107305714D01*
X172287428Y-107234285D01*
X172216000Y-107162857D01*
X172144571Y-107020000D01*
X172144571Y-106734285D01*
X172216000Y-106591428D01*
X172144571Y-105234285D02*
X173144571Y-105234285D01*
X172144571Y-105877142D02*
X172930285Y-105877142D01*
X173073142Y-105805714D01*
X173144571Y-105662857D01*
X173144571Y-105448571D01*
X173073142Y-105305714D01*
X173001714Y-105234285D01*
X172358857Y-104020000D02*
X172430285Y-103805714D01*
X172501714Y-103734285D01*
X172644571Y-103662857D01*
X172858857Y-103662857D01*
X173001714Y-103734285D01*
X173073142Y-103805714D01*
X173144571Y-103948571D01*
X173144571Y-104520000D01*
X171644571Y-104520000D01*
X171644571Y-104020000D01*
X171716000Y-103877142D01*
X171787428Y-103805714D01*
X171930285Y-103734285D01*
X172073142Y-103734285D01*
X172216000Y-103805714D01*
X172287428Y-103877142D01*
X172358857Y-104020000D01*
X172358857Y-104520000D01*
X173144571Y-102805714D02*
X173073142Y-102948571D01*
X173001714Y-103020000D01*
X172858857Y-103091428D01*
X172430285Y-103091428D01*
X172287428Y-103020000D01*
X172216000Y-102948571D01*
X172144571Y-102805714D01*
X172144571Y-102591428D01*
X172216000Y-102448571D01*
X172287428Y-102377142D01*
X172430285Y-102305714D01*
X172858857Y-102305714D01*
X173001714Y-102377142D01*
X173073142Y-102448571D01*
X173144571Y-102591428D01*
X173144571Y-102805714D01*
X173144571Y-101020000D02*
X172358857Y-101020000D01*
X172216000Y-101091428D01*
X172144571Y-101234285D01*
X172144571Y-101520000D01*
X172216000Y-101662857D01*
X173073142Y-101020000D02*
X173144571Y-101162857D01*
X173144571Y-101520000D01*
X173073142Y-101662857D01*
X172930285Y-101734285D01*
X172787428Y-101734285D01*
X172644571Y-101662857D01*
X172573142Y-101520000D01*
X172573142Y-101162857D01*
X172501714Y-101020000D01*
X173144571Y-100305714D02*
X172144571Y-100305714D01*
X172430285Y-100305714D02*
X172287428Y-100234285D01*
X172216000Y-100162857D01*
X172144571Y-100020000D01*
X172144571Y-99877142D01*
X173144571Y-98734285D02*
X171644571Y-98734285D01*
X173073142Y-98734285D02*
X173144571Y-98877142D01*
X173144571Y-99162857D01*
X173073142Y-99305714D01*
X173001714Y-99377142D01*
X172858857Y-99448571D01*
X172430285Y-99448571D01*
X172287428Y-99377142D01*
X172216000Y-99305714D01*
X172144571Y-99162857D01*
X172144571Y-98877142D01*
X172216000Y-98734285D01*
X173144571Y-96020000D02*
X172430285Y-96520000D01*
X173144571Y-96877142D02*
X171644571Y-96877142D01*
X171644571Y-96305714D01*
X171716000Y-96162857D01*
X171787428Y-96091428D01*
X171930285Y-96020000D01*
X172144571Y-96020000D01*
X172287428Y-96091428D01*
X172358857Y-96162857D01*
X172430285Y-96305714D01*
X172430285Y-96877142D01*
X173073142Y-94805714D02*
X173144571Y-94948571D01*
X173144571Y-95234285D01*
X173073142Y-95377142D01*
X172930285Y-95448571D01*
X172358857Y-95448571D01*
X172216000Y-95377142D01*
X172144571Y-95234285D01*
X172144571Y-94948571D01*
X172216000Y-94805714D01*
X172358857Y-94734285D01*
X172501714Y-94734285D01*
X172644571Y-95448571D01*
X172144571Y-94234285D02*
X173144571Y-93877142D01*
X172144571Y-93520000D01*
X173144571Y-92948571D02*
X172144571Y-92948571D01*
X171644571Y-92948571D02*
X171716000Y-93020000D01*
X171787428Y-92948571D01*
X171716000Y-92877142D01*
X171644571Y-92948571D01*
X171787428Y-92948571D01*
X173073142Y-92305714D02*
X173144571Y-92162857D01*
X173144571Y-91877142D01*
X173073142Y-91734285D01*
X172930285Y-91662857D01*
X172858857Y-91662857D01*
X172716000Y-91734285D01*
X172644571Y-91877142D01*
X172644571Y-92091428D01*
X172573142Y-92234285D01*
X172430285Y-92305714D01*
X172358857Y-92305714D01*
X172216000Y-92234285D01*
X172144571Y-92091428D01*
X172144571Y-91877142D01*
X172216000Y-91734285D01*
X173144571Y-91020000D02*
X172144571Y-91020000D01*
X171644571Y-91020000D02*
X171716000Y-91091428D01*
X171787428Y-91020000D01*
X171716000Y-90948571D01*
X171644571Y-91020000D01*
X171787428Y-91020000D01*
X173144571Y-90091428D02*
X173073142Y-90234285D01*
X173001714Y-90305714D01*
X172858857Y-90377142D01*
X172430285Y-90377142D01*
X172287428Y-90305714D01*
X172216000Y-90234285D01*
X172144571Y-90091428D01*
X172144571Y-89877142D01*
X172216000Y-89734285D01*
X172287428Y-89662857D01*
X172430285Y-89591428D01*
X172858857Y-89591428D01*
X173001714Y-89662857D01*
X173073142Y-89734285D01*
X173144571Y-89877142D01*
X173144571Y-90091428D01*
X171573142Y-89805714D02*
X171787428Y-90020000D01*
X172144571Y-88948571D02*
X173144571Y-88948571D01*
X172287428Y-88948571D02*
X172216000Y-88877142D01*
X172144571Y-88734285D01*
X172144571Y-88520000D01*
X172216000Y-88377142D01*
X172358857Y-88305714D01*
X173144571Y-88305714D01*
X173144571Y-85662857D02*
X173144571Y-86520000D01*
X173144571Y-86091428D02*
X171644571Y-86091428D01*
X171858857Y-86234285D01*
X172001714Y-86377142D01*
X172073142Y-86520000D01*
X173001714Y-85020000D02*
X173073142Y-84948571D01*
X173144571Y-85020000D01*
X173073142Y-85091428D01*
X173001714Y-85020000D01*
X173144571Y-85020000D01*
X171644571Y-84020000D02*
X171644571Y-83877142D01*
X171716000Y-83734285D01*
X171787428Y-83662857D01*
X171930285Y-83591428D01*
X172216000Y-83520000D01*
X172573142Y-83520000D01*
X172858857Y-83591428D01*
X173001714Y-83662857D01*
X173073142Y-83734285D01*
X173144571Y-83877142D01*
X173144571Y-84020000D01*
X173073142Y-84162857D01*
X173001714Y-84234285D01*
X172858857Y-84305714D01*
X172573142Y-84377142D01*
X172216000Y-84377142D01*
X171930285Y-84305714D01*
X171787428Y-84234285D01*
X171716000Y-84162857D01*
X171644571Y-84020000D01*
D11*
G04 #@! TO.P,A1,30*
G04 #@! TO.N,Net-(A1-Pad30)*
X129032000Y-84582000D03*
G04 #@! TO.P,A1,1*
G04 #@! TO.N,D1*
X129032000Y-99822000D03*
G04 #@! TO.P,A1,29*
G04 #@! TO.N,GND*
X131572000Y-84582000D03*
G04 #@! TO.P,A1,2*
G04 #@! TO.N,D0*
X131572000Y-99822000D03*
G04 #@! TO.P,A1,28*
G04 #@! TO.N,N/C*
X134112000Y-84582000D03*
G04 #@! TO.P,A1,3*
X134112000Y-99822000D03*
G04 #@! TO.P,A1,27*
G04 #@! TO.N,5V*
X136652000Y-84582000D03*
G04 #@! TO.P,A1,4*
G04 #@! TO.N,GND*
X136652000Y-99822000D03*
G04 #@! TO.P,A1,26*
G04 #@! TO.N,AD7*
X139192000Y-84582000D03*
G04 #@! TO.P,A1,5*
G04 #@! TO.N,D2*
X139192000Y-99822000D03*
G04 #@! TO.P,A1,25*
G04 #@! TO.N,AD6*
X141732000Y-84582000D03*
G04 #@! TO.P,A1,6*
G04 #@! TO.N,D3*
X141732000Y-99822000D03*
G04 #@! TO.P,A1,24*
G04 #@! TO.N,AD5*
X144272000Y-84582000D03*
G04 #@! TO.P,A1,7*
G04 #@! TO.N,D4*
X144272000Y-99822000D03*
G04 #@! TO.P,A1,23*
G04 #@! TO.N,AD4*
X146812000Y-84582000D03*
G04 #@! TO.P,A1,8*
G04 #@! TO.N,D5*
X146812000Y-99822000D03*
G04 #@! TO.P,A1,22*
G04 #@! TO.N,AD3*
X149352000Y-84582000D03*
G04 #@! TO.P,A1,9*
G04 #@! TO.N,D6*
X149352000Y-99822000D03*
G04 #@! TO.P,A1,21*
G04 #@! TO.N,AD2*
X151892000Y-84582000D03*
G04 #@! TO.P,A1,10*
G04 #@! TO.N,D7*
X151892000Y-99822000D03*
G04 #@! TO.P,A1,20*
G04 #@! TO.N,AD1*
X154432000Y-84582000D03*
G04 #@! TO.P,A1,11*
G04 #@! TO.N,D8*
X154432000Y-99822000D03*
G04 #@! TO.P,A1,19*
G04 #@! TO.N,AD0*
X156972000Y-84582000D03*
G04 #@! TO.P,A1,12*
G04 #@! TO.N,D9*
X156972000Y-99822000D03*
G04 #@! TO.P,A1,18*
G04 #@! TO.N,Net-(A1-Pad18)*
X159512000Y-84582000D03*
G04 #@! TO.P,A1,13*
G04 #@! TO.N,D10*
X159512000Y-99822000D03*
G04 #@! TO.P,A1,17*
G04 #@! TO.N,Net-(A1-Pad17)*
X162052000Y-84582000D03*
G04 #@! TO.P,A1,14*
G04 #@! TO.N,D11*
X162052000Y-99822000D03*
G04 #@! TO.P,A1,16*
G04 #@! TO.N,D13*
X164592000Y-84582000D03*
G04 #@! TO.P,A1,15*
G04 #@! TO.N,D12*
X164592000Y-99822000D03*
G04 #@! TD*
D12*
G04 #@! TO.P,D1,1*
G04 #@! TO.N,GND*
X136652000Y-114300000D03*
D13*
G04 #@! TO.P,D1,2*
G04 #@! TO.N,D2*
X139192000Y-114300000D03*
G04 #@! TD*
D14*
G04 #@! TO.P,J3,1*
G04 #@! TO.N,GND*
X127000000Y-76962000D03*
D15*
G04 #@! TO.P,J3,2*
G04 #@! TO.N,Net-(A1-Pad30)*
X129540000Y-76962000D03*
G04 #@! TD*
D14*
G04 #@! TO.P,J6,1*
G04 #@! TO.N,GND*
X111760000Y-76962000D03*
D15*
G04 #@! TO.P,J6,2*
G04 #@! TO.N,36V*
X111760000Y-79502000D03*
G04 #@! TD*
G04 #@! TO.P,J7,2*
G04 #@! TO.N,36V*
X120142000Y-79502000D03*
D14*
G04 #@! TO.P,J7,1*
G04 #@! TO.N,GND*
X120142000Y-76962000D03*
G04 #@! TD*
D16*
G04 #@! TO.P,Q1,1*
G04 #@! TO.N,D2*
X119888000Y-115062000D03*
D17*
G04 #@! TO.P,Q1,2*
G04 #@! TO.N,5V*
X117348000Y-115062000D03*
G04 #@! TO.P,Q1,3*
G04 #@! TO.N,CONTROL*
X114808000Y-115062000D03*
G04 #@! TD*
D18*
G04 #@! TO.P,Q2,1*
G04 #@! TO.N,CONTROL*
X108988000Y-105918000D03*
D19*
G04 #@! TO.P,Q2,2*
G04 #@! TO.N,36V*
X114438000Y-105918000D03*
G04 #@! TO.P,Q2,3*
G04 #@! TO.N,GND*
X119888000Y-105918000D03*
G04 #@! TD*
D20*
G04 #@! TO.P,R1,1*
G04 #@! TO.N,CONTROL*
X111760000Y-100076000D03*
D21*
G04 #@! TO.P,R1,2*
G04 #@! TO.N,GND*
X111760000Y-84836000D03*
G04 #@! TD*
D14*
G04 #@! TO.P,J1,1*
G04 #@! TO.N,GND*
X120904000Y-87376000D03*
D15*
G04 #@! TO.P,J1,2*
G04 #@! TO.N,5V*
X120904000Y-89916000D03*
G04 #@! TO.P,J1,3*
G04 #@! TO.N,Net-(A1-Pad17)*
X120904000Y-92456000D03*
G04 #@! TO.P,J1,4*
G04 #@! TO.N,Net-(A1-Pad18)*
X120904000Y-94996000D03*
G04 #@! TD*
D14*
G04 #@! TO.P,J2,1*
G04 #@! TO.N,GND*
X136652000Y-105410000D03*
D15*
G04 #@! TO.P,J2,2*
G04 #@! TO.N,D2*
X139192000Y-105410000D03*
G04 #@! TO.P,J2,3*
G04 #@! TO.N,D3*
X141732000Y-105410000D03*
G04 #@! TO.P,J2,4*
G04 #@! TO.N,D4*
X144272000Y-105410000D03*
G04 #@! TO.P,J2,5*
G04 #@! TO.N,D5*
X146812000Y-105410000D03*
G04 #@! TO.P,J2,6*
G04 #@! TO.N,D6*
X149352000Y-105410000D03*
G04 #@! TO.P,J2,7*
G04 #@! TO.N,D7*
X151892000Y-105410000D03*
G04 #@! TO.P,J2,8*
G04 #@! TO.N,D8*
X154432000Y-105410000D03*
G04 #@! TO.P,J2,9*
G04 #@! TO.N,D9*
X156972000Y-105410000D03*
G04 #@! TO.P,J2,10*
G04 #@! TO.N,D10*
X159512000Y-105410000D03*
G04 #@! TO.P,J2,11*
G04 #@! TO.N,D11*
X162052000Y-105410000D03*
G04 #@! TO.P,J2,12*
G04 #@! TO.N,D12*
X164592000Y-105410000D03*
G04 #@! TO.P,J2,13*
G04 #@! TO.N,D13*
X167132000Y-105410000D03*
G04 #@! TD*
D14*
G04 #@! TO.P,J4,1*
G04 #@! TO.N,GND*
X159512000Y-77216000D03*
D15*
G04 #@! TO.P,J4,2*
G04 #@! TO.N,AD0*
X156972000Y-77216000D03*
G04 #@! TO.P,J4,3*
G04 #@! TO.N,AD1*
X154432000Y-77216000D03*
G04 #@! TO.P,J4,4*
G04 #@! TO.N,AD2*
X151892000Y-77216000D03*
G04 #@! TO.P,J4,5*
G04 #@! TO.N,AD3*
X149352000Y-77216000D03*
G04 #@! TO.P,J4,6*
G04 #@! TO.N,AD4*
X146812000Y-77216000D03*
G04 #@! TO.P,J4,7*
G04 #@! TO.N,AD5*
X144272000Y-77216000D03*
G04 #@! TO.P,J4,8*
G04 #@! TO.N,AD6*
X141732000Y-77216000D03*
G04 #@! TO.P,J4,9*
G04 #@! TO.N,AD7*
X139192000Y-77216000D03*
G04 #@! TD*
D14*
G04 #@! TO.P,J5,1*
G04 #@! TO.N,GND*
X126492000Y-105410000D03*
D15*
G04 #@! TO.P,J5,2*
G04 #@! TO.N,D1*
X129032000Y-105410000D03*
G04 #@! TO.P,J5,3*
G04 #@! TO.N,D0*
X131572000Y-105410000D03*
G04 #@! TD*
D22*
G04 #@! TO.N,Net-(A1-Pad17)*
X151523700Y-88455500D03*
X171856400Y-81064100D03*
G04 #@! TD*
D23*
G04 #@! TO.N,Net-(A1-Pad17)*
X151523700Y-88455500D02*
X164465000Y-88455500D01*
X164465000Y-88455500D02*
X171856400Y-81064100D01*
G04 #@! TD*
D24*
G04 #@! TO.N,GND*
G36*
X182932000Y-120194000D02*
X104342000Y-120194000D01*
X104342000Y-116903431D01*
X104953000Y-116903431D01*
X104953000Y-117792569D01*
X105293259Y-118614026D01*
X105921974Y-119242741D01*
X106743431Y-119583000D01*
X107632569Y-119583000D01*
X108454026Y-119242741D01*
X109082741Y-118614026D01*
X109423000Y-117792569D01*
X109423000Y-116903431D01*
X109082741Y-116081974D01*
X108454026Y-115453259D01*
X107632569Y-115113000D01*
X106743431Y-115113000D01*
X105921974Y-115453259D01*
X105293259Y-116081974D01*
X104953000Y-116903431D01*
X104342000Y-116903431D01*
X104342000Y-114858150D01*
X113220500Y-114858150D01*
X113220500Y-115265849D01*
X113312609Y-115728910D01*
X113663477Y-116254023D01*
X114188589Y-116604891D01*
X114808000Y-116728100D01*
X115427410Y-116604891D01*
X115952523Y-116254023D01*
X116078000Y-116066233D01*
X116203477Y-116254023D01*
X116728589Y-116604891D01*
X117348000Y-116728100D01*
X117967410Y-116604891D01*
X118359491Y-116342912D01*
X118477691Y-116519809D01*
X118687735Y-116660157D01*
X118935500Y-116709440D01*
X120840500Y-116709440D01*
X121088265Y-116660157D01*
X121298309Y-116519809D01*
X121438657Y-116309765D01*
X121487940Y-116062000D01*
X121487940Y-114585750D01*
X135117000Y-114585750D01*
X135117000Y-115326310D01*
X135213673Y-115559699D01*
X135392302Y-115738327D01*
X135625691Y-115835000D01*
X136366250Y-115835000D01*
X136525000Y-115676250D01*
X136525000Y-114427000D01*
X135275750Y-114427000D01*
X135117000Y-114585750D01*
X121487940Y-114585750D01*
X121487940Y-114062000D01*
X121438657Y-113814235D01*
X121298309Y-113604191D01*
X121088265Y-113463843D01*
X120840500Y-113414560D01*
X118935500Y-113414560D01*
X118687735Y-113463843D01*
X118477691Y-113604191D01*
X118359491Y-113781088D01*
X117967411Y-113519109D01*
X117348000Y-113395900D01*
X116728590Y-113519109D01*
X116203477Y-113869977D01*
X116078000Y-114057767D01*
X115952523Y-113869977D01*
X115427411Y-113519109D01*
X114808000Y-113395900D01*
X114188590Y-113519109D01*
X113663477Y-113869977D01*
X113312609Y-114395089D01*
X113220500Y-114858150D01*
X104342000Y-114858150D01*
X104342000Y-113273690D01*
X135117000Y-113273690D01*
X135117000Y-114014250D01*
X135275750Y-114173000D01*
X136525000Y-114173000D01*
X136525000Y-112923750D01*
X136779000Y-112923750D01*
X136779000Y-114173000D01*
X136799000Y-114173000D01*
X136799000Y-114427000D01*
X136779000Y-114427000D01*
X136779000Y-115676250D01*
X136937750Y-115835000D01*
X137678309Y-115835000D01*
X137911698Y-115738327D01*
X138090327Y-115559699D01*
X138146139Y-115424956D01*
X138322493Y-115601310D01*
X138886670Y-115835000D01*
X139497330Y-115835000D01*
X140061507Y-115601310D01*
X140493310Y-115169507D01*
X140727000Y-114605330D01*
X140727000Y-113994670D01*
X140493310Y-113430493D01*
X140061507Y-112998690D01*
X139497330Y-112765000D01*
X138886670Y-112765000D01*
X138322493Y-112998690D01*
X138146139Y-113175044D01*
X138090327Y-113040301D01*
X137911698Y-112861673D01*
X137678309Y-112765000D01*
X136937750Y-112765000D01*
X136779000Y-112923750D01*
X136525000Y-112923750D01*
X136366250Y-112765000D01*
X135625691Y-112765000D01*
X135392302Y-112861673D01*
X135213673Y-113040301D01*
X135117000Y-113273690D01*
X104342000Y-113273690D01*
X104342000Y-103668000D01*
X107090560Y-103668000D01*
X107090560Y-108168000D01*
X107139843Y-108415765D01*
X107280191Y-108625809D01*
X107490235Y-108766157D01*
X107738000Y-108815440D01*
X110238000Y-108815440D01*
X110485765Y-108766157D01*
X110695809Y-108625809D01*
X110836157Y-108415765D01*
X110885440Y-108168000D01*
X110885440Y-104732346D01*
X112553000Y-104732346D01*
X112553001Y-107103655D01*
X112662370Y-107653490D01*
X113078992Y-108277009D01*
X113702511Y-108693631D01*
X114438000Y-108839929D01*
X115173490Y-108693631D01*
X115797009Y-108277009D01*
X116213631Y-107653490D01*
X116323000Y-107103655D01*
X116323000Y-106045000D01*
X118003000Y-106045000D01*
X118003000Y-107045000D01*
X118195088Y-107756691D01*
X118644906Y-108340699D01*
X119283974Y-108708114D01*
X119468355Y-108755695D01*
X119761000Y-108639572D01*
X119761000Y-106045000D01*
X120015000Y-106045000D01*
X120015000Y-108639572D01*
X120307645Y-108755695D01*
X120492026Y-108708114D01*
X121131094Y-108340699D01*
X121580912Y-107756691D01*
X121773000Y-107045000D01*
X121773000Y-106911285D01*
X124448000Y-106911285D01*
X124448000Y-113052714D01*
X128268000Y-113052714D01*
X128268000Y-111215285D01*
X133856000Y-111215285D01*
X133856000Y-106716714D01*
X132289293Y-106716714D01*
X132642625Y-106480625D01*
X132864019Y-106149285D01*
X134862000Y-106149285D01*
X134862000Y-112290714D01*
X138682000Y-112290714D01*
X138682000Y-110961285D01*
X157722000Y-110961285D01*
X157722000Y-112437571D01*
X169416000Y-112437571D01*
X169416000Y-106510428D01*
X168158022Y-106510428D01*
X168202625Y-106480625D01*
X168530839Y-105989418D01*
X168646092Y-105410000D01*
X168530839Y-104830582D01*
X168202625Y-104339375D01*
X167711418Y-104011161D01*
X167278256Y-103925000D01*
X166985744Y-103925000D01*
X166552582Y-104011161D01*
X166061375Y-104339375D01*
X165862000Y-104637761D01*
X165662625Y-104339375D01*
X165171418Y-104011161D01*
X164738256Y-103925000D01*
X164445744Y-103925000D01*
X164012582Y-104011161D01*
X163521375Y-104339375D01*
X163322000Y-104637761D01*
X163122625Y-104339375D01*
X162631418Y-104011161D01*
X162198256Y-103925000D01*
X161905744Y-103925000D01*
X161472582Y-104011161D01*
X160981375Y-104339375D01*
X160782000Y-104637761D01*
X160582625Y-104339375D01*
X160091418Y-104011161D01*
X159658256Y-103925000D01*
X159365744Y-103925000D01*
X158932582Y-104011161D01*
X158441375Y-104339375D01*
X158242000Y-104637761D01*
X158042625Y-104339375D01*
X157551418Y-104011161D01*
X157118256Y-103925000D01*
X156825744Y-103925000D01*
X156392582Y-104011161D01*
X155901375Y-104339375D01*
X155702000Y-104637761D01*
X155502625Y-104339375D01*
X155011418Y-104011161D01*
X154578256Y-103925000D01*
X154285744Y-103925000D01*
X153852582Y-104011161D01*
X153361375Y-104339375D01*
X153162000Y-104637761D01*
X152962625Y-104339375D01*
X152471418Y-104011161D01*
X152038256Y-103925000D01*
X151745744Y-103925000D01*
X151312582Y-104011161D01*
X150821375Y-104339375D01*
X150622000Y-104637761D01*
X150422625Y-104339375D01*
X149931418Y-104011161D01*
X149498256Y-103925000D01*
X149205744Y-103925000D01*
X148772582Y-104011161D01*
X148281375Y-104339375D01*
X148082000Y-104637761D01*
X147882625Y-104339375D01*
X147391418Y-104011161D01*
X146958256Y-103925000D01*
X146665744Y-103925000D01*
X146232582Y-104011161D01*
X145741375Y-104339375D01*
X145542000Y-104637761D01*
X145342625Y-104339375D01*
X144851418Y-104011161D01*
X144418256Y-103925000D01*
X144125744Y-103925000D01*
X143692582Y-104011161D01*
X143201375Y-104339375D01*
X143002000Y-104637761D01*
X142802625Y-104339375D01*
X142311418Y-104011161D01*
X141878256Y-103925000D01*
X141585744Y-103925000D01*
X141152582Y-104011161D01*
X140661375Y-104339375D01*
X140462000Y-104637761D01*
X140262625Y-104339375D01*
X139771418Y-104011161D01*
X139338256Y-103925000D01*
X139045744Y-103925000D01*
X138612582Y-104011161D01*
X138121375Y-104339375D01*
X138106904Y-104361033D01*
X138040327Y-104200302D01*
X137861699Y-104021673D01*
X137628310Y-103925000D01*
X136937750Y-103925000D01*
X136779000Y-104083750D01*
X136779000Y-105283000D01*
X136799000Y-105283000D01*
X136799000Y-105537000D01*
X136779000Y-105537000D01*
X136779000Y-105557000D01*
X136525000Y-105557000D01*
X136525000Y-105537000D01*
X135325750Y-105537000D01*
X135167000Y-105695750D01*
X135167000Y-106149285D01*
X134862000Y-106149285D01*
X132864019Y-106149285D01*
X132970839Y-105989418D01*
X133086092Y-105410000D01*
X132970839Y-104830582D01*
X132705645Y-104433691D01*
X135167000Y-104433691D01*
X135167000Y-105124250D01*
X135325750Y-105283000D01*
X136525000Y-105283000D01*
X136525000Y-104083750D01*
X136366250Y-103925000D01*
X135675690Y-103925000D01*
X135442301Y-104021673D01*
X135263673Y-104200302D01*
X135167000Y-104433691D01*
X132705645Y-104433691D01*
X132642625Y-104339375D01*
X132151418Y-104011161D01*
X131718256Y-103925000D01*
X131425744Y-103925000D01*
X130992582Y-104011161D01*
X130501375Y-104339375D01*
X130302000Y-104637761D01*
X130102625Y-104339375D01*
X129611418Y-104011161D01*
X129178256Y-103925000D01*
X128885744Y-103925000D01*
X128452582Y-104011161D01*
X127961375Y-104339375D01*
X127946904Y-104361033D01*
X127880327Y-104200302D01*
X127701699Y-104021673D01*
X127468310Y-103925000D01*
X126777750Y-103925000D01*
X126619000Y-104083750D01*
X126619000Y-105283000D01*
X126639000Y-105283000D01*
X126639000Y-105537000D01*
X126619000Y-105537000D01*
X126619000Y-106736250D01*
X126777750Y-106895000D01*
X127242000Y-106895000D01*
X127242000Y-106911285D01*
X124448000Y-106911285D01*
X121773000Y-106911285D01*
X121773000Y-106045000D01*
X120015000Y-106045000D01*
X119761000Y-106045000D01*
X118003000Y-106045000D01*
X116323000Y-106045000D01*
X116323000Y-104791000D01*
X118003000Y-104791000D01*
X118003000Y-105791000D01*
X119761000Y-105791000D01*
X119761000Y-103196428D01*
X120015000Y-103196428D01*
X120015000Y-105791000D01*
X121773000Y-105791000D01*
X121773000Y-105695750D01*
X125007000Y-105695750D01*
X125007000Y-106386309D01*
X125103673Y-106619698D01*
X125282301Y-106798327D01*
X125515690Y-106895000D01*
X126206250Y-106895000D01*
X126365000Y-106736250D01*
X126365000Y-105537000D01*
X125165750Y-105537000D01*
X125007000Y-105695750D01*
X121773000Y-105695750D01*
X121773000Y-104791000D01*
X121676561Y-104433691D01*
X125007000Y-104433691D01*
X125007000Y-105124250D01*
X125165750Y-105283000D01*
X126365000Y-105283000D01*
X126365000Y-104083750D01*
X126206250Y-103925000D01*
X125515690Y-103925000D01*
X125282301Y-104021673D01*
X125103673Y-104200302D01*
X125007000Y-104433691D01*
X121676561Y-104433691D01*
X121580912Y-104079309D01*
X121131094Y-103495301D01*
X120492026Y-103127886D01*
X120307645Y-103080305D01*
X120015000Y-103196428D01*
X119761000Y-103196428D01*
X119468355Y-103080305D01*
X119283974Y-103127886D01*
X118644906Y-103495301D01*
X118195088Y-104079309D01*
X118003000Y-104791000D01*
X116323000Y-104791000D01*
X116323000Y-104732345D01*
X116213631Y-104182510D01*
X115797009Y-103558991D01*
X115173489Y-103142369D01*
X114438000Y-102996071D01*
X113702510Y-103142369D01*
X113078991Y-103558991D01*
X112662369Y-104182511D01*
X112553000Y-104732346D01*
X110885440Y-104732346D01*
X110885440Y-103668000D01*
X110836157Y-103420235D01*
X110695809Y-103210191D01*
X110485765Y-103069843D01*
X110238000Y-103020560D01*
X107738000Y-103020560D01*
X107490235Y-103069843D01*
X107280191Y-103210191D01*
X107139843Y-103420235D01*
X107090560Y-103668000D01*
X104342000Y-103668000D01*
X104342000Y-99790561D01*
X110325000Y-99790561D01*
X110325000Y-100361439D01*
X110543466Y-100888862D01*
X110947138Y-101292534D01*
X111474561Y-101511000D01*
X112045439Y-101511000D01*
X112572862Y-101292534D01*
X112976534Y-100888862D01*
X113195000Y-100361439D01*
X113195000Y-99790561D01*
X113090828Y-99539067D01*
X127609600Y-99539067D01*
X127609600Y-100104933D01*
X127826148Y-100627725D01*
X128226275Y-101027852D01*
X128749067Y-101244400D01*
X129314933Y-101244400D01*
X129837725Y-101027852D01*
X130237852Y-100627725D01*
X130302000Y-100472858D01*
X130366148Y-100627725D01*
X130766275Y-101027852D01*
X131289067Y-101244400D01*
X131854933Y-101244400D01*
X132377725Y-101027852D01*
X132777852Y-100627725D01*
X132842000Y-100472858D01*
X132906148Y-100627725D01*
X133306275Y-101027852D01*
X133829067Y-101244400D01*
X134394933Y-101244400D01*
X134917725Y-101027852D01*
X135124960Y-100820617D01*
X135832989Y-100820617D01*
X135905575Y-101065432D01*
X136438235Y-101256426D01*
X137003438Y-101229041D01*
X137398425Y-101065432D01*
X137471011Y-100820617D01*
X136652000Y-100001605D01*
X135832989Y-100820617D01*
X135124960Y-100820617D01*
X135317852Y-100627725D01*
X135375491Y-100488571D01*
X135408568Y-100568425D01*
X135653383Y-100641011D01*
X136472395Y-99822000D01*
X136831605Y-99822000D01*
X137650617Y-100641011D01*
X137895432Y-100568425D01*
X137926127Y-100482821D01*
X137986148Y-100627725D01*
X138386275Y-101027852D01*
X138909067Y-101244400D01*
X139474933Y-101244400D01*
X139997725Y-101027852D01*
X140397852Y-100627725D01*
X140462000Y-100472858D01*
X140526148Y-100627725D01*
X140926275Y-101027852D01*
X141449067Y-101244400D01*
X142014933Y-101244400D01*
X142537725Y-101027852D01*
X142937852Y-100627725D01*
X143002000Y-100472858D01*
X143066148Y-100627725D01*
X143466275Y-101027852D01*
X143989067Y-101244400D01*
X144554933Y-101244400D01*
X145077725Y-101027852D01*
X145477852Y-100627725D01*
X145542000Y-100472858D01*
X145606148Y-100627725D01*
X146006275Y-101027852D01*
X146529067Y-101244400D01*
X147094933Y-101244400D01*
X147617725Y-101027852D01*
X148017852Y-100627725D01*
X148082000Y-100472858D01*
X148146148Y-100627725D01*
X148546275Y-101027852D01*
X149069067Y-101244400D01*
X149634933Y-101244400D01*
X150157725Y-101027852D01*
X150557852Y-100627725D01*
X150622000Y-100472858D01*
X150686148Y-100627725D01*
X151086275Y-101027852D01*
X151609067Y-101244400D01*
X152174933Y-101244400D01*
X152697725Y-101027852D01*
X153097852Y-100627725D01*
X153162000Y-100472858D01*
X153226148Y-100627725D01*
X153626275Y-101027852D01*
X154149067Y-101244400D01*
X154714933Y-101244400D01*
X155237725Y-101027852D01*
X155637852Y-100627725D01*
X155702000Y-100472858D01*
X155766148Y-100627725D01*
X156166275Y-101027852D01*
X156689067Y-101244400D01*
X157254933Y-101244400D01*
X157777725Y-101027852D01*
X158177852Y-100627725D01*
X158242000Y-100472858D01*
X158306148Y-100627725D01*
X158706275Y-101027852D01*
X159229067Y-101244400D01*
X159794933Y-101244400D01*
X160317725Y-101027852D01*
X160717852Y-100627725D01*
X160782000Y-100472858D01*
X160846148Y-100627725D01*
X161246275Y-101027852D01*
X161769067Y-101244400D01*
X162334933Y-101244400D01*
X162857725Y-101027852D01*
X163257852Y-100627725D01*
X163322000Y-100472858D01*
X163386148Y-100627725D01*
X163786275Y-101027852D01*
X164309067Y-101244400D01*
X164874933Y-101244400D01*
X165397725Y-101027852D01*
X165797852Y-100627725D01*
X166014400Y-100104933D01*
X166014400Y-99539067D01*
X165797852Y-99016275D01*
X165397725Y-98616148D01*
X164874933Y-98399600D01*
X164309067Y-98399600D01*
X163786275Y-98616148D01*
X163386148Y-99016275D01*
X163322000Y-99171142D01*
X163257852Y-99016275D01*
X162857725Y-98616148D01*
X162334933Y-98399600D01*
X161769067Y-98399600D01*
X161246275Y-98616148D01*
X160846148Y-99016275D01*
X160782000Y-99171142D01*
X160717852Y-99016275D01*
X160317725Y-98616148D01*
X159794933Y-98399600D01*
X159229067Y-98399600D01*
X158706275Y-98616148D01*
X158306148Y-99016275D01*
X158242000Y-99171142D01*
X158177852Y-99016275D01*
X157777725Y-98616148D01*
X157254933Y-98399600D01*
X156689067Y-98399600D01*
X156166275Y-98616148D01*
X155766148Y-99016275D01*
X155702000Y-99171142D01*
X155637852Y-99016275D01*
X155237725Y-98616148D01*
X154714933Y-98399600D01*
X154149067Y-98399600D01*
X153626275Y-98616148D01*
X153226148Y-99016275D01*
X153162000Y-99171142D01*
X153097852Y-99016275D01*
X152697725Y-98616148D01*
X152174933Y-98399600D01*
X151609067Y-98399600D01*
X151086275Y-98616148D01*
X150686148Y-99016275D01*
X150622000Y-99171142D01*
X150557852Y-99016275D01*
X150157725Y-98616148D01*
X149634933Y-98399600D01*
X149069067Y-98399600D01*
X148546275Y-98616148D01*
X148146148Y-99016275D01*
X148082000Y-99171142D01*
X148017852Y-99016275D01*
X147617725Y-98616148D01*
X147094933Y-98399600D01*
X146529067Y-98399600D01*
X146006275Y-98616148D01*
X145606148Y-99016275D01*
X145542000Y-99171142D01*
X145477852Y-99016275D01*
X145077725Y-98616148D01*
X144554933Y-98399600D01*
X143989067Y-98399600D01*
X143466275Y-98616148D01*
X143066148Y-99016275D01*
X143002000Y-99171142D01*
X142937852Y-99016275D01*
X142537725Y-98616148D01*
X142014933Y-98399600D01*
X141449067Y-98399600D01*
X140926275Y-98616148D01*
X140526148Y-99016275D01*
X140462000Y-99171142D01*
X140397852Y-99016275D01*
X139997725Y-98616148D01*
X139474933Y-98399600D01*
X138909067Y-98399600D01*
X138386275Y-98616148D01*
X137986148Y-99016275D01*
X137928509Y-99155429D01*
X137895432Y-99075575D01*
X137650617Y-99002989D01*
X136831605Y-99822000D01*
X136472395Y-99822000D01*
X135653383Y-99002989D01*
X135408568Y-99075575D01*
X135377873Y-99161179D01*
X135317852Y-99016275D01*
X135124960Y-98823383D01*
X135832989Y-98823383D01*
X136652000Y-99642395D01*
X137471011Y-98823383D01*
X137398425Y-98578568D01*
X136865765Y-98387574D01*
X136300562Y-98414959D01*
X135905575Y-98578568D01*
X135832989Y-98823383D01*
X135124960Y-98823383D01*
X134917725Y-98616148D01*
X134394933Y-98399600D01*
X133829067Y-98399600D01*
X133306275Y-98616148D01*
X132906148Y-99016275D01*
X132842000Y-99171142D01*
X132777852Y-99016275D01*
X132377725Y-98616148D01*
X131854933Y-98399600D01*
X131289067Y-98399600D01*
X130766275Y-98616148D01*
X130366148Y-99016275D01*
X130302000Y-99171142D01*
X130237852Y-99016275D01*
X129837725Y-98616148D01*
X129314933Y-98399600D01*
X128749067Y-98399600D01*
X128226275Y-98616148D01*
X127826148Y-99016275D01*
X127609600Y-99539067D01*
X113090828Y-99539067D01*
X112976534Y-99263138D01*
X112572862Y-98859466D01*
X112045439Y-98641000D01*
X111474561Y-98641000D01*
X110947138Y-98859466D01*
X110543466Y-99263138D01*
X110325000Y-99790561D01*
X104342000Y-99790561D01*
X104342000Y-85185041D01*
X110368086Y-85185041D01*
X110607611Y-85691134D01*
X111022577Y-86067041D01*
X111410961Y-86227904D01*
X111633000Y-86105915D01*
X111633000Y-84963000D01*
X111887000Y-84963000D01*
X111887000Y-86105915D01*
X112109039Y-86227904D01*
X112497423Y-86067041D01*
X112912389Y-85691134D01*
X112962147Y-85586000D01*
X113515286Y-85586000D01*
X113515286Y-89406000D01*
X115459857Y-89406000D01*
X115459857Y-90666000D01*
X114309000Y-90666000D01*
X114309000Y-93206000D01*
X113876429Y-93206000D01*
X113876429Y-97026000D01*
X119803572Y-97026000D01*
X119803572Y-96022022D01*
X119833375Y-96066625D01*
X120324582Y-96394839D01*
X120757744Y-96481000D01*
X121050256Y-96481000D01*
X121483418Y-96394839D01*
X121974625Y-96066625D01*
X122302839Y-95575418D01*
X122418092Y-94996000D01*
X122302839Y-94416582D01*
X121974625Y-93925375D01*
X121676239Y-93726000D01*
X121974625Y-93526625D01*
X122302839Y-93035418D01*
X122418092Y-92456000D01*
X122302839Y-91876582D01*
X121974625Y-91385375D01*
X121676239Y-91186000D01*
X121974625Y-90986625D01*
X122302839Y-90495418D01*
X122418092Y-89916000D01*
X122302839Y-89336582D01*
X121974625Y-88845375D01*
X121952967Y-88830904D01*
X122113698Y-88764327D01*
X122292327Y-88585699D01*
X122389000Y-88352310D01*
X122389000Y-87661750D01*
X122230250Y-87503000D01*
X121031000Y-87503000D01*
X121031000Y-87523000D01*
X120777000Y-87523000D01*
X120777000Y-87503000D01*
X120757000Y-87503000D01*
X120757000Y-87249000D01*
X120777000Y-87249000D01*
X120777000Y-86049750D01*
X121031000Y-86049750D01*
X121031000Y-87249000D01*
X122230250Y-87249000D01*
X122389000Y-87090250D01*
X122389000Y-86399690D01*
X122292327Y-86166301D01*
X122113698Y-85987673D01*
X121880309Y-85891000D01*
X121189750Y-85891000D01*
X121031000Y-86049750D01*
X120777000Y-86049750D01*
X120618250Y-85891000D01*
X119927691Y-85891000D01*
X119694302Y-85987673D01*
X119656715Y-86025260D01*
X119656715Y-85586000D01*
X113515286Y-85586000D01*
X112962147Y-85586000D01*
X113151914Y-85185041D01*
X113030629Y-84963000D01*
X111887000Y-84963000D01*
X111633000Y-84963000D01*
X110489371Y-84963000D01*
X110368086Y-85185041D01*
X104342000Y-85185041D01*
X104342000Y-84486959D01*
X110368086Y-84486959D01*
X110489371Y-84709000D01*
X111633000Y-84709000D01*
X111633000Y-83566085D01*
X111887000Y-83566085D01*
X111887000Y-84709000D01*
X113030629Y-84709000D01*
X113151914Y-84486959D01*
X113062988Y-84299067D01*
X127609600Y-84299067D01*
X127609600Y-84864933D01*
X127826148Y-85387725D01*
X128226275Y-85787852D01*
X128749067Y-86004400D01*
X129314933Y-86004400D01*
X129837725Y-85787852D01*
X130044960Y-85580617D01*
X130752989Y-85580617D01*
X130825575Y-85825432D01*
X131358235Y-86016426D01*
X131923438Y-85989041D01*
X132318425Y-85825432D01*
X132391011Y-85580617D01*
X131572000Y-84761605D01*
X130752989Y-85580617D01*
X130044960Y-85580617D01*
X130237852Y-85387725D01*
X130295491Y-85248571D01*
X130328568Y-85328425D01*
X130573383Y-85401011D01*
X131392395Y-84582000D01*
X131751605Y-84582000D01*
X132570617Y-85401011D01*
X132815432Y-85328425D01*
X132846127Y-85242821D01*
X132906148Y-85387725D01*
X133306275Y-85787852D01*
X133829067Y-86004400D01*
X134394933Y-86004400D01*
X134917725Y-85787852D01*
X135317852Y-85387725D01*
X135382000Y-85232858D01*
X135446148Y-85387725D01*
X135846275Y-85787852D01*
X136369067Y-86004400D01*
X136934933Y-86004400D01*
X137457725Y-85787852D01*
X137857852Y-85387725D01*
X137922000Y-85232858D01*
X137986148Y-85387725D01*
X138386275Y-85787852D01*
X138909067Y-86004400D01*
X139474933Y-86004400D01*
X139997725Y-85787852D01*
X140397852Y-85387725D01*
X140462000Y-85232858D01*
X140526148Y-85387725D01*
X140926275Y-85787852D01*
X141449067Y-86004400D01*
X142014933Y-86004400D01*
X142537725Y-85787852D01*
X142937852Y-85387725D01*
X143002000Y-85232858D01*
X143066148Y-85387725D01*
X143466275Y-85787852D01*
X143989067Y-86004400D01*
X144554933Y-86004400D01*
X145077725Y-85787852D01*
X145477852Y-85387725D01*
X145542000Y-85232858D01*
X145606148Y-85387725D01*
X146006275Y-85787852D01*
X146529067Y-86004400D01*
X147094933Y-86004400D01*
X147617725Y-85787852D01*
X148017852Y-85387725D01*
X148082000Y-85232858D01*
X148146148Y-85387725D01*
X148546275Y-85787852D01*
X149069067Y-86004400D01*
X149634933Y-86004400D01*
X150157725Y-85787852D01*
X150557852Y-85387725D01*
X150622000Y-85232858D01*
X150686148Y-85387725D01*
X151086275Y-85787852D01*
X151609067Y-86004400D01*
X152174933Y-86004400D01*
X152697725Y-85787852D01*
X153097852Y-85387725D01*
X153162000Y-85232858D01*
X153226148Y-85387725D01*
X153626275Y-85787852D01*
X154149067Y-86004400D01*
X154714933Y-86004400D01*
X155237725Y-85787852D01*
X155637852Y-85387725D01*
X155702000Y-85232858D01*
X155766148Y-85387725D01*
X156166275Y-85787852D01*
X156689067Y-86004400D01*
X157254933Y-86004400D01*
X157777725Y-85787852D01*
X158177852Y-85387725D01*
X158242000Y-85232858D01*
X158306148Y-85387725D01*
X158706275Y-85787852D01*
X159229067Y-86004400D01*
X159794933Y-86004400D01*
X160317725Y-85787852D01*
X160717852Y-85387725D01*
X160782000Y-85232858D01*
X160846148Y-85387725D01*
X161246275Y-85787852D01*
X161769067Y-86004400D01*
X162334933Y-86004400D01*
X162857725Y-85787852D01*
X163257852Y-85387725D01*
X163322000Y-85232858D01*
X163386148Y-85387725D01*
X163786275Y-85787852D01*
X164309067Y-86004400D01*
X164874933Y-86004400D01*
X165257160Y-85846076D01*
X163932736Y-87170500D01*
X152040616Y-87170500D01*
X151799194Y-87070500D01*
X151248206Y-87070500D01*
X150739160Y-87281353D01*
X150349553Y-87670960D01*
X150138700Y-88180006D01*
X150138700Y-88730994D01*
X150349553Y-89240040D01*
X150739160Y-89629647D01*
X151248206Y-89840500D01*
X151799194Y-89840500D01*
X152040616Y-89740500D01*
X164338442Y-89740500D01*
X164465000Y-89765674D01*
X164591558Y-89740500D01*
X164966382Y-89665943D01*
X165391433Y-89381933D01*
X165463124Y-89274640D01*
X170676000Y-84061765D01*
X170676000Y-110590714D01*
X174496000Y-110590714D01*
X174496000Y-110416143D01*
X175502000Y-110416143D01*
X175502000Y-116455571D01*
X178141720Y-116455571D01*
X177851000Y-117157431D01*
X177851000Y-118046569D01*
X178191259Y-118868026D01*
X178819974Y-119496741D01*
X179641431Y-119837000D01*
X180530569Y-119837000D01*
X181352026Y-119496741D01*
X181980741Y-118868026D01*
X182321000Y-118046569D01*
X182321000Y-117157431D01*
X181980741Y-116335974D01*
X181352026Y-115707259D01*
X180530569Y-115367000D01*
X179641431Y-115367000D01*
X179322000Y-115499313D01*
X179322000Y-74238687D01*
X179641431Y-74371000D01*
X180530569Y-74371000D01*
X181352026Y-74030741D01*
X181980741Y-73402026D01*
X182321000Y-72580569D01*
X182321000Y-71691431D01*
X181980741Y-70869974D01*
X181352026Y-70241259D01*
X180530569Y-69901000D01*
X179641431Y-69901000D01*
X178819974Y-70241259D01*
X178191259Y-70869974D01*
X177851000Y-71691431D01*
X177851000Y-72580569D01*
X178036509Y-73028428D01*
X175502000Y-73028428D01*
X175502000Y-83131857D01*
X174496000Y-83131857D01*
X174496000Y-82449285D01*
X172288480Y-82449285D01*
X172399518Y-82338247D01*
X172640940Y-82238247D01*
X173030547Y-81848640D01*
X173241400Y-81339594D01*
X173241400Y-80788606D01*
X173030547Y-80279560D01*
X172640940Y-79889953D01*
X172131894Y-79679100D01*
X171580906Y-79679100D01*
X171071860Y-79889953D01*
X170682253Y-80279560D01*
X170582253Y-80520982D01*
X165856076Y-85247159D01*
X166014400Y-84864933D01*
X166014400Y-84299067D01*
X165797852Y-83776275D01*
X165397725Y-83376148D01*
X164874933Y-83159600D01*
X164309067Y-83159600D01*
X163786275Y-83376148D01*
X163386148Y-83776275D01*
X163322000Y-83931142D01*
X163257852Y-83776275D01*
X162857725Y-83376148D01*
X162334933Y-83159600D01*
X161769067Y-83159600D01*
X161246275Y-83376148D01*
X160846148Y-83776275D01*
X160782000Y-83931142D01*
X160717852Y-83776275D01*
X160317725Y-83376148D01*
X159794933Y-83159600D01*
X159229067Y-83159600D01*
X158706275Y-83376148D01*
X158306148Y-83776275D01*
X158242000Y-83931142D01*
X158177852Y-83776275D01*
X157777725Y-83376148D01*
X157254933Y-83159600D01*
X156689067Y-83159600D01*
X156166275Y-83376148D01*
X155766148Y-83776275D01*
X155702000Y-83931142D01*
X155637852Y-83776275D01*
X155237725Y-83376148D01*
X154714933Y-83159600D01*
X154149067Y-83159600D01*
X153626275Y-83376148D01*
X153226148Y-83776275D01*
X153162000Y-83931142D01*
X153097852Y-83776275D01*
X152697725Y-83376148D01*
X152174933Y-83159600D01*
X151609067Y-83159600D01*
X151086275Y-83376148D01*
X150686148Y-83776275D01*
X150622000Y-83931142D01*
X150557852Y-83776275D01*
X150157725Y-83376148D01*
X149634933Y-83159600D01*
X149069067Y-83159600D01*
X148546275Y-83376148D01*
X148146148Y-83776275D01*
X148082000Y-83931142D01*
X148017852Y-83776275D01*
X147617725Y-83376148D01*
X147094933Y-83159600D01*
X146529067Y-83159600D01*
X146006275Y-83376148D01*
X145606148Y-83776275D01*
X145542000Y-83931142D01*
X145477852Y-83776275D01*
X145077725Y-83376148D01*
X144554933Y-83159600D01*
X143989067Y-83159600D01*
X143466275Y-83376148D01*
X143066148Y-83776275D01*
X143002000Y-83931142D01*
X142937852Y-83776275D01*
X142537725Y-83376148D01*
X142014933Y-83159600D01*
X141449067Y-83159600D01*
X140926275Y-83376148D01*
X140526148Y-83776275D01*
X140462000Y-83931142D01*
X140397852Y-83776275D01*
X139997725Y-83376148D01*
X139474933Y-83159600D01*
X138909067Y-83159600D01*
X138386275Y-83376148D01*
X137986148Y-83776275D01*
X137922000Y-83931142D01*
X137857852Y-83776275D01*
X137457725Y-83376148D01*
X136934933Y-83159600D01*
X136369067Y-83159600D01*
X135846275Y-83376148D01*
X135446148Y-83776275D01*
X135382000Y-83931142D01*
X135317852Y-83776275D01*
X134917725Y-83376148D01*
X134394933Y-83159600D01*
X133829067Y-83159600D01*
X133306275Y-83376148D01*
X132906148Y-83776275D01*
X132848509Y-83915429D01*
X132815432Y-83835575D01*
X132570617Y-83762989D01*
X131751605Y-84582000D01*
X131392395Y-84582000D01*
X130573383Y-83762989D01*
X130328568Y-83835575D01*
X130297873Y-83921179D01*
X130237852Y-83776275D01*
X130044960Y-83583383D01*
X130752989Y-83583383D01*
X131572000Y-84402395D01*
X132391011Y-83583383D01*
X132318425Y-83338568D01*
X131785765Y-83147574D01*
X131220562Y-83174959D01*
X130825575Y-83338568D01*
X130752989Y-83583383D01*
X130044960Y-83583383D01*
X129837725Y-83376148D01*
X129314933Y-83159600D01*
X128749067Y-83159600D01*
X128226275Y-83376148D01*
X127826148Y-83776275D01*
X127609600Y-84299067D01*
X113062988Y-84299067D01*
X112912389Y-83980866D01*
X112497423Y-83604959D01*
X112109039Y-83444096D01*
X111887000Y-83566085D01*
X111633000Y-83566085D01*
X111410961Y-83444096D01*
X111022577Y-83604959D01*
X110607611Y-83980866D01*
X110368086Y-84486959D01*
X104342000Y-84486959D01*
X104342000Y-82040000D01*
X110044429Y-82040000D01*
X110044429Y-79324000D01*
X110281314Y-79324000D01*
X110245908Y-79502000D01*
X110361161Y-80081418D01*
X110689375Y-80572625D01*
X111180582Y-80900839D01*
X111613744Y-80987000D01*
X111906256Y-80987000D01*
X112339418Y-80900839D01*
X112830625Y-80572625D01*
X113158839Y-80081418D01*
X113257286Y-79586490D01*
X113257286Y-81786000D01*
X118898715Y-81786000D01*
X118898715Y-80314221D01*
X119071375Y-80572625D01*
X119562582Y-80900839D01*
X119995744Y-80987000D01*
X120288256Y-80987000D01*
X120721418Y-80900839D01*
X121212625Y-80572625D01*
X121540839Y-80081418D01*
X121656092Y-79502000D01*
X121540839Y-78922582D01*
X121212625Y-78431375D01*
X121190967Y-78416904D01*
X121351698Y-78350327D01*
X121530327Y-78171699D01*
X121627000Y-77938310D01*
X121627000Y-77247750D01*
X125515000Y-77247750D01*
X125515000Y-77938309D01*
X125611673Y-78171698D01*
X125790301Y-78350327D01*
X126023690Y-78447000D01*
X126714250Y-78447000D01*
X126873000Y-78288250D01*
X126873000Y-77089000D01*
X125673750Y-77089000D01*
X125515000Y-77247750D01*
X121627000Y-77247750D01*
X121468250Y-77089000D01*
X120269000Y-77089000D01*
X120269000Y-77109000D01*
X120015000Y-77109000D01*
X120015000Y-77089000D01*
X119995000Y-77089000D01*
X119995000Y-76835000D01*
X120015000Y-76835000D01*
X120015000Y-75635750D01*
X120269000Y-75635750D01*
X120269000Y-76835000D01*
X121468250Y-76835000D01*
X121627000Y-76676250D01*
X121627000Y-75985690D01*
X121530327Y-75752301D01*
X121351698Y-75573673D01*
X121118309Y-75477000D01*
X120427750Y-75477000D01*
X120269000Y-75635750D01*
X120015000Y-75635750D01*
X119856250Y-75477000D01*
X119165691Y-75477000D01*
X118932302Y-75573673D01*
X118894715Y-75611260D01*
X118894715Y-75172000D01*
X112753286Y-75172000D01*
X112753286Y-75484032D01*
X112736309Y-75477000D01*
X112045750Y-75477000D01*
X111887000Y-75635750D01*
X111887000Y-76835000D01*
X111907000Y-76835000D01*
X111907000Y-77089000D01*
X111887000Y-77089000D01*
X111887000Y-77109000D01*
X111633000Y-77109000D01*
X111633000Y-77089000D01*
X111613000Y-77089000D01*
X111613000Y-76835000D01*
X111633000Y-76835000D01*
X111633000Y-75635750D01*
X111474250Y-75477000D01*
X110783691Y-75477000D01*
X110550302Y-75573673D01*
X110411095Y-75712879D01*
X110411095Y-75354000D01*
X104342000Y-75354000D01*
X104342000Y-71691431D01*
X104953000Y-71691431D01*
X104953000Y-72580569D01*
X105293259Y-73402026D01*
X105921974Y-74030741D01*
X106743431Y-74371000D01*
X107632569Y-74371000D01*
X108454026Y-74030741D01*
X109082741Y-73402026D01*
X109423000Y-72580569D01*
X109423000Y-71691431D01*
X109082741Y-70869974D01*
X108454026Y-70241259D01*
X107632569Y-69901000D01*
X106743431Y-69901000D01*
X105921974Y-70241259D01*
X105293259Y-70869974D01*
X104953000Y-71691431D01*
X104342000Y-71691431D01*
X104342000Y-69775922D01*
X124844456Y-69775922D01*
X124844456Y-75917351D01*
X125543307Y-75917351D01*
X125515000Y-75985691D01*
X125515000Y-76676250D01*
X125673750Y-76835000D01*
X126873000Y-76835000D01*
X126873000Y-76815000D01*
X127127000Y-76815000D01*
X127127000Y-76835000D01*
X127147000Y-76835000D01*
X127147000Y-77089000D01*
X127127000Y-77089000D01*
X127127000Y-78288250D01*
X127285750Y-78447000D01*
X127976310Y-78447000D01*
X128209699Y-78350327D01*
X128388327Y-78171698D01*
X128454904Y-78010967D01*
X128469375Y-78032625D01*
X128960582Y-78360839D01*
X129393744Y-78447000D01*
X129686256Y-78447000D01*
X130119418Y-78360839D01*
X130610625Y-78032625D01*
X130938839Y-77541418D01*
X131054092Y-76962000D01*
X130938839Y-76382582D01*
X130610625Y-75891375D01*
X130120985Y-75564208D01*
X131204456Y-75564208D01*
X131204456Y-70637065D01*
X128664456Y-70637065D01*
X128664456Y-69954494D01*
X137036456Y-69954494D01*
X137036456Y-75738780D01*
X139006631Y-75738780D01*
X138612582Y-75817161D01*
X138121375Y-76145375D01*
X137793161Y-76636582D01*
X137677908Y-77216000D01*
X137793161Y-77795418D01*
X138121375Y-78286625D01*
X138612582Y-78614839D01*
X139045744Y-78701000D01*
X139338256Y-78701000D01*
X139771418Y-78614839D01*
X140262625Y-78286625D01*
X140462000Y-77988239D01*
X140661375Y-78286625D01*
X141152582Y-78614839D01*
X141585744Y-78701000D01*
X141878256Y-78701000D01*
X142311418Y-78614839D01*
X142802625Y-78286625D01*
X143002000Y-77988239D01*
X143201375Y-78286625D01*
X143692582Y-78614839D01*
X144125744Y-78701000D01*
X144418256Y-78701000D01*
X144851418Y-78614839D01*
X145342625Y-78286625D01*
X145542000Y-77988239D01*
X145741375Y-78286625D01*
X146232582Y-78614839D01*
X146665744Y-78701000D01*
X146958256Y-78701000D01*
X147391418Y-78614839D01*
X147882625Y-78286625D01*
X148082000Y-77988239D01*
X148281375Y-78286625D01*
X148772582Y-78614839D01*
X149205744Y-78701000D01*
X149498256Y-78701000D01*
X149931418Y-78614839D01*
X150422625Y-78286625D01*
X150622000Y-77988239D01*
X150821375Y-78286625D01*
X151312582Y-78614839D01*
X151745744Y-78701000D01*
X152038256Y-78701000D01*
X152471418Y-78614839D01*
X152962625Y-78286625D01*
X153162000Y-77988239D01*
X153361375Y-78286625D01*
X153852582Y-78614839D01*
X154285744Y-78701000D01*
X154578256Y-78701000D01*
X155011418Y-78614839D01*
X155502625Y-78286625D01*
X155702000Y-77988239D01*
X155901375Y-78286625D01*
X156392582Y-78614839D01*
X156825744Y-78701000D01*
X157118256Y-78701000D01*
X157551418Y-78614839D01*
X158042625Y-78286625D01*
X158057096Y-78264967D01*
X158123673Y-78425698D01*
X158302301Y-78604327D01*
X158535690Y-78701000D01*
X159226250Y-78701000D01*
X159385000Y-78542250D01*
X159385000Y-77343000D01*
X159639000Y-77343000D01*
X159639000Y-78542250D01*
X159797750Y-78701000D01*
X160488310Y-78701000D01*
X160721699Y-78604327D01*
X160900327Y-78425698D01*
X160997000Y-78192309D01*
X160997000Y-77501750D01*
X160838250Y-77343000D01*
X159639000Y-77343000D01*
X159385000Y-77343000D01*
X159365000Y-77343000D01*
X159365000Y-77089000D01*
X159385000Y-77089000D01*
X159385000Y-77069000D01*
X159639000Y-77069000D01*
X159639000Y-77089000D01*
X160838250Y-77089000D01*
X160997000Y-76930250D01*
X160997000Y-76239691D01*
X160900327Y-76006302D01*
X160811376Y-75917351D01*
X161684456Y-75917351D01*
X161684456Y-69775922D01*
X157864456Y-69775922D01*
X157864456Y-69954494D01*
X137036456Y-69954494D01*
X128664456Y-69954494D01*
X128664456Y-69775922D01*
X124844456Y-69775922D01*
X104342000Y-69775922D01*
X104342000Y-69290000D01*
X182932001Y-69290000D01*
X182932000Y-120194000D01*
X182932000Y-120194000D01*
G37*
X182932000Y-120194000D02*
X104342000Y-120194000D01*
X104342000Y-116903431D01*
X104953000Y-116903431D01*
X104953000Y-117792569D01*
X105293259Y-118614026D01*
X105921974Y-119242741D01*
X106743431Y-119583000D01*
X107632569Y-119583000D01*
X108454026Y-119242741D01*
X109082741Y-118614026D01*
X109423000Y-117792569D01*
X109423000Y-116903431D01*
X109082741Y-116081974D01*
X108454026Y-115453259D01*
X107632569Y-115113000D01*
X106743431Y-115113000D01*
X105921974Y-115453259D01*
X105293259Y-116081974D01*
X104953000Y-116903431D01*
X104342000Y-116903431D01*
X104342000Y-114858150D01*
X113220500Y-114858150D01*
X113220500Y-115265849D01*
X113312609Y-115728910D01*
X113663477Y-116254023D01*
X114188589Y-116604891D01*
X114808000Y-116728100D01*
X115427410Y-116604891D01*
X115952523Y-116254023D01*
X116078000Y-116066233D01*
X116203477Y-116254023D01*
X116728589Y-116604891D01*
X117348000Y-116728100D01*
X117967410Y-116604891D01*
X118359491Y-116342912D01*
X118477691Y-116519809D01*
X118687735Y-116660157D01*
X118935500Y-116709440D01*
X120840500Y-116709440D01*
X121088265Y-116660157D01*
X121298309Y-116519809D01*
X121438657Y-116309765D01*
X121487940Y-116062000D01*
X121487940Y-114585750D01*
X135117000Y-114585750D01*
X135117000Y-115326310D01*
X135213673Y-115559699D01*
X135392302Y-115738327D01*
X135625691Y-115835000D01*
X136366250Y-115835000D01*
X136525000Y-115676250D01*
X136525000Y-114427000D01*
X135275750Y-114427000D01*
X135117000Y-114585750D01*
X121487940Y-114585750D01*
X121487940Y-114062000D01*
X121438657Y-113814235D01*
X121298309Y-113604191D01*
X121088265Y-113463843D01*
X120840500Y-113414560D01*
X118935500Y-113414560D01*
X118687735Y-113463843D01*
X118477691Y-113604191D01*
X118359491Y-113781088D01*
X117967411Y-113519109D01*
X117348000Y-113395900D01*
X116728590Y-113519109D01*
X116203477Y-113869977D01*
X116078000Y-114057767D01*
X115952523Y-113869977D01*
X115427411Y-113519109D01*
X114808000Y-113395900D01*
X114188590Y-113519109D01*
X113663477Y-113869977D01*
X113312609Y-114395089D01*
X113220500Y-114858150D01*
X104342000Y-114858150D01*
X104342000Y-113273690D01*
X135117000Y-113273690D01*
X135117000Y-114014250D01*
X135275750Y-114173000D01*
X136525000Y-114173000D01*
X136525000Y-112923750D01*
X136779000Y-112923750D01*
X136779000Y-114173000D01*
X136799000Y-114173000D01*
X136799000Y-114427000D01*
X136779000Y-114427000D01*
X136779000Y-115676250D01*
X136937750Y-115835000D01*
X137678309Y-115835000D01*
X137911698Y-115738327D01*
X138090327Y-115559699D01*
X138146139Y-115424956D01*
X138322493Y-115601310D01*
X138886670Y-115835000D01*
X139497330Y-115835000D01*
X140061507Y-115601310D01*
X140493310Y-115169507D01*
X140727000Y-114605330D01*
X140727000Y-113994670D01*
X140493310Y-113430493D01*
X140061507Y-112998690D01*
X139497330Y-112765000D01*
X138886670Y-112765000D01*
X138322493Y-112998690D01*
X138146139Y-113175044D01*
X138090327Y-113040301D01*
X137911698Y-112861673D01*
X137678309Y-112765000D01*
X136937750Y-112765000D01*
X136779000Y-112923750D01*
X136525000Y-112923750D01*
X136366250Y-112765000D01*
X135625691Y-112765000D01*
X135392302Y-112861673D01*
X135213673Y-113040301D01*
X135117000Y-113273690D01*
X104342000Y-113273690D01*
X104342000Y-103668000D01*
X107090560Y-103668000D01*
X107090560Y-108168000D01*
X107139843Y-108415765D01*
X107280191Y-108625809D01*
X107490235Y-108766157D01*
X107738000Y-108815440D01*
X110238000Y-108815440D01*
X110485765Y-108766157D01*
X110695809Y-108625809D01*
X110836157Y-108415765D01*
X110885440Y-108168000D01*
X110885440Y-104732346D01*
X112553000Y-104732346D01*
X112553001Y-107103655D01*
X112662370Y-107653490D01*
X113078992Y-108277009D01*
X113702511Y-108693631D01*
X114438000Y-108839929D01*
X115173490Y-108693631D01*
X115797009Y-108277009D01*
X116213631Y-107653490D01*
X116323000Y-107103655D01*
X116323000Y-106045000D01*
X118003000Y-106045000D01*
X118003000Y-107045000D01*
X118195088Y-107756691D01*
X118644906Y-108340699D01*
X119283974Y-108708114D01*
X119468355Y-108755695D01*
X119761000Y-108639572D01*
X119761000Y-106045000D01*
X120015000Y-106045000D01*
X120015000Y-108639572D01*
X120307645Y-108755695D01*
X120492026Y-108708114D01*
X121131094Y-108340699D01*
X121580912Y-107756691D01*
X121773000Y-107045000D01*
X121773000Y-106911285D01*
X124448000Y-106911285D01*
X124448000Y-113052714D01*
X128268000Y-113052714D01*
X128268000Y-111215285D01*
X133856000Y-111215285D01*
X133856000Y-106716714D01*
X132289293Y-106716714D01*
X132642625Y-106480625D01*
X132864019Y-106149285D01*
X134862000Y-106149285D01*
X134862000Y-112290714D01*
X138682000Y-112290714D01*
X138682000Y-110961285D01*
X157722000Y-110961285D01*
X157722000Y-112437571D01*
X169416000Y-112437571D01*
X169416000Y-106510428D01*
X168158022Y-106510428D01*
X168202625Y-106480625D01*
X168530839Y-105989418D01*
X168646092Y-105410000D01*
X168530839Y-104830582D01*
X168202625Y-104339375D01*
X167711418Y-104011161D01*
X167278256Y-103925000D01*
X166985744Y-103925000D01*
X166552582Y-104011161D01*
X166061375Y-104339375D01*
X165862000Y-104637761D01*
X165662625Y-104339375D01*
X165171418Y-104011161D01*
X164738256Y-103925000D01*
X164445744Y-103925000D01*
X164012582Y-104011161D01*
X163521375Y-104339375D01*
X163322000Y-104637761D01*
X163122625Y-104339375D01*
X162631418Y-104011161D01*
X162198256Y-103925000D01*
X161905744Y-103925000D01*
X161472582Y-104011161D01*
X160981375Y-104339375D01*
X160782000Y-104637761D01*
X160582625Y-104339375D01*
X160091418Y-104011161D01*
X159658256Y-103925000D01*
X159365744Y-103925000D01*
X158932582Y-104011161D01*
X158441375Y-104339375D01*
X158242000Y-104637761D01*
X158042625Y-104339375D01*
X157551418Y-104011161D01*
X157118256Y-103925000D01*
X156825744Y-103925000D01*
X156392582Y-104011161D01*
X155901375Y-104339375D01*
X155702000Y-104637761D01*
X155502625Y-104339375D01*
X155011418Y-104011161D01*
X154578256Y-103925000D01*
X154285744Y-103925000D01*
X153852582Y-104011161D01*
X153361375Y-104339375D01*
X153162000Y-104637761D01*
X152962625Y-104339375D01*
X152471418Y-104011161D01*
X152038256Y-103925000D01*
X151745744Y-103925000D01*
X151312582Y-104011161D01*
X150821375Y-104339375D01*
X150622000Y-104637761D01*
X150422625Y-104339375D01*
X149931418Y-104011161D01*
X149498256Y-103925000D01*
X149205744Y-103925000D01*
X148772582Y-104011161D01*
X148281375Y-104339375D01*
X148082000Y-104637761D01*
X147882625Y-104339375D01*
X147391418Y-104011161D01*
X146958256Y-103925000D01*
X146665744Y-103925000D01*
X146232582Y-104011161D01*
X145741375Y-104339375D01*
X145542000Y-104637761D01*
X145342625Y-104339375D01*
X144851418Y-104011161D01*
X144418256Y-103925000D01*
X144125744Y-103925000D01*
X143692582Y-104011161D01*
X143201375Y-104339375D01*
X143002000Y-104637761D01*
X142802625Y-104339375D01*
X142311418Y-104011161D01*
X141878256Y-103925000D01*
X141585744Y-103925000D01*
X141152582Y-104011161D01*
X140661375Y-104339375D01*
X140462000Y-104637761D01*
X140262625Y-104339375D01*
X139771418Y-104011161D01*
X139338256Y-103925000D01*
X139045744Y-103925000D01*
X138612582Y-104011161D01*
X138121375Y-104339375D01*
X138106904Y-104361033D01*
X138040327Y-104200302D01*
X137861699Y-104021673D01*
X137628310Y-103925000D01*
X136937750Y-103925000D01*
X136779000Y-104083750D01*
X136779000Y-105283000D01*
X136799000Y-105283000D01*
X136799000Y-105537000D01*
X136779000Y-105537000D01*
X136779000Y-105557000D01*
X136525000Y-105557000D01*
X136525000Y-105537000D01*
X135325750Y-105537000D01*
X135167000Y-105695750D01*
X135167000Y-106149285D01*
X134862000Y-106149285D01*
X132864019Y-106149285D01*
X132970839Y-105989418D01*
X133086092Y-105410000D01*
X132970839Y-104830582D01*
X132705645Y-104433691D01*
X135167000Y-104433691D01*
X135167000Y-105124250D01*
X135325750Y-105283000D01*
X136525000Y-105283000D01*
X136525000Y-104083750D01*
X136366250Y-103925000D01*
X135675690Y-103925000D01*
X135442301Y-104021673D01*
X135263673Y-104200302D01*
X135167000Y-104433691D01*
X132705645Y-104433691D01*
X132642625Y-104339375D01*
X132151418Y-104011161D01*
X131718256Y-103925000D01*
X131425744Y-103925000D01*
X130992582Y-104011161D01*
X130501375Y-104339375D01*
X130302000Y-104637761D01*
X130102625Y-104339375D01*
X129611418Y-104011161D01*
X129178256Y-103925000D01*
X128885744Y-103925000D01*
X128452582Y-104011161D01*
X127961375Y-104339375D01*
X127946904Y-104361033D01*
X127880327Y-104200302D01*
X127701699Y-104021673D01*
X127468310Y-103925000D01*
X126777750Y-103925000D01*
X126619000Y-104083750D01*
X126619000Y-105283000D01*
X126639000Y-105283000D01*
X126639000Y-105537000D01*
X126619000Y-105537000D01*
X126619000Y-106736250D01*
X126777750Y-106895000D01*
X127242000Y-106895000D01*
X127242000Y-106911285D01*
X124448000Y-106911285D01*
X121773000Y-106911285D01*
X121773000Y-106045000D01*
X120015000Y-106045000D01*
X119761000Y-106045000D01*
X118003000Y-106045000D01*
X116323000Y-106045000D01*
X116323000Y-104791000D01*
X118003000Y-104791000D01*
X118003000Y-105791000D01*
X119761000Y-105791000D01*
X119761000Y-103196428D01*
X120015000Y-103196428D01*
X120015000Y-105791000D01*
X121773000Y-105791000D01*
X121773000Y-105695750D01*
X125007000Y-105695750D01*
X125007000Y-106386309D01*
X125103673Y-106619698D01*
X125282301Y-106798327D01*
X125515690Y-106895000D01*
X126206250Y-106895000D01*
X126365000Y-106736250D01*
X126365000Y-105537000D01*
X125165750Y-105537000D01*
X125007000Y-105695750D01*
X121773000Y-105695750D01*
X121773000Y-104791000D01*
X121676561Y-104433691D01*
X125007000Y-104433691D01*
X125007000Y-105124250D01*
X125165750Y-105283000D01*
X126365000Y-105283000D01*
X126365000Y-104083750D01*
X126206250Y-103925000D01*
X125515690Y-103925000D01*
X125282301Y-104021673D01*
X125103673Y-104200302D01*
X125007000Y-104433691D01*
X121676561Y-104433691D01*
X121580912Y-104079309D01*
X121131094Y-103495301D01*
X120492026Y-103127886D01*
X120307645Y-103080305D01*
X120015000Y-103196428D01*
X119761000Y-103196428D01*
X119468355Y-103080305D01*
X119283974Y-103127886D01*
X118644906Y-103495301D01*
X118195088Y-104079309D01*
X118003000Y-104791000D01*
X116323000Y-104791000D01*
X116323000Y-104732345D01*
X116213631Y-104182510D01*
X115797009Y-103558991D01*
X115173489Y-103142369D01*
X114438000Y-102996071D01*
X113702510Y-103142369D01*
X113078991Y-103558991D01*
X112662369Y-104182511D01*
X112553000Y-104732346D01*
X110885440Y-104732346D01*
X110885440Y-103668000D01*
X110836157Y-103420235D01*
X110695809Y-103210191D01*
X110485765Y-103069843D01*
X110238000Y-103020560D01*
X107738000Y-103020560D01*
X107490235Y-103069843D01*
X107280191Y-103210191D01*
X107139843Y-103420235D01*
X107090560Y-103668000D01*
X104342000Y-103668000D01*
X104342000Y-99790561D01*
X110325000Y-99790561D01*
X110325000Y-100361439D01*
X110543466Y-100888862D01*
X110947138Y-101292534D01*
X111474561Y-101511000D01*
X112045439Y-101511000D01*
X112572862Y-101292534D01*
X112976534Y-100888862D01*
X113195000Y-100361439D01*
X113195000Y-99790561D01*
X113090828Y-99539067D01*
X127609600Y-99539067D01*
X127609600Y-100104933D01*
X127826148Y-100627725D01*
X128226275Y-101027852D01*
X128749067Y-101244400D01*
X129314933Y-101244400D01*
X129837725Y-101027852D01*
X130237852Y-100627725D01*
X130302000Y-100472858D01*
X130366148Y-100627725D01*
X130766275Y-101027852D01*
X131289067Y-101244400D01*
X131854933Y-101244400D01*
X132377725Y-101027852D01*
X132777852Y-100627725D01*
X132842000Y-100472858D01*
X132906148Y-100627725D01*
X133306275Y-101027852D01*
X133829067Y-101244400D01*
X134394933Y-101244400D01*
X134917725Y-101027852D01*
X135124960Y-100820617D01*
X135832989Y-100820617D01*
X135905575Y-101065432D01*
X136438235Y-101256426D01*
X137003438Y-101229041D01*
X137398425Y-101065432D01*
X137471011Y-100820617D01*
X136652000Y-100001605D01*
X135832989Y-100820617D01*
X135124960Y-100820617D01*
X135317852Y-100627725D01*
X135375491Y-100488571D01*
X135408568Y-100568425D01*
X135653383Y-100641011D01*
X136472395Y-99822000D01*
X136831605Y-99822000D01*
X137650617Y-100641011D01*
X137895432Y-100568425D01*
X137926127Y-100482821D01*
X137986148Y-100627725D01*
X138386275Y-101027852D01*
X138909067Y-101244400D01*
X139474933Y-101244400D01*
X139997725Y-101027852D01*
X140397852Y-100627725D01*
X140462000Y-100472858D01*
X140526148Y-100627725D01*
X140926275Y-101027852D01*
X141449067Y-101244400D01*
X142014933Y-101244400D01*
X142537725Y-101027852D01*
X142937852Y-100627725D01*
X143002000Y-100472858D01*
X143066148Y-100627725D01*
X143466275Y-101027852D01*
X143989067Y-101244400D01*
X144554933Y-101244400D01*
X145077725Y-101027852D01*
X145477852Y-100627725D01*
X145542000Y-100472858D01*
X145606148Y-100627725D01*
X146006275Y-101027852D01*
X146529067Y-101244400D01*
X147094933Y-101244400D01*
X147617725Y-101027852D01*
X148017852Y-100627725D01*
X148082000Y-100472858D01*
X148146148Y-100627725D01*
X148546275Y-101027852D01*
X149069067Y-101244400D01*
X149634933Y-101244400D01*
X150157725Y-101027852D01*
X150557852Y-100627725D01*
X150622000Y-100472858D01*
X150686148Y-100627725D01*
X151086275Y-101027852D01*
X151609067Y-101244400D01*
X152174933Y-101244400D01*
X152697725Y-101027852D01*
X153097852Y-100627725D01*
X153162000Y-100472858D01*
X153226148Y-100627725D01*
X153626275Y-101027852D01*
X154149067Y-101244400D01*
X154714933Y-101244400D01*
X155237725Y-101027852D01*
X155637852Y-100627725D01*
X155702000Y-100472858D01*
X155766148Y-100627725D01*
X156166275Y-101027852D01*
X156689067Y-101244400D01*
X157254933Y-101244400D01*
X157777725Y-101027852D01*
X158177852Y-100627725D01*
X158242000Y-100472858D01*
X158306148Y-100627725D01*
X158706275Y-101027852D01*
X159229067Y-101244400D01*
X159794933Y-101244400D01*
X160317725Y-101027852D01*
X160717852Y-100627725D01*
X160782000Y-100472858D01*
X160846148Y-100627725D01*
X161246275Y-101027852D01*
X161769067Y-101244400D01*
X162334933Y-101244400D01*
X162857725Y-101027852D01*
X163257852Y-100627725D01*
X163322000Y-100472858D01*
X163386148Y-100627725D01*
X163786275Y-101027852D01*
X164309067Y-101244400D01*
X164874933Y-101244400D01*
X165397725Y-101027852D01*
X165797852Y-100627725D01*
X166014400Y-100104933D01*
X166014400Y-99539067D01*
X165797852Y-99016275D01*
X165397725Y-98616148D01*
X164874933Y-98399600D01*
X164309067Y-98399600D01*
X163786275Y-98616148D01*
X163386148Y-99016275D01*
X163322000Y-99171142D01*
X163257852Y-99016275D01*
X162857725Y-98616148D01*
X162334933Y-98399600D01*
X161769067Y-98399600D01*
X161246275Y-98616148D01*
X160846148Y-99016275D01*
X160782000Y-99171142D01*
X160717852Y-99016275D01*
X160317725Y-98616148D01*
X159794933Y-98399600D01*
X159229067Y-98399600D01*
X158706275Y-98616148D01*
X158306148Y-99016275D01*
X158242000Y-99171142D01*
X158177852Y-99016275D01*
X157777725Y-98616148D01*
X157254933Y-98399600D01*
X156689067Y-98399600D01*
X156166275Y-98616148D01*
X155766148Y-99016275D01*
X155702000Y-99171142D01*
X155637852Y-99016275D01*
X155237725Y-98616148D01*
X154714933Y-98399600D01*
X154149067Y-98399600D01*
X153626275Y-98616148D01*
X153226148Y-99016275D01*
X153162000Y-99171142D01*
X153097852Y-99016275D01*
X152697725Y-98616148D01*
X152174933Y-98399600D01*
X151609067Y-98399600D01*
X151086275Y-98616148D01*
X150686148Y-99016275D01*
X150622000Y-99171142D01*
X150557852Y-99016275D01*
X150157725Y-98616148D01*
X149634933Y-98399600D01*
X149069067Y-98399600D01*
X148546275Y-98616148D01*
X148146148Y-99016275D01*
X148082000Y-99171142D01*
X148017852Y-99016275D01*
X147617725Y-98616148D01*
X147094933Y-98399600D01*
X146529067Y-98399600D01*
X146006275Y-98616148D01*
X145606148Y-99016275D01*
X145542000Y-99171142D01*
X145477852Y-99016275D01*
X145077725Y-98616148D01*
X144554933Y-98399600D01*
X143989067Y-98399600D01*
X143466275Y-98616148D01*
X143066148Y-99016275D01*
X143002000Y-99171142D01*
X142937852Y-99016275D01*
X142537725Y-98616148D01*
X142014933Y-98399600D01*
X141449067Y-98399600D01*
X140926275Y-98616148D01*
X140526148Y-99016275D01*
X140462000Y-99171142D01*
X140397852Y-99016275D01*
X139997725Y-98616148D01*
X139474933Y-98399600D01*
X138909067Y-98399600D01*
X138386275Y-98616148D01*
X137986148Y-99016275D01*
X137928509Y-99155429D01*
X137895432Y-99075575D01*
X137650617Y-99002989D01*
X136831605Y-99822000D01*
X136472395Y-99822000D01*
X135653383Y-99002989D01*
X135408568Y-99075575D01*
X135377873Y-99161179D01*
X135317852Y-99016275D01*
X135124960Y-98823383D01*
X135832989Y-98823383D01*
X136652000Y-99642395D01*
X137471011Y-98823383D01*
X137398425Y-98578568D01*
X136865765Y-98387574D01*
X136300562Y-98414959D01*
X135905575Y-98578568D01*
X135832989Y-98823383D01*
X135124960Y-98823383D01*
X134917725Y-98616148D01*
X134394933Y-98399600D01*
X133829067Y-98399600D01*
X133306275Y-98616148D01*
X132906148Y-99016275D01*
X132842000Y-99171142D01*
X132777852Y-99016275D01*
X132377725Y-98616148D01*
X131854933Y-98399600D01*
X131289067Y-98399600D01*
X130766275Y-98616148D01*
X130366148Y-99016275D01*
X130302000Y-99171142D01*
X130237852Y-99016275D01*
X129837725Y-98616148D01*
X129314933Y-98399600D01*
X128749067Y-98399600D01*
X128226275Y-98616148D01*
X127826148Y-99016275D01*
X127609600Y-99539067D01*
X113090828Y-99539067D01*
X112976534Y-99263138D01*
X112572862Y-98859466D01*
X112045439Y-98641000D01*
X111474561Y-98641000D01*
X110947138Y-98859466D01*
X110543466Y-99263138D01*
X110325000Y-99790561D01*
X104342000Y-99790561D01*
X104342000Y-85185041D01*
X110368086Y-85185041D01*
X110607611Y-85691134D01*
X111022577Y-86067041D01*
X111410961Y-86227904D01*
X111633000Y-86105915D01*
X111633000Y-84963000D01*
X111887000Y-84963000D01*
X111887000Y-86105915D01*
X112109039Y-86227904D01*
X112497423Y-86067041D01*
X112912389Y-85691134D01*
X112962147Y-85586000D01*
X113515286Y-85586000D01*
X113515286Y-89406000D01*
X115459857Y-89406000D01*
X115459857Y-90666000D01*
X114309000Y-90666000D01*
X114309000Y-93206000D01*
X113876429Y-93206000D01*
X113876429Y-97026000D01*
X119803572Y-97026000D01*
X119803572Y-96022022D01*
X119833375Y-96066625D01*
X120324582Y-96394839D01*
X120757744Y-96481000D01*
X121050256Y-96481000D01*
X121483418Y-96394839D01*
X121974625Y-96066625D01*
X122302839Y-95575418D01*
X122418092Y-94996000D01*
X122302839Y-94416582D01*
X121974625Y-93925375D01*
X121676239Y-93726000D01*
X121974625Y-93526625D01*
X122302839Y-93035418D01*
X122418092Y-92456000D01*
X122302839Y-91876582D01*
X121974625Y-91385375D01*
X121676239Y-91186000D01*
X121974625Y-90986625D01*
X122302839Y-90495418D01*
X122418092Y-89916000D01*
X122302839Y-89336582D01*
X121974625Y-88845375D01*
X121952967Y-88830904D01*
X122113698Y-88764327D01*
X122292327Y-88585699D01*
X122389000Y-88352310D01*
X122389000Y-87661750D01*
X122230250Y-87503000D01*
X121031000Y-87503000D01*
X121031000Y-87523000D01*
X120777000Y-87523000D01*
X120777000Y-87503000D01*
X120757000Y-87503000D01*
X120757000Y-87249000D01*
X120777000Y-87249000D01*
X120777000Y-86049750D01*
X121031000Y-86049750D01*
X121031000Y-87249000D01*
X122230250Y-87249000D01*
X122389000Y-87090250D01*
X122389000Y-86399690D01*
X122292327Y-86166301D01*
X122113698Y-85987673D01*
X121880309Y-85891000D01*
X121189750Y-85891000D01*
X121031000Y-86049750D01*
X120777000Y-86049750D01*
X120618250Y-85891000D01*
X119927691Y-85891000D01*
X119694302Y-85987673D01*
X119656715Y-86025260D01*
X119656715Y-85586000D01*
X113515286Y-85586000D01*
X112962147Y-85586000D01*
X113151914Y-85185041D01*
X113030629Y-84963000D01*
X111887000Y-84963000D01*
X111633000Y-84963000D01*
X110489371Y-84963000D01*
X110368086Y-85185041D01*
X104342000Y-85185041D01*
X104342000Y-84486959D01*
X110368086Y-84486959D01*
X110489371Y-84709000D01*
X111633000Y-84709000D01*
X111633000Y-83566085D01*
X111887000Y-83566085D01*
X111887000Y-84709000D01*
X113030629Y-84709000D01*
X113151914Y-84486959D01*
X113062988Y-84299067D01*
X127609600Y-84299067D01*
X127609600Y-84864933D01*
X127826148Y-85387725D01*
X128226275Y-85787852D01*
X128749067Y-86004400D01*
X129314933Y-86004400D01*
X129837725Y-85787852D01*
X130044960Y-85580617D01*
X130752989Y-85580617D01*
X130825575Y-85825432D01*
X131358235Y-86016426D01*
X131923438Y-85989041D01*
X132318425Y-85825432D01*
X132391011Y-85580617D01*
X131572000Y-84761605D01*
X130752989Y-85580617D01*
X130044960Y-85580617D01*
X130237852Y-85387725D01*
X130295491Y-85248571D01*
X130328568Y-85328425D01*
X130573383Y-85401011D01*
X131392395Y-84582000D01*
X131751605Y-84582000D01*
X132570617Y-85401011D01*
X132815432Y-85328425D01*
X132846127Y-85242821D01*
X132906148Y-85387725D01*
X133306275Y-85787852D01*
X133829067Y-86004400D01*
X134394933Y-86004400D01*
X134917725Y-85787852D01*
X135317852Y-85387725D01*
X135382000Y-85232858D01*
X135446148Y-85387725D01*
X135846275Y-85787852D01*
X136369067Y-86004400D01*
X136934933Y-86004400D01*
X137457725Y-85787852D01*
X137857852Y-85387725D01*
X137922000Y-85232858D01*
X137986148Y-85387725D01*
X138386275Y-85787852D01*
X138909067Y-86004400D01*
X139474933Y-86004400D01*
X139997725Y-85787852D01*
X140397852Y-85387725D01*
X140462000Y-85232858D01*
X140526148Y-85387725D01*
X140926275Y-85787852D01*
X141449067Y-86004400D01*
X142014933Y-86004400D01*
X142537725Y-85787852D01*
X142937852Y-85387725D01*
X143002000Y-85232858D01*
X143066148Y-85387725D01*
X143466275Y-85787852D01*
X143989067Y-86004400D01*
X144554933Y-86004400D01*
X145077725Y-85787852D01*
X145477852Y-85387725D01*
X145542000Y-85232858D01*
X145606148Y-85387725D01*
X146006275Y-85787852D01*
X146529067Y-86004400D01*
X147094933Y-86004400D01*
X147617725Y-85787852D01*
X148017852Y-85387725D01*
X148082000Y-85232858D01*
X148146148Y-85387725D01*
X148546275Y-85787852D01*
X149069067Y-86004400D01*
X149634933Y-86004400D01*
X150157725Y-85787852D01*
X150557852Y-85387725D01*
X150622000Y-85232858D01*
X150686148Y-85387725D01*
X151086275Y-85787852D01*
X151609067Y-86004400D01*
X152174933Y-86004400D01*
X152697725Y-85787852D01*
X153097852Y-85387725D01*
X153162000Y-85232858D01*
X153226148Y-85387725D01*
X153626275Y-85787852D01*
X154149067Y-86004400D01*
X154714933Y-86004400D01*
X155237725Y-85787852D01*
X155637852Y-85387725D01*
X155702000Y-85232858D01*
X155766148Y-85387725D01*
X156166275Y-85787852D01*
X156689067Y-86004400D01*
X157254933Y-86004400D01*
X157777725Y-85787852D01*
X158177852Y-85387725D01*
X158242000Y-85232858D01*
X158306148Y-85387725D01*
X158706275Y-85787852D01*
X159229067Y-86004400D01*
X159794933Y-86004400D01*
X160317725Y-85787852D01*
X160717852Y-85387725D01*
X160782000Y-85232858D01*
X160846148Y-85387725D01*
X161246275Y-85787852D01*
X161769067Y-86004400D01*
X162334933Y-86004400D01*
X162857725Y-85787852D01*
X163257852Y-85387725D01*
X163322000Y-85232858D01*
X163386148Y-85387725D01*
X163786275Y-85787852D01*
X164309067Y-86004400D01*
X164874933Y-86004400D01*
X165257160Y-85846076D01*
X163932736Y-87170500D01*
X152040616Y-87170500D01*
X151799194Y-87070500D01*
X151248206Y-87070500D01*
X150739160Y-87281353D01*
X150349553Y-87670960D01*
X150138700Y-88180006D01*
X150138700Y-88730994D01*
X150349553Y-89240040D01*
X150739160Y-89629647D01*
X151248206Y-89840500D01*
X151799194Y-89840500D01*
X152040616Y-89740500D01*
X164338442Y-89740500D01*
X164465000Y-89765674D01*
X164591558Y-89740500D01*
X164966382Y-89665943D01*
X165391433Y-89381933D01*
X165463124Y-89274640D01*
X170676000Y-84061765D01*
X170676000Y-110590714D01*
X174496000Y-110590714D01*
X174496000Y-110416143D01*
X175502000Y-110416143D01*
X175502000Y-116455571D01*
X178141720Y-116455571D01*
X177851000Y-117157431D01*
X177851000Y-118046569D01*
X178191259Y-118868026D01*
X178819974Y-119496741D01*
X179641431Y-119837000D01*
X180530569Y-119837000D01*
X181352026Y-119496741D01*
X181980741Y-118868026D01*
X182321000Y-118046569D01*
X182321000Y-117157431D01*
X181980741Y-116335974D01*
X181352026Y-115707259D01*
X180530569Y-115367000D01*
X179641431Y-115367000D01*
X179322000Y-115499313D01*
X179322000Y-74238687D01*
X179641431Y-74371000D01*
X180530569Y-74371000D01*
X181352026Y-74030741D01*
X181980741Y-73402026D01*
X182321000Y-72580569D01*
X182321000Y-71691431D01*
X181980741Y-70869974D01*
X181352026Y-70241259D01*
X180530569Y-69901000D01*
X179641431Y-69901000D01*
X178819974Y-70241259D01*
X178191259Y-70869974D01*
X177851000Y-71691431D01*
X177851000Y-72580569D01*
X178036509Y-73028428D01*
X175502000Y-73028428D01*
X175502000Y-83131857D01*
X174496000Y-83131857D01*
X174496000Y-82449285D01*
X172288480Y-82449285D01*
X172399518Y-82338247D01*
X172640940Y-82238247D01*
X173030547Y-81848640D01*
X173241400Y-81339594D01*
X173241400Y-80788606D01*
X173030547Y-80279560D01*
X172640940Y-79889953D01*
X172131894Y-79679100D01*
X171580906Y-79679100D01*
X171071860Y-79889953D01*
X170682253Y-80279560D01*
X170582253Y-80520982D01*
X165856076Y-85247159D01*
X166014400Y-84864933D01*
X166014400Y-84299067D01*
X165797852Y-83776275D01*
X165397725Y-83376148D01*
X164874933Y-83159600D01*
X164309067Y-83159600D01*
X163786275Y-83376148D01*
X163386148Y-83776275D01*
X163322000Y-83931142D01*
X163257852Y-83776275D01*
X162857725Y-83376148D01*
X162334933Y-83159600D01*
X161769067Y-83159600D01*
X161246275Y-83376148D01*
X160846148Y-83776275D01*
X160782000Y-83931142D01*
X160717852Y-83776275D01*
X160317725Y-83376148D01*
X159794933Y-83159600D01*
X159229067Y-83159600D01*
X158706275Y-83376148D01*
X158306148Y-83776275D01*
X158242000Y-83931142D01*
X158177852Y-83776275D01*
X157777725Y-83376148D01*
X157254933Y-83159600D01*
X156689067Y-83159600D01*
X156166275Y-83376148D01*
X155766148Y-83776275D01*
X155702000Y-83931142D01*
X155637852Y-83776275D01*
X155237725Y-83376148D01*
X154714933Y-83159600D01*
X154149067Y-83159600D01*
X153626275Y-83376148D01*
X153226148Y-83776275D01*
X153162000Y-83931142D01*
X153097852Y-83776275D01*
X152697725Y-83376148D01*
X152174933Y-83159600D01*
X151609067Y-83159600D01*
X151086275Y-83376148D01*
X150686148Y-83776275D01*
X150622000Y-83931142D01*
X150557852Y-83776275D01*
X150157725Y-83376148D01*
X149634933Y-83159600D01*
X149069067Y-83159600D01*
X148546275Y-83376148D01*
X148146148Y-83776275D01*
X148082000Y-83931142D01*
X148017852Y-83776275D01*
X147617725Y-83376148D01*
X147094933Y-83159600D01*
X146529067Y-83159600D01*
X146006275Y-83376148D01*
X145606148Y-83776275D01*
X145542000Y-83931142D01*
X145477852Y-83776275D01*
X145077725Y-83376148D01*
X144554933Y-83159600D01*
X143989067Y-83159600D01*
X143466275Y-83376148D01*
X143066148Y-83776275D01*
X143002000Y-83931142D01*
X142937852Y-83776275D01*
X142537725Y-83376148D01*
X142014933Y-83159600D01*
X141449067Y-83159600D01*
X140926275Y-83376148D01*
X140526148Y-83776275D01*
X140462000Y-83931142D01*
X140397852Y-83776275D01*
X139997725Y-83376148D01*
X139474933Y-83159600D01*
X138909067Y-83159600D01*
X138386275Y-83376148D01*
X137986148Y-83776275D01*
X137922000Y-83931142D01*
X137857852Y-83776275D01*
X137457725Y-83376148D01*
X136934933Y-83159600D01*
X136369067Y-83159600D01*
X135846275Y-83376148D01*
X135446148Y-83776275D01*
X135382000Y-83931142D01*
X135317852Y-83776275D01*
X134917725Y-83376148D01*
X134394933Y-83159600D01*
X133829067Y-83159600D01*
X133306275Y-83376148D01*
X132906148Y-83776275D01*
X132848509Y-83915429D01*
X132815432Y-83835575D01*
X132570617Y-83762989D01*
X131751605Y-84582000D01*
X131392395Y-84582000D01*
X130573383Y-83762989D01*
X130328568Y-83835575D01*
X130297873Y-83921179D01*
X130237852Y-83776275D01*
X130044960Y-83583383D01*
X130752989Y-83583383D01*
X131572000Y-84402395D01*
X132391011Y-83583383D01*
X132318425Y-83338568D01*
X131785765Y-83147574D01*
X131220562Y-83174959D01*
X130825575Y-83338568D01*
X130752989Y-83583383D01*
X130044960Y-83583383D01*
X129837725Y-83376148D01*
X129314933Y-83159600D01*
X128749067Y-83159600D01*
X128226275Y-83376148D01*
X127826148Y-83776275D01*
X127609600Y-84299067D01*
X113062988Y-84299067D01*
X112912389Y-83980866D01*
X112497423Y-83604959D01*
X112109039Y-83444096D01*
X111887000Y-83566085D01*
X111633000Y-83566085D01*
X111410961Y-83444096D01*
X111022577Y-83604959D01*
X110607611Y-83980866D01*
X110368086Y-84486959D01*
X104342000Y-84486959D01*
X104342000Y-82040000D01*
X110044429Y-82040000D01*
X110044429Y-79324000D01*
X110281314Y-79324000D01*
X110245908Y-79502000D01*
X110361161Y-80081418D01*
X110689375Y-80572625D01*
X111180582Y-80900839D01*
X111613744Y-80987000D01*
X111906256Y-80987000D01*
X112339418Y-80900839D01*
X112830625Y-80572625D01*
X113158839Y-80081418D01*
X113257286Y-79586490D01*
X113257286Y-81786000D01*
X118898715Y-81786000D01*
X118898715Y-80314221D01*
X119071375Y-80572625D01*
X119562582Y-80900839D01*
X119995744Y-80987000D01*
X120288256Y-80987000D01*
X120721418Y-80900839D01*
X121212625Y-80572625D01*
X121540839Y-80081418D01*
X121656092Y-79502000D01*
X121540839Y-78922582D01*
X121212625Y-78431375D01*
X121190967Y-78416904D01*
X121351698Y-78350327D01*
X121530327Y-78171699D01*
X121627000Y-77938310D01*
X121627000Y-77247750D01*
X125515000Y-77247750D01*
X125515000Y-77938309D01*
X125611673Y-78171698D01*
X125790301Y-78350327D01*
X126023690Y-78447000D01*
X126714250Y-78447000D01*
X126873000Y-78288250D01*
X126873000Y-77089000D01*
X125673750Y-77089000D01*
X125515000Y-77247750D01*
X121627000Y-77247750D01*
X121468250Y-77089000D01*
X120269000Y-77089000D01*
X120269000Y-77109000D01*
X120015000Y-77109000D01*
X120015000Y-77089000D01*
X119995000Y-77089000D01*
X119995000Y-76835000D01*
X120015000Y-76835000D01*
X120015000Y-75635750D01*
X120269000Y-75635750D01*
X120269000Y-76835000D01*
X121468250Y-76835000D01*
X121627000Y-76676250D01*
X121627000Y-75985690D01*
X121530327Y-75752301D01*
X121351698Y-75573673D01*
X121118309Y-75477000D01*
X120427750Y-75477000D01*
X120269000Y-75635750D01*
X120015000Y-75635750D01*
X119856250Y-75477000D01*
X119165691Y-75477000D01*
X118932302Y-75573673D01*
X118894715Y-75611260D01*
X118894715Y-75172000D01*
X112753286Y-75172000D01*
X112753286Y-75484032D01*
X112736309Y-75477000D01*
X112045750Y-75477000D01*
X111887000Y-75635750D01*
X111887000Y-76835000D01*
X111907000Y-76835000D01*
X111907000Y-77089000D01*
X111887000Y-77089000D01*
X111887000Y-77109000D01*
X111633000Y-77109000D01*
X111633000Y-77089000D01*
X111613000Y-77089000D01*
X111613000Y-76835000D01*
X111633000Y-76835000D01*
X111633000Y-75635750D01*
X111474250Y-75477000D01*
X110783691Y-75477000D01*
X110550302Y-75573673D01*
X110411095Y-75712879D01*
X110411095Y-75354000D01*
X104342000Y-75354000D01*
X104342000Y-71691431D01*
X104953000Y-71691431D01*
X104953000Y-72580569D01*
X105293259Y-73402026D01*
X105921974Y-74030741D01*
X106743431Y-74371000D01*
X107632569Y-74371000D01*
X108454026Y-74030741D01*
X109082741Y-73402026D01*
X109423000Y-72580569D01*
X109423000Y-71691431D01*
X109082741Y-70869974D01*
X108454026Y-70241259D01*
X107632569Y-69901000D01*
X106743431Y-69901000D01*
X105921974Y-70241259D01*
X105293259Y-70869974D01*
X104953000Y-71691431D01*
X104342000Y-71691431D01*
X104342000Y-69775922D01*
X124844456Y-69775922D01*
X124844456Y-75917351D01*
X125543307Y-75917351D01*
X125515000Y-75985691D01*
X125515000Y-76676250D01*
X125673750Y-76835000D01*
X126873000Y-76835000D01*
X126873000Y-76815000D01*
X127127000Y-76815000D01*
X127127000Y-76835000D01*
X127147000Y-76835000D01*
X127147000Y-77089000D01*
X127127000Y-77089000D01*
X127127000Y-78288250D01*
X127285750Y-78447000D01*
X127976310Y-78447000D01*
X128209699Y-78350327D01*
X128388327Y-78171698D01*
X128454904Y-78010967D01*
X128469375Y-78032625D01*
X128960582Y-78360839D01*
X129393744Y-78447000D01*
X129686256Y-78447000D01*
X130119418Y-78360839D01*
X130610625Y-78032625D01*
X130938839Y-77541418D01*
X131054092Y-76962000D01*
X130938839Y-76382582D01*
X130610625Y-75891375D01*
X130120985Y-75564208D01*
X131204456Y-75564208D01*
X131204456Y-70637065D01*
X128664456Y-70637065D01*
X128664456Y-69954494D01*
X137036456Y-69954494D01*
X137036456Y-75738780D01*
X139006631Y-75738780D01*
X138612582Y-75817161D01*
X138121375Y-76145375D01*
X137793161Y-76636582D01*
X137677908Y-77216000D01*
X137793161Y-77795418D01*
X138121375Y-78286625D01*
X138612582Y-78614839D01*
X139045744Y-78701000D01*
X139338256Y-78701000D01*
X139771418Y-78614839D01*
X140262625Y-78286625D01*
X140462000Y-77988239D01*
X140661375Y-78286625D01*
X141152582Y-78614839D01*
X141585744Y-78701000D01*
X141878256Y-78701000D01*
X142311418Y-78614839D01*
X142802625Y-78286625D01*
X143002000Y-77988239D01*
X143201375Y-78286625D01*
X143692582Y-78614839D01*
X144125744Y-78701000D01*
X144418256Y-78701000D01*
X144851418Y-78614839D01*
X145342625Y-78286625D01*
X145542000Y-77988239D01*
X145741375Y-78286625D01*
X146232582Y-78614839D01*
X146665744Y-78701000D01*
X146958256Y-78701000D01*
X147391418Y-78614839D01*
X147882625Y-78286625D01*
X148082000Y-77988239D01*
X148281375Y-78286625D01*
X148772582Y-78614839D01*
X149205744Y-78701000D01*
X149498256Y-78701000D01*
X149931418Y-78614839D01*
X150422625Y-78286625D01*
X150622000Y-77988239D01*
X150821375Y-78286625D01*
X151312582Y-78614839D01*
X151745744Y-78701000D01*
X152038256Y-78701000D01*
X152471418Y-78614839D01*
X152962625Y-78286625D01*
X153162000Y-77988239D01*
X153361375Y-78286625D01*
X153852582Y-78614839D01*
X154285744Y-78701000D01*
X154578256Y-78701000D01*
X155011418Y-78614839D01*
X155502625Y-78286625D01*
X155702000Y-77988239D01*
X155901375Y-78286625D01*
X156392582Y-78614839D01*
X156825744Y-78701000D01*
X157118256Y-78701000D01*
X157551418Y-78614839D01*
X158042625Y-78286625D01*
X158057096Y-78264967D01*
X158123673Y-78425698D01*
X158302301Y-78604327D01*
X158535690Y-78701000D01*
X159226250Y-78701000D01*
X159385000Y-78542250D01*
X159385000Y-77343000D01*
X159639000Y-77343000D01*
X159639000Y-78542250D01*
X159797750Y-78701000D01*
X160488310Y-78701000D01*
X160721699Y-78604327D01*
X160900327Y-78425698D01*
X160997000Y-78192309D01*
X160997000Y-77501750D01*
X160838250Y-77343000D01*
X159639000Y-77343000D01*
X159385000Y-77343000D01*
X159365000Y-77343000D01*
X159365000Y-77089000D01*
X159385000Y-77089000D01*
X159385000Y-77069000D01*
X159639000Y-77069000D01*
X159639000Y-77089000D01*
X160838250Y-77089000D01*
X160997000Y-76930250D01*
X160997000Y-76239691D01*
X160900327Y-76006302D01*
X160811376Y-75917351D01*
X161684456Y-75917351D01*
X161684456Y-69775922D01*
X157864456Y-69775922D01*
X157864456Y-69954494D01*
X137036456Y-69954494D01*
X128664456Y-69954494D01*
X128664456Y-69775922D01*
X124844456Y-69775922D01*
X104342000Y-69775922D01*
X104342000Y-69290000D01*
X182932001Y-69290000D01*
X182932000Y-120194000D01*
G04 #@! TD*
M02*
