G04 #@! TF.GenerationSoftware,KiCad,Pcbnew,5.0.0-fee4fd1~66~ubuntu18.04.1*
G04 #@! TF.CreationDate,2018-09-19T00:34:01+01:00*
G04 #@! TF.ProjectId,ArduBoard,41726475426F6172642E6B696361645F,rev?*
G04 #@! TF.SameCoordinates,Original*
G04 #@! TF.FileFunction,Copper,L2,Bot,Signal*
G04 #@! TF.FilePolarity,Positive*
%FSLAX46Y46*%
G04 Gerber Fmt 4.6, Leading zero omitted, Abs format (unit mm)*
G04 Created by KiCad (PCBNEW 5.0.0-fee4fd1~66~ubuntu18.04.1) date Wed Sep 19 00:34:01 2018*
%MOMM*%
%LPD*%
G01*
G04 APERTURE LIST*
G04 #@! TA.AperFunction,ComponentPad*
%ADD10C,1.574800*%
G04 #@! TD*
G04 #@! TA.AperFunction,ComponentPad*
%ADD11R,1.800000X1.800000*%
G04 #@! TD*
G04 #@! TA.AperFunction,ComponentPad*
%ADD12C,1.800000*%
G04 #@! TD*
G04 #@! TA.AperFunction,ComponentPad*
%ADD13R,1.700000X1.700000*%
G04 #@! TD*
G04 #@! TA.AperFunction,ComponentPad*
%ADD14O,1.700000X1.700000*%
G04 #@! TD*
G04 #@! TA.AperFunction,ComponentPad*
%ADD15R,1.905000X2.000000*%
G04 #@! TD*
G04 #@! TA.AperFunction,ComponentPad*
%ADD16O,1.905000X2.000000*%
G04 #@! TD*
G04 #@! TA.AperFunction,ComponentPad*
%ADD17R,2.500000X4.500000*%
G04 #@! TD*
G04 #@! TA.AperFunction,ComponentPad*
%ADD18O,2.500000X4.500000*%
G04 #@! TD*
G04 #@! TA.AperFunction,ComponentPad*
%ADD19C,1.600000*%
G04 #@! TD*
G04 #@! TA.AperFunction,ComponentPad*
%ADD20O,1.600000X1.600000*%
G04 #@! TD*
G04 #@! TA.AperFunction,ViaPad*
%ADD21C,1.500000*%
G04 #@! TD*
G04 #@! TA.AperFunction,Conductor*
%ADD22C,1.300000*%
G04 #@! TD*
G04 #@! TA.AperFunction,Conductor*
%ADD23C,0.254000*%
G04 #@! TD*
G04 APERTURE END LIST*
D10*
G04 #@! TO.P,A1,30*
G04 #@! TO.N,Net-(A1-Pad30)*
X129032000Y-84582000D03*
G04 #@! TO.P,A1,1*
G04 #@! TO.N,D1*
X129032000Y-99822000D03*
G04 #@! TO.P,A1,29*
G04 #@! TO.N,GND*
X131572000Y-84582000D03*
G04 #@! TO.P,A1,2*
G04 #@! TO.N,D0*
X131572000Y-99822000D03*
G04 #@! TO.P,A1,28*
G04 #@! TO.N,N/C*
X134112000Y-84582000D03*
G04 #@! TO.P,A1,3*
X134112000Y-99822000D03*
G04 #@! TO.P,A1,27*
G04 #@! TO.N,5V*
X136652000Y-84582000D03*
G04 #@! TO.P,A1,4*
G04 #@! TO.N,GND*
X136652000Y-99822000D03*
G04 #@! TO.P,A1,26*
G04 #@! TO.N,AD7*
X139192000Y-84582000D03*
G04 #@! TO.P,A1,5*
G04 #@! TO.N,D2*
X139192000Y-99822000D03*
G04 #@! TO.P,A1,25*
G04 #@! TO.N,AD6*
X141732000Y-84582000D03*
G04 #@! TO.P,A1,6*
G04 #@! TO.N,D3*
X141732000Y-99822000D03*
G04 #@! TO.P,A1,24*
G04 #@! TO.N,AD5*
X144272000Y-84582000D03*
G04 #@! TO.P,A1,7*
G04 #@! TO.N,D4*
X144272000Y-99822000D03*
G04 #@! TO.P,A1,23*
G04 #@! TO.N,AD4*
X146812000Y-84582000D03*
G04 #@! TO.P,A1,8*
G04 #@! TO.N,D5*
X146812000Y-99822000D03*
G04 #@! TO.P,A1,22*
G04 #@! TO.N,AD3*
X149352000Y-84582000D03*
G04 #@! TO.P,A1,9*
G04 #@! TO.N,D6*
X149352000Y-99822000D03*
G04 #@! TO.P,A1,21*
G04 #@! TO.N,AD2*
X151892000Y-84582000D03*
G04 #@! TO.P,A1,10*
G04 #@! TO.N,D7*
X151892000Y-99822000D03*
G04 #@! TO.P,A1,20*
G04 #@! TO.N,AD1*
X154432000Y-84582000D03*
G04 #@! TO.P,A1,11*
G04 #@! TO.N,D8*
X154432000Y-99822000D03*
G04 #@! TO.P,A1,19*
G04 #@! TO.N,AD0*
X156972000Y-84582000D03*
G04 #@! TO.P,A1,12*
G04 #@! TO.N,D9*
X156972000Y-99822000D03*
G04 #@! TO.P,A1,18*
G04 #@! TO.N,Net-(A1-Pad18)*
X159512000Y-84582000D03*
G04 #@! TO.P,A1,13*
G04 #@! TO.N,D10*
X159512000Y-99822000D03*
G04 #@! TO.P,A1,17*
G04 #@! TO.N,Net-(A1-Pad17)*
X162052000Y-84582000D03*
G04 #@! TO.P,A1,14*
G04 #@! TO.N,D11*
X162052000Y-99822000D03*
G04 #@! TO.P,A1,16*
G04 #@! TO.N,D13*
X164592000Y-84582000D03*
G04 #@! TO.P,A1,15*
G04 #@! TO.N,D12*
X164592000Y-99822000D03*
G04 #@! TD*
D11*
G04 #@! TO.P,D1,1*
G04 #@! TO.N,GND*
X136652000Y-114300000D03*
D12*
G04 #@! TO.P,D1,2*
G04 #@! TO.N,D2*
X139192000Y-114300000D03*
G04 #@! TD*
D13*
G04 #@! TO.P,J3,1*
G04 #@! TO.N,GND*
X127000000Y-76962000D03*
D14*
G04 #@! TO.P,J3,2*
G04 #@! TO.N,Net-(A1-Pad30)*
X129540000Y-76962000D03*
G04 #@! TD*
D13*
G04 #@! TO.P,J6,1*
G04 #@! TO.N,GND*
X111760000Y-76962000D03*
D14*
G04 #@! TO.P,J6,2*
G04 #@! TO.N,36V*
X111760000Y-79502000D03*
G04 #@! TD*
G04 #@! TO.P,J7,2*
G04 #@! TO.N,36V*
X120142000Y-79502000D03*
D13*
G04 #@! TO.P,J7,1*
G04 #@! TO.N,GND*
X120142000Y-76962000D03*
G04 #@! TD*
D15*
G04 #@! TO.P,Q1,1*
G04 #@! TO.N,D2*
X119888000Y-115062000D03*
D16*
G04 #@! TO.P,Q1,2*
G04 #@! TO.N,5V*
X117348000Y-115062000D03*
G04 #@! TO.P,Q1,3*
G04 #@! TO.N,CONTROL*
X114808000Y-115062000D03*
G04 #@! TD*
D17*
G04 #@! TO.P,Q2,1*
G04 #@! TO.N,CONTROL*
X108988000Y-105918000D03*
D18*
G04 #@! TO.P,Q2,2*
G04 #@! TO.N,36V*
X114438000Y-105918000D03*
G04 #@! TO.P,Q2,3*
G04 #@! TO.N,GND*
X119888000Y-105918000D03*
G04 #@! TD*
D19*
G04 #@! TO.P,R1,1*
G04 #@! TO.N,CONTROL*
X111760000Y-100076000D03*
D20*
G04 #@! TO.P,R1,2*
G04 #@! TO.N,GND*
X111760000Y-84836000D03*
G04 #@! TD*
D13*
G04 #@! TO.P,J1,1*
G04 #@! TO.N,GND*
X120904000Y-87376000D03*
D14*
G04 #@! TO.P,J1,2*
G04 #@! TO.N,5V*
X120904000Y-89916000D03*
G04 #@! TO.P,J1,3*
G04 #@! TO.N,Net-(A1-Pad17)*
X120904000Y-92456000D03*
G04 #@! TO.P,J1,4*
G04 #@! TO.N,Net-(A1-Pad18)*
X120904000Y-94996000D03*
G04 #@! TD*
D13*
G04 #@! TO.P,J2,1*
G04 #@! TO.N,GND*
X136652000Y-105410000D03*
D14*
G04 #@! TO.P,J2,2*
G04 #@! TO.N,D2*
X139192000Y-105410000D03*
G04 #@! TO.P,J2,3*
G04 #@! TO.N,D3*
X141732000Y-105410000D03*
G04 #@! TO.P,J2,4*
G04 #@! TO.N,D4*
X144272000Y-105410000D03*
G04 #@! TO.P,J2,5*
G04 #@! TO.N,D5*
X146812000Y-105410000D03*
G04 #@! TO.P,J2,6*
G04 #@! TO.N,D6*
X149352000Y-105410000D03*
G04 #@! TO.P,J2,7*
G04 #@! TO.N,D7*
X151892000Y-105410000D03*
G04 #@! TO.P,J2,8*
G04 #@! TO.N,D8*
X154432000Y-105410000D03*
G04 #@! TO.P,J2,9*
G04 #@! TO.N,D9*
X156972000Y-105410000D03*
G04 #@! TO.P,J2,10*
G04 #@! TO.N,D10*
X159512000Y-105410000D03*
G04 #@! TO.P,J2,11*
G04 #@! TO.N,D11*
X162052000Y-105410000D03*
G04 #@! TO.P,J2,12*
G04 #@! TO.N,D12*
X164592000Y-105410000D03*
G04 #@! TO.P,J2,13*
G04 #@! TO.N,D13*
X167132000Y-105410000D03*
G04 #@! TD*
D13*
G04 #@! TO.P,J4,1*
G04 #@! TO.N,GND*
X159512000Y-77216000D03*
D14*
G04 #@! TO.P,J4,2*
G04 #@! TO.N,AD0*
X156972000Y-77216000D03*
G04 #@! TO.P,J4,3*
G04 #@! TO.N,AD1*
X154432000Y-77216000D03*
G04 #@! TO.P,J4,4*
G04 #@! TO.N,AD2*
X151892000Y-77216000D03*
G04 #@! TO.P,J4,5*
G04 #@! TO.N,AD3*
X149352000Y-77216000D03*
G04 #@! TO.P,J4,6*
G04 #@! TO.N,AD4*
X146812000Y-77216000D03*
G04 #@! TO.P,J4,7*
G04 #@! TO.N,AD5*
X144272000Y-77216000D03*
G04 #@! TO.P,J4,8*
G04 #@! TO.N,AD6*
X141732000Y-77216000D03*
G04 #@! TO.P,J4,9*
G04 #@! TO.N,AD7*
X139192000Y-77216000D03*
G04 #@! TD*
D13*
G04 #@! TO.P,J5,1*
G04 #@! TO.N,GND*
X126492000Y-105410000D03*
D14*
G04 #@! TO.P,J5,2*
G04 #@! TO.N,D1*
X129032000Y-105410000D03*
G04 #@! TO.P,J5,3*
G04 #@! TO.N,D0*
X131572000Y-105410000D03*
G04 #@! TD*
D21*
G04 #@! TO.N,Net-(A1-Pad17)*
X151523700Y-88455500D03*
X171856400Y-81064100D03*
G04 #@! TD*
D22*
G04 #@! TO.N,Net-(A1-Pad17)*
X120904000Y-92456000D02*
X147523200Y-92456000D01*
X147523200Y-92456000D02*
X151523700Y-88455500D01*
X171856400Y-81064100D02*
X162966400Y-81064100D01*
X162052000Y-81978500D02*
X162052000Y-84582000D01*
X162966400Y-81064100D02*
X162052000Y-81978500D01*
G04 #@! TO.N,Net-(A1-Pad18)*
X120904000Y-94996000D02*
X154190700Y-94996000D01*
X159512000Y-89674700D02*
X159512000Y-84582000D01*
X154190700Y-94996000D02*
X159512000Y-89674700D01*
G04 #@! TO.N,D1*
X129032000Y-99822000D02*
X129032000Y-105410000D01*
G04 #@! TO.N,D0*
X131572000Y-105410000D02*
X131572000Y-99822000D01*
G04 #@! TO.N,D2*
X119888000Y-115062000D02*
X129844800Y-115062000D01*
X129844800Y-115062000D02*
X132829300Y-118046500D01*
X139192000Y-115572792D02*
X139192000Y-114300000D01*
X136718292Y-118046500D02*
X139192000Y-115572792D01*
X132829300Y-118046500D02*
X136718292Y-118046500D01*
X139192000Y-105410000D02*
X139192000Y-114300000D01*
X139192000Y-99822000D02*
X139192000Y-105410000D01*
G04 #@! TO.N,D3*
X141732000Y-105410000D02*
X141732000Y-99822000D01*
G04 #@! TO.N,D4*
X144272000Y-99822000D02*
X144272000Y-105410000D01*
G04 #@! TO.N,D5*
X146812000Y-105410000D02*
X146812000Y-99822000D01*
G04 #@! TO.N,D6*
X149352000Y-105410000D02*
X149352000Y-99822000D01*
G04 #@! TO.N,D7*
X151892000Y-99822000D02*
X151892000Y-105410000D01*
G04 #@! TO.N,D8*
X154432000Y-105410000D02*
X154432000Y-99822000D01*
G04 #@! TO.N,D9*
X156972000Y-99822000D02*
X156972000Y-105410000D01*
G04 #@! TO.N,D10*
X159512000Y-105410000D02*
X159512000Y-99822000D01*
G04 #@! TO.N,D11*
X162052000Y-105410000D02*
X162052000Y-99822000D01*
G04 #@! TO.N,D12*
X164592000Y-99822000D02*
X164592000Y-105410000D01*
G04 #@! TO.N,D13*
X165379399Y-85369399D02*
X165379399Y-90398599D01*
X164592000Y-84582000D02*
X165379399Y-85369399D01*
X167132000Y-92151200D02*
X167132000Y-105410000D01*
X165379399Y-90398599D02*
X167132000Y-92151200D01*
G04 #@! TO.N,AD0*
X156972000Y-84582000D02*
X156972000Y-77216000D01*
G04 #@! TO.N,AD1*
X154432000Y-77216000D02*
X154432000Y-84582000D01*
G04 #@! TO.N,AD2*
X151892000Y-84582000D02*
X151892000Y-77216000D01*
G04 #@! TO.N,AD3*
X149352000Y-77216000D02*
X149352000Y-84582000D01*
G04 #@! TO.N,AD4*
X146812000Y-84582000D02*
X146812000Y-77216000D01*
G04 #@! TO.N,AD5*
X144272000Y-77216000D02*
X144272000Y-84582000D01*
G04 #@! TO.N,AD6*
X141732000Y-84582000D02*
X141732000Y-77216000D01*
G04 #@! TO.N,AD7*
X139192000Y-77216000D02*
X139192000Y-84582000D01*
G04 #@! TO.N,Net-(A1-Pad30)*
X129540000Y-84074000D02*
X129032000Y-84582000D01*
X129540000Y-76962000D02*
X129540000Y-84074000D01*
G04 #@! TO.N,36V*
X111760000Y-79502000D02*
X120142000Y-79502000D01*
X114438000Y-83382081D02*
X114438000Y-102368000D01*
X114438000Y-102368000D02*
X114438000Y-105918000D01*
X111760000Y-80704081D02*
X114438000Y-83382081D01*
X111760000Y-79502000D02*
X111760000Y-80704081D01*
G04 #@! TO.N,5V*
X122106081Y-89916000D02*
X122118781Y-89903300D01*
X120904000Y-89916000D02*
X122106081Y-89916000D01*
X136652000Y-84582000D02*
X136652000Y-88163400D01*
X134899400Y-89916000D02*
X120904000Y-89916000D01*
X136652000Y-88163400D02*
X134899400Y-89916000D01*
X117348000Y-90830400D02*
X117348000Y-115062000D01*
X120904000Y-89916000D02*
X118262400Y-89916000D01*
X118262400Y-89916000D02*
X117348000Y-90830400D01*
G04 #@! TO.N,CONTROL*
X111760000Y-103146000D02*
X108988000Y-105918000D01*
X111760000Y-100076000D02*
X111760000Y-103146000D01*
X108988000Y-109242000D02*
X114808000Y-115062000D01*
X108988000Y-105918000D02*
X108988000Y-109242000D01*
G04 #@! TD*
D23*
G04 #@! TO.N,GND*
G36*
X182932000Y-120194000D02*
X104342000Y-120194000D01*
X104342000Y-116903431D01*
X104953000Y-116903431D01*
X104953000Y-117792569D01*
X105293259Y-118614026D01*
X105921974Y-119242741D01*
X106743431Y-119583000D01*
X107632569Y-119583000D01*
X108454026Y-119242741D01*
X109082741Y-118614026D01*
X109423000Y-117792569D01*
X109423000Y-116903431D01*
X109082741Y-116081974D01*
X108454026Y-115453259D01*
X107632569Y-115113000D01*
X106743431Y-115113000D01*
X105921974Y-115453259D01*
X105293259Y-116081974D01*
X104953000Y-116903431D01*
X104342000Y-116903431D01*
X104342000Y-103668000D01*
X107090560Y-103668000D01*
X107090560Y-108168000D01*
X107139843Y-108415765D01*
X107280191Y-108625809D01*
X107490235Y-108766157D01*
X107703001Y-108808478D01*
X107703001Y-109115437D01*
X107677826Y-109242000D01*
X107777557Y-109743381D01*
X107777558Y-109743382D01*
X108061568Y-110168433D01*
X108168858Y-110240122D01*
X113226935Y-115298200D01*
X113312609Y-115728910D01*
X113663477Y-116254023D01*
X114188589Y-116604891D01*
X114808000Y-116728100D01*
X115427410Y-116604891D01*
X115952523Y-116254023D01*
X116078000Y-116066233D01*
X116203477Y-116254023D01*
X116728589Y-116604891D01*
X117348000Y-116728100D01*
X117967410Y-116604891D01*
X118359491Y-116342912D01*
X118477691Y-116519809D01*
X118687735Y-116660157D01*
X118935500Y-116709440D01*
X120840500Y-116709440D01*
X121088265Y-116660157D01*
X121298309Y-116519809D01*
X121413777Y-116347000D01*
X129312536Y-116347000D01*
X131831176Y-118865640D01*
X131902867Y-118972933D01*
X132327918Y-119256943D01*
X132702742Y-119331500D01*
X132702746Y-119331500D01*
X132829299Y-119356673D01*
X132955852Y-119331500D01*
X136591734Y-119331500D01*
X136718292Y-119356674D01*
X136844850Y-119331500D01*
X137219674Y-119256943D01*
X137644725Y-118972933D01*
X137716416Y-118865640D01*
X139424625Y-117157431D01*
X177851000Y-117157431D01*
X177851000Y-118046569D01*
X178191259Y-118868026D01*
X178819974Y-119496741D01*
X179641431Y-119837000D01*
X180530569Y-119837000D01*
X181352026Y-119496741D01*
X181980741Y-118868026D01*
X182321000Y-118046569D01*
X182321000Y-117157431D01*
X181980741Y-116335974D01*
X181352026Y-115707259D01*
X180530569Y-115367000D01*
X179641431Y-115367000D01*
X178819974Y-115707259D01*
X178191259Y-116335974D01*
X177851000Y-117157431D01*
X139424625Y-117157431D01*
X140011141Y-116570915D01*
X140118433Y-116499225D01*
X140402443Y-116074174D01*
X140477000Y-115699350D01*
X140477000Y-115699346D01*
X140502173Y-115572793D01*
X140477000Y-115446240D01*
X140477000Y-115185817D01*
X140493310Y-115169507D01*
X140727000Y-114605330D01*
X140727000Y-113994670D01*
X140493310Y-113430493D01*
X140477000Y-113414183D01*
X140477000Y-106204688D01*
X140661375Y-106480625D01*
X141152582Y-106808839D01*
X141585744Y-106895000D01*
X141878256Y-106895000D01*
X142311418Y-106808839D01*
X142802625Y-106480625D01*
X143002000Y-106182239D01*
X143201375Y-106480625D01*
X143692582Y-106808839D01*
X144125744Y-106895000D01*
X144418256Y-106895000D01*
X144851418Y-106808839D01*
X145342625Y-106480625D01*
X145542000Y-106182239D01*
X145741375Y-106480625D01*
X146232582Y-106808839D01*
X146665744Y-106895000D01*
X146958256Y-106895000D01*
X147391418Y-106808839D01*
X147882625Y-106480625D01*
X148082000Y-106182239D01*
X148281375Y-106480625D01*
X148772582Y-106808839D01*
X149205744Y-106895000D01*
X149498256Y-106895000D01*
X149931418Y-106808839D01*
X150422625Y-106480625D01*
X150622000Y-106182239D01*
X150821375Y-106480625D01*
X151312582Y-106808839D01*
X151745744Y-106895000D01*
X152038256Y-106895000D01*
X152471418Y-106808839D01*
X152962625Y-106480625D01*
X153162000Y-106182239D01*
X153361375Y-106480625D01*
X153852582Y-106808839D01*
X154285744Y-106895000D01*
X154578256Y-106895000D01*
X155011418Y-106808839D01*
X155502625Y-106480625D01*
X155702000Y-106182239D01*
X155901375Y-106480625D01*
X156392582Y-106808839D01*
X156825744Y-106895000D01*
X157118256Y-106895000D01*
X157551418Y-106808839D01*
X158042625Y-106480625D01*
X158242000Y-106182239D01*
X158441375Y-106480625D01*
X158932582Y-106808839D01*
X159365744Y-106895000D01*
X159658256Y-106895000D01*
X160091418Y-106808839D01*
X160582625Y-106480625D01*
X160782000Y-106182239D01*
X160981375Y-106480625D01*
X161472582Y-106808839D01*
X161905744Y-106895000D01*
X162198256Y-106895000D01*
X162631418Y-106808839D01*
X163122625Y-106480625D01*
X163322000Y-106182239D01*
X163521375Y-106480625D01*
X164012582Y-106808839D01*
X164445744Y-106895000D01*
X164738256Y-106895000D01*
X165171418Y-106808839D01*
X165662625Y-106480625D01*
X165862000Y-106182239D01*
X166061375Y-106480625D01*
X166552582Y-106808839D01*
X166985744Y-106895000D01*
X167278256Y-106895000D01*
X167711418Y-106808839D01*
X168202625Y-106480625D01*
X168530839Y-105989418D01*
X168646092Y-105410000D01*
X168530839Y-104830582D01*
X168417000Y-104660210D01*
X168417000Y-92277756D01*
X168442174Y-92151199D01*
X168417000Y-92024642D01*
X168342443Y-91649818D01*
X168058433Y-91224767D01*
X167951144Y-91153079D01*
X166664399Y-89866335D01*
X166664399Y-85495951D01*
X166689572Y-85369398D01*
X166664399Y-85242845D01*
X166664399Y-85242841D01*
X166589842Y-84868017D01*
X166305832Y-84442966D01*
X166198537Y-84371274D01*
X165935253Y-84107989D01*
X165797852Y-83776275D01*
X165397725Y-83376148D01*
X164874933Y-83159600D01*
X164309067Y-83159600D01*
X163786275Y-83376148D01*
X163386148Y-83776275D01*
X163337000Y-83894929D01*
X163337000Y-82510764D01*
X163498665Y-82349100D01*
X171339484Y-82349100D01*
X171580906Y-82449100D01*
X172131894Y-82449100D01*
X172640940Y-82238247D01*
X173030547Y-81848640D01*
X173241400Y-81339594D01*
X173241400Y-80788606D01*
X173030547Y-80279560D01*
X172640940Y-79889953D01*
X172131894Y-79679100D01*
X171580906Y-79679100D01*
X171339484Y-79779100D01*
X163092958Y-79779100D01*
X162966400Y-79753926D01*
X162839842Y-79779100D01*
X162465018Y-79853657D01*
X162039967Y-80137667D01*
X161968278Y-80244957D01*
X161232859Y-80980377D01*
X161125567Y-81052067D01*
X160933448Y-81339594D01*
X160841557Y-81477119D01*
X160741826Y-81978500D01*
X160767000Y-82105059D01*
X160767001Y-83894929D01*
X160717852Y-83776275D01*
X160317725Y-83376148D01*
X159794933Y-83159600D01*
X159229067Y-83159600D01*
X158706275Y-83376148D01*
X158306148Y-83776275D01*
X158257000Y-83894929D01*
X158257000Y-78559026D01*
X158302301Y-78604327D01*
X158535690Y-78701000D01*
X159226250Y-78701000D01*
X159385000Y-78542250D01*
X159385000Y-77343000D01*
X159639000Y-77343000D01*
X159639000Y-78542250D01*
X159797750Y-78701000D01*
X160488310Y-78701000D01*
X160721699Y-78604327D01*
X160900327Y-78425698D01*
X160997000Y-78192309D01*
X160997000Y-77501750D01*
X160838250Y-77343000D01*
X159639000Y-77343000D01*
X159385000Y-77343000D01*
X159365000Y-77343000D01*
X159365000Y-77089000D01*
X159385000Y-77089000D01*
X159385000Y-75889750D01*
X159639000Y-75889750D01*
X159639000Y-77089000D01*
X160838250Y-77089000D01*
X160997000Y-76930250D01*
X160997000Y-76239691D01*
X160900327Y-76006302D01*
X160721699Y-75827673D01*
X160488310Y-75731000D01*
X159797750Y-75731000D01*
X159639000Y-75889750D01*
X159385000Y-75889750D01*
X159226250Y-75731000D01*
X158535690Y-75731000D01*
X158302301Y-75827673D01*
X158123673Y-76006302D01*
X158057096Y-76167033D01*
X158042625Y-76145375D01*
X157551418Y-75817161D01*
X157118256Y-75731000D01*
X156825744Y-75731000D01*
X156392582Y-75817161D01*
X155901375Y-76145375D01*
X155702000Y-76443761D01*
X155502625Y-76145375D01*
X155011418Y-75817161D01*
X154578256Y-75731000D01*
X154285744Y-75731000D01*
X153852582Y-75817161D01*
X153361375Y-76145375D01*
X153162000Y-76443761D01*
X152962625Y-76145375D01*
X152471418Y-75817161D01*
X152038256Y-75731000D01*
X151745744Y-75731000D01*
X151312582Y-75817161D01*
X150821375Y-76145375D01*
X150622000Y-76443761D01*
X150422625Y-76145375D01*
X149931418Y-75817161D01*
X149498256Y-75731000D01*
X149205744Y-75731000D01*
X148772582Y-75817161D01*
X148281375Y-76145375D01*
X148082000Y-76443761D01*
X147882625Y-76145375D01*
X147391418Y-75817161D01*
X146958256Y-75731000D01*
X146665744Y-75731000D01*
X146232582Y-75817161D01*
X145741375Y-76145375D01*
X145542000Y-76443761D01*
X145342625Y-76145375D01*
X144851418Y-75817161D01*
X144418256Y-75731000D01*
X144125744Y-75731000D01*
X143692582Y-75817161D01*
X143201375Y-76145375D01*
X143002000Y-76443761D01*
X142802625Y-76145375D01*
X142311418Y-75817161D01*
X141878256Y-75731000D01*
X141585744Y-75731000D01*
X141152582Y-75817161D01*
X140661375Y-76145375D01*
X140462000Y-76443761D01*
X140262625Y-76145375D01*
X139771418Y-75817161D01*
X139338256Y-75731000D01*
X139045744Y-75731000D01*
X138612582Y-75817161D01*
X138121375Y-76145375D01*
X137793161Y-76636582D01*
X137677908Y-77216000D01*
X137793161Y-77795418D01*
X137907000Y-77965790D01*
X137907001Y-83894929D01*
X137857852Y-83776275D01*
X137457725Y-83376148D01*
X136934933Y-83159600D01*
X136369067Y-83159600D01*
X135846275Y-83376148D01*
X135446148Y-83776275D01*
X135382000Y-83931142D01*
X135317852Y-83776275D01*
X134917725Y-83376148D01*
X134394933Y-83159600D01*
X133829067Y-83159600D01*
X133306275Y-83376148D01*
X132906148Y-83776275D01*
X132848509Y-83915429D01*
X132815432Y-83835575D01*
X132570617Y-83762989D01*
X131751605Y-84582000D01*
X132570617Y-85401011D01*
X132815432Y-85328425D01*
X132846127Y-85242821D01*
X132906148Y-85387725D01*
X133306275Y-85787852D01*
X133829067Y-86004400D01*
X134394933Y-86004400D01*
X134917725Y-85787852D01*
X135317852Y-85387725D01*
X135367000Y-85269071D01*
X135367001Y-87631135D01*
X134367136Y-88631000D01*
X122309187Y-88631000D01*
X122257339Y-88620687D01*
X122292327Y-88585699D01*
X122389000Y-88352310D01*
X122389000Y-87661750D01*
X122230250Y-87503000D01*
X121031000Y-87503000D01*
X121031000Y-87523000D01*
X120777000Y-87523000D01*
X120777000Y-87503000D01*
X119577750Y-87503000D01*
X119419000Y-87661750D01*
X119419000Y-88352310D01*
X119515673Y-88585699D01*
X119560974Y-88631000D01*
X118388958Y-88631000D01*
X118262400Y-88605826D01*
X117761018Y-88705557D01*
X117551766Y-88845375D01*
X117335967Y-88989567D01*
X117264278Y-89096857D01*
X116528859Y-89832277D01*
X116421567Y-89903967D01*
X116349878Y-90011258D01*
X116137557Y-90329019D01*
X116037826Y-90830400D01*
X116063000Y-90956958D01*
X116063001Y-103957076D01*
X115797009Y-103558991D01*
X115723000Y-103509540D01*
X115723000Y-86399690D01*
X119419000Y-86399690D01*
X119419000Y-87090250D01*
X119577750Y-87249000D01*
X120777000Y-87249000D01*
X120777000Y-86049750D01*
X121031000Y-86049750D01*
X121031000Y-87249000D01*
X122230250Y-87249000D01*
X122389000Y-87090250D01*
X122389000Y-86399690D01*
X122292327Y-86166301D01*
X122113698Y-85987673D01*
X121880309Y-85891000D01*
X121189750Y-85891000D01*
X121031000Y-86049750D01*
X120777000Y-86049750D01*
X120618250Y-85891000D01*
X119927691Y-85891000D01*
X119694302Y-85987673D01*
X119515673Y-86166301D01*
X119419000Y-86399690D01*
X115723000Y-86399690D01*
X115723000Y-83508639D01*
X115748174Y-83382081D01*
X115648443Y-82880699D01*
X115436122Y-82562938D01*
X115364433Y-82455648D01*
X115257144Y-82383960D01*
X113660183Y-80787000D01*
X119392210Y-80787000D01*
X119562582Y-80900839D01*
X119995744Y-80987000D01*
X120288256Y-80987000D01*
X120721418Y-80900839D01*
X121212625Y-80572625D01*
X121540839Y-80081418D01*
X121656092Y-79502000D01*
X121540839Y-78922582D01*
X121212625Y-78431375D01*
X121190967Y-78416904D01*
X121351698Y-78350327D01*
X121530327Y-78171699D01*
X121627000Y-77938310D01*
X121627000Y-77247750D01*
X125515000Y-77247750D01*
X125515000Y-77938309D01*
X125611673Y-78171698D01*
X125790301Y-78350327D01*
X126023690Y-78447000D01*
X126714250Y-78447000D01*
X126873000Y-78288250D01*
X126873000Y-77089000D01*
X125673750Y-77089000D01*
X125515000Y-77247750D01*
X121627000Y-77247750D01*
X121468250Y-77089000D01*
X120269000Y-77089000D01*
X120269000Y-77109000D01*
X120015000Y-77109000D01*
X120015000Y-77089000D01*
X118815750Y-77089000D01*
X118657000Y-77247750D01*
X118657000Y-77938310D01*
X118753673Y-78171699D01*
X118798974Y-78217000D01*
X113103026Y-78217000D01*
X113148327Y-78171699D01*
X113245000Y-77938310D01*
X113245000Y-77247750D01*
X113086250Y-77089000D01*
X111887000Y-77089000D01*
X111887000Y-77109000D01*
X111633000Y-77109000D01*
X111633000Y-77089000D01*
X110433750Y-77089000D01*
X110275000Y-77247750D01*
X110275000Y-77938310D01*
X110371673Y-78171699D01*
X110550302Y-78350327D01*
X110711033Y-78416904D01*
X110689375Y-78431375D01*
X110361161Y-78922582D01*
X110245908Y-79502000D01*
X110361161Y-80081418D01*
X110475000Y-80251790D01*
X110475000Y-80577523D01*
X110449826Y-80704081D01*
X110475000Y-80830639D01*
X110549557Y-81205463D01*
X110833568Y-81630514D01*
X110940857Y-81702203D01*
X113153000Y-83914346D01*
X113153000Y-84708998D01*
X113030630Y-84708998D01*
X113151914Y-84486959D01*
X112912389Y-83980866D01*
X112497423Y-83604959D01*
X112109039Y-83444096D01*
X111887000Y-83566085D01*
X111887000Y-84709000D01*
X111907000Y-84709000D01*
X111907000Y-84963000D01*
X111887000Y-84963000D01*
X111887000Y-86105915D01*
X112109039Y-86227904D01*
X112497423Y-86067041D01*
X112912389Y-85691134D01*
X113151914Y-85185041D01*
X113030630Y-84963002D01*
X113153000Y-84963002D01*
X113153001Y-99689166D01*
X112976534Y-99263138D01*
X112572862Y-98859466D01*
X112045439Y-98641000D01*
X111474561Y-98641000D01*
X110947138Y-98859466D01*
X110543466Y-99263138D01*
X110325000Y-99790561D01*
X110325000Y-100361439D01*
X110475000Y-100723571D01*
X110475001Y-102613734D01*
X110068175Y-103020560D01*
X107738000Y-103020560D01*
X107490235Y-103069843D01*
X107280191Y-103210191D01*
X107139843Y-103420235D01*
X107090560Y-103668000D01*
X104342000Y-103668000D01*
X104342000Y-85185041D01*
X110368086Y-85185041D01*
X110607611Y-85691134D01*
X111022577Y-86067041D01*
X111410961Y-86227904D01*
X111633000Y-86105915D01*
X111633000Y-84963000D01*
X110489371Y-84963000D01*
X110368086Y-85185041D01*
X104342000Y-85185041D01*
X104342000Y-84486959D01*
X110368086Y-84486959D01*
X110489371Y-84709000D01*
X111633000Y-84709000D01*
X111633000Y-83566085D01*
X111410961Y-83444096D01*
X111022577Y-83604959D01*
X110607611Y-83980866D01*
X110368086Y-84486959D01*
X104342000Y-84486959D01*
X104342000Y-75985690D01*
X110275000Y-75985690D01*
X110275000Y-76676250D01*
X110433750Y-76835000D01*
X111633000Y-76835000D01*
X111633000Y-75635750D01*
X111887000Y-75635750D01*
X111887000Y-76835000D01*
X113086250Y-76835000D01*
X113245000Y-76676250D01*
X113245000Y-75985690D01*
X118657000Y-75985690D01*
X118657000Y-76676250D01*
X118815750Y-76835000D01*
X120015000Y-76835000D01*
X120015000Y-75635750D01*
X120269000Y-75635750D01*
X120269000Y-76835000D01*
X121468250Y-76835000D01*
X121627000Y-76676250D01*
X121627000Y-75985691D01*
X125515000Y-75985691D01*
X125515000Y-76676250D01*
X125673750Y-76835000D01*
X126873000Y-76835000D01*
X126873000Y-75635750D01*
X127127000Y-75635750D01*
X127127000Y-76835000D01*
X127147000Y-76835000D01*
X127147000Y-77089000D01*
X127127000Y-77089000D01*
X127127000Y-78288250D01*
X127285750Y-78447000D01*
X127976310Y-78447000D01*
X128209699Y-78350327D01*
X128255000Y-78305026D01*
X128255001Y-83364249D01*
X128226275Y-83376148D01*
X127826148Y-83776275D01*
X127609600Y-84299067D01*
X127609600Y-84864933D01*
X127826148Y-85387725D01*
X128226275Y-85787852D01*
X128749067Y-86004400D01*
X129314933Y-86004400D01*
X129837725Y-85787852D01*
X130044960Y-85580617D01*
X130752989Y-85580617D01*
X130825575Y-85825432D01*
X131358235Y-86016426D01*
X131923438Y-85989041D01*
X132318425Y-85825432D01*
X132391011Y-85580617D01*
X131572000Y-84761605D01*
X130752989Y-85580617D01*
X130044960Y-85580617D01*
X130237852Y-85387725D01*
X130295491Y-85248571D01*
X130328568Y-85328425D01*
X130573383Y-85401011D01*
X131392395Y-84582000D01*
X131378253Y-84567858D01*
X131557858Y-84388252D01*
X131572000Y-84402395D01*
X132391011Y-83583383D01*
X132318425Y-83338568D01*
X131785765Y-83147574D01*
X131220562Y-83174959D01*
X130825575Y-83338568D01*
X130825000Y-83340507D01*
X130825000Y-77711790D01*
X130938839Y-77541418D01*
X131054092Y-76962000D01*
X130938839Y-76382582D01*
X130610625Y-75891375D01*
X130119418Y-75563161D01*
X129686256Y-75477000D01*
X129393744Y-75477000D01*
X128960582Y-75563161D01*
X128469375Y-75891375D01*
X128454904Y-75913033D01*
X128388327Y-75752302D01*
X128209699Y-75573673D01*
X127976310Y-75477000D01*
X127285750Y-75477000D01*
X127127000Y-75635750D01*
X126873000Y-75635750D01*
X126714250Y-75477000D01*
X126023690Y-75477000D01*
X125790301Y-75573673D01*
X125611673Y-75752302D01*
X125515000Y-75985691D01*
X121627000Y-75985691D01*
X121627000Y-75985690D01*
X121530327Y-75752301D01*
X121351698Y-75573673D01*
X121118309Y-75477000D01*
X120427750Y-75477000D01*
X120269000Y-75635750D01*
X120015000Y-75635750D01*
X119856250Y-75477000D01*
X119165691Y-75477000D01*
X118932302Y-75573673D01*
X118753673Y-75752301D01*
X118657000Y-75985690D01*
X113245000Y-75985690D01*
X113148327Y-75752301D01*
X112969698Y-75573673D01*
X112736309Y-75477000D01*
X112045750Y-75477000D01*
X111887000Y-75635750D01*
X111633000Y-75635750D01*
X111474250Y-75477000D01*
X110783691Y-75477000D01*
X110550302Y-75573673D01*
X110371673Y-75752301D01*
X110275000Y-75985690D01*
X104342000Y-75985690D01*
X104342000Y-71691431D01*
X104953000Y-71691431D01*
X104953000Y-72580569D01*
X105293259Y-73402026D01*
X105921974Y-74030741D01*
X106743431Y-74371000D01*
X107632569Y-74371000D01*
X108454026Y-74030741D01*
X109082741Y-73402026D01*
X109423000Y-72580569D01*
X109423000Y-71691431D01*
X177851000Y-71691431D01*
X177851000Y-72580569D01*
X178191259Y-73402026D01*
X178819974Y-74030741D01*
X179641431Y-74371000D01*
X180530569Y-74371000D01*
X181352026Y-74030741D01*
X181980741Y-73402026D01*
X182321000Y-72580569D01*
X182321000Y-71691431D01*
X181980741Y-70869974D01*
X181352026Y-70241259D01*
X180530569Y-69901000D01*
X179641431Y-69901000D01*
X178819974Y-70241259D01*
X178191259Y-70869974D01*
X177851000Y-71691431D01*
X109423000Y-71691431D01*
X109082741Y-70869974D01*
X108454026Y-70241259D01*
X107632569Y-69901000D01*
X106743431Y-69901000D01*
X105921974Y-70241259D01*
X105293259Y-70869974D01*
X104953000Y-71691431D01*
X104342000Y-71691431D01*
X104342000Y-69290000D01*
X182932001Y-69290000D01*
X182932000Y-120194000D01*
X182932000Y-120194000D01*
G37*
X182932000Y-120194000D02*
X104342000Y-120194000D01*
X104342000Y-116903431D01*
X104953000Y-116903431D01*
X104953000Y-117792569D01*
X105293259Y-118614026D01*
X105921974Y-119242741D01*
X106743431Y-119583000D01*
X107632569Y-119583000D01*
X108454026Y-119242741D01*
X109082741Y-118614026D01*
X109423000Y-117792569D01*
X109423000Y-116903431D01*
X109082741Y-116081974D01*
X108454026Y-115453259D01*
X107632569Y-115113000D01*
X106743431Y-115113000D01*
X105921974Y-115453259D01*
X105293259Y-116081974D01*
X104953000Y-116903431D01*
X104342000Y-116903431D01*
X104342000Y-103668000D01*
X107090560Y-103668000D01*
X107090560Y-108168000D01*
X107139843Y-108415765D01*
X107280191Y-108625809D01*
X107490235Y-108766157D01*
X107703001Y-108808478D01*
X107703001Y-109115437D01*
X107677826Y-109242000D01*
X107777557Y-109743381D01*
X107777558Y-109743382D01*
X108061568Y-110168433D01*
X108168858Y-110240122D01*
X113226935Y-115298200D01*
X113312609Y-115728910D01*
X113663477Y-116254023D01*
X114188589Y-116604891D01*
X114808000Y-116728100D01*
X115427410Y-116604891D01*
X115952523Y-116254023D01*
X116078000Y-116066233D01*
X116203477Y-116254023D01*
X116728589Y-116604891D01*
X117348000Y-116728100D01*
X117967410Y-116604891D01*
X118359491Y-116342912D01*
X118477691Y-116519809D01*
X118687735Y-116660157D01*
X118935500Y-116709440D01*
X120840500Y-116709440D01*
X121088265Y-116660157D01*
X121298309Y-116519809D01*
X121413777Y-116347000D01*
X129312536Y-116347000D01*
X131831176Y-118865640D01*
X131902867Y-118972933D01*
X132327918Y-119256943D01*
X132702742Y-119331500D01*
X132702746Y-119331500D01*
X132829299Y-119356673D01*
X132955852Y-119331500D01*
X136591734Y-119331500D01*
X136718292Y-119356674D01*
X136844850Y-119331500D01*
X137219674Y-119256943D01*
X137644725Y-118972933D01*
X137716416Y-118865640D01*
X139424625Y-117157431D01*
X177851000Y-117157431D01*
X177851000Y-118046569D01*
X178191259Y-118868026D01*
X178819974Y-119496741D01*
X179641431Y-119837000D01*
X180530569Y-119837000D01*
X181352026Y-119496741D01*
X181980741Y-118868026D01*
X182321000Y-118046569D01*
X182321000Y-117157431D01*
X181980741Y-116335974D01*
X181352026Y-115707259D01*
X180530569Y-115367000D01*
X179641431Y-115367000D01*
X178819974Y-115707259D01*
X178191259Y-116335974D01*
X177851000Y-117157431D01*
X139424625Y-117157431D01*
X140011141Y-116570915D01*
X140118433Y-116499225D01*
X140402443Y-116074174D01*
X140477000Y-115699350D01*
X140477000Y-115699346D01*
X140502173Y-115572793D01*
X140477000Y-115446240D01*
X140477000Y-115185817D01*
X140493310Y-115169507D01*
X140727000Y-114605330D01*
X140727000Y-113994670D01*
X140493310Y-113430493D01*
X140477000Y-113414183D01*
X140477000Y-106204688D01*
X140661375Y-106480625D01*
X141152582Y-106808839D01*
X141585744Y-106895000D01*
X141878256Y-106895000D01*
X142311418Y-106808839D01*
X142802625Y-106480625D01*
X143002000Y-106182239D01*
X143201375Y-106480625D01*
X143692582Y-106808839D01*
X144125744Y-106895000D01*
X144418256Y-106895000D01*
X144851418Y-106808839D01*
X145342625Y-106480625D01*
X145542000Y-106182239D01*
X145741375Y-106480625D01*
X146232582Y-106808839D01*
X146665744Y-106895000D01*
X146958256Y-106895000D01*
X147391418Y-106808839D01*
X147882625Y-106480625D01*
X148082000Y-106182239D01*
X148281375Y-106480625D01*
X148772582Y-106808839D01*
X149205744Y-106895000D01*
X149498256Y-106895000D01*
X149931418Y-106808839D01*
X150422625Y-106480625D01*
X150622000Y-106182239D01*
X150821375Y-106480625D01*
X151312582Y-106808839D01*
X151745744Y-106895000D01*
X152038256Y-106895000D01*
X152471418Y-106808839D01*
X152962625Y-106480625D01*
X153162000Y-106182239D01*
X153361375Y-106480625D01*
X153852582Y-106808839D01*
X154285744Y-106895000D01*
X154578256Y-106895000D01*
X155011418Y-106808839D01*
X155502625Y-106480625D01*
X155702000Y-106182239D01*
X155901375Y-106480625D01*
X156392582Y-106808839D01*
X156825744Y-106895000D01*
X157118256Y-106895000D01*
X157551418Y-106808839D01*
X158042625Y-106480625D01*
X158242000Y-106182239D01*
X158441375Y-106480625D01*
X158932582Y-106808839D01*
X159365744Y-106895000D01*
X159658256Y-106895000D01*
X160091418Y-106808839D01*
X160582625Y-106480625D01*
X160782000Y-106182239D01*
X160981375Y-106480625D01*
X161472582Y-106808839D01*
X161905744Y-106895000D01*
X162198256Y-106895000D01*
X162631418Y-106808839D01*
X163122625Y-106480625D01*
X163322000Y-106182239D01*
X163521375Y-106480625D01*
X164012582Y-106808839D01*
X164445744Y-106895000D01*
X164738256Y-106895000D01*
X165171418Y-106808839D01*
X165662625Y-106480625D01*
X165862000Y-106182239D01*
X166061375Y-106480625D01*
X166552582Y-106808839D01*
X166985744Y-106895000D01*
X167278256Y-106895000D01*
X167711418Y-106808839D01*
X168202625Y-106480625D01*
X168530839Y-105989418D01*
X168646092Y-105410000D01*
X168530839Y-104830582D01*
X168417000Y-104660210D01*
X168417000Y-92277756D01*
X168442174Y-92151199D01*
X168417000Y-92024642D01*
X168342443Y-91649818D01*
X168058433Y-91224767D01*
X167951144Y-91153079D01*
X166664399Y-89866335D01*
X166664399Y-85495951D01*
X166689572Y-85369398D01*
X166664399Y-85242845D01*
X166664399Y-85242841D01*
X166589842Y-84868017D01*
X166305832Y-84442966D01*
X166198537Y-84371274D01*
X165935253Y-84107989D01*
X165797852Y-83776275D01*
X165397725Y-83376148D01*
X164874933Y-83159600D01*
X164309067Y-83159600D01*
X163786275Y-83376148D01*
X163386148Y-83776275D01*
X163337000Y-83894929D01*
X163337000Y-82510764D01*
X163498665Y-82349100D01*
X171339484Y-82349100D01*
X171580906Y-82449100D01*
X172131894Y-82449100D01*
X172640940Y-82238247D01*
X173030547Y-81848640D01*
X173241400Y-81339594D01*
X173241400Y-80788606D01*
X173030547Y-80279560D01*
X172640940Y-79889953D01*
X172131894Y-79679100D01*
X171580906Y-79679100D01*
X171339484Y-79779100D01*
X163092958Y-79779100D01*
X162966400Y-79753926D01*
X162839842Y-79779100D01*
X162465018Y-79853657D01*
X162039967Y-80137667D01*
X161968278Y-80244957D01*
X161232859Y-80980377D01*
X161125567Y-81052067D01*
X160933448Y-81339594D01*
X160841557Y-81477119D01*
X160741826Y-81978500D01*
X160767000Y-82105059D01*
X160767001Y-83894929D01*
X160717852Y-83776275D01*
X160317725Y-83376148D01*
X159794933Y-83159600D01*
X159229067Y-83159600D01*
X158706275Y-83376148D01*
X158306148Y-83776275D01*
X158257000Y-83894929D01*
X158257000Y-78559026D01*
X158302301Y-78604327D01*
X158535690Y-78701000D01*
X159226250Y-78701000D01*
X159385000Y-78542250D01*
X159385000Y-77343000D01*
X159639000Y-77343000D01*
X159639000Y-78542250D01*
X159797750Y-78701000D01*
X160488310Y-78701000D01*
X160721699Y-78604327D01*
X160900327Y-78425698D01*
X160997000Y-78192309D01*
X160997000Y-77501750D01*
X160838250Y-77343000D01*
X159639000Y-77343000D01*
X159385000Y-77343000D01*
X159365000Y-77343000D01*
X159365000Y-77089000D01*
X159385000Y-77089000D01*
X159385000Y-75889750D01*
X159639000Y-75889750D01*
X159639000Y-77089000D01*
X160838250Y-77089000D01*
X160997000Y-76930250D01*
X160997000Y-76239691D01*
X160900327Y-76006302D01*
X160721699Y-75827673D01*
X160488310Y-75731000D01*
X159797750Y-75731000D01*
X159639000Y-75889750D01*
X159385000Y-75889750D01*
X159226250Y-75731000D01*
X158535690Y-75731000D01*
X158302301Y-75827673D01*
X158123673Y-76006302D01*
X158057096Y-76167033D01*
X158042625Y-76145375D01*
X157551418Y-75817161D01*
X157118256Y-75731000D01*
X156825744Y-75731000D01*
X156392582Y-75817161D01*
X155901375Y-76145375D01*
X155702000Y-76443761D01*
X155502625Y-76145375D01*
X155011418Y-75817161D01*
X154578256Y-75731000D01*
X154285744Y-75731000D01*
X153852582Y-75817161D01*
X153361375Y-76145375D01*
X153162000Y-76443761D01*
X152962625Y-76145375D01*
X152471418Y-75817161D01*
X152038256Y-75731000D01*
X151745744Y-75731000D01*
X151312582Y-75817161D01*
X150821375Y-76145375D01*
X150622000Y-76443761D01*
X150422625Y-76145375D01*
X149931418Y-75817161D01*
X149498256Y-75731000D01*
X149205744Y-75731000D01*
X148772582Y-75817161D01*
X148281375Y-76145375D01*
X148082000Y-76443761D01*
X147882625Y-76145375D01*
X147391418Y-75817161D01*
X146958256Y-75731000D01*
X146665744Y-75731000D01*
X146232582Y-75817161D01*
X145741375Y-76145375D01*
X145542000Y-76443761D01*
X145342625Y-76145375D01*
X144851418Y-75817161D01*
X144418256Y-75731000D01*
X144125744Y-75731000D01*
X143692582Y-75817161D01*
X143201375Y-76145375D01*
X143002000Y-76443761D01*
X142802625Y-76145375D01*
X142311418Y-75817161D01*
X141878256Y-75731000D01*
X141585744Y-75731000D01*
X141152582Y-75817161D01*
X140661375Y-76145375D01*
X140462000Y-76443761D01*
X140262625Y-76145375D01*
X139771418Y-75817161D01*
X139338256Y-75731000D01*
X139045744Y-75731000D01*
X138612582Y-75817161D01*
X138121375Y-76145375D01*
X137793161Y-76636582D01*
X137677908Y-77216000D01*
X137793161Y-77795418D01*
X137907000Y-77965790D01*
X137907001Y-83894929D01*
X137857852Y-83776275D01*
X137457725Y-83376148D01*
X136934933Y-83159600D01*
X136369067Y-83159600D01*
X135846275Y-83376148D01*
X135446148Y-83776275D01*
X135382000Y-83931142D01*
X135317852Y-83776275D01*
X134917725Y-83376148D01*
X134394933Y-83159600D01*
X133829067Y-83159600D01*
X133306275Y-83376148D01*
X132906148Y-83776275D01*
X132848509Y-83915429D01*
X132815432Y-83835575D01*
X132570617Y-83762989D01*
X131751605Y-84582000D01*
X132570617Y-85401011D01*
X132815432Y-85328425D01*
X132846127Y-85242821D01*
X132906148Y-85387725D01*
X133306275Y-85787852D01*
X133829067Y-86004400D01*
X134394933Y-86004400D01*
X134917725Y-85787852D01*
X135317852Y-85387725D01*
X135367000Y-85269071D01*
X135367001Y-87631135D01*
X134367136Y-88631000D01*
X122309187Y-88631000D01*
X122257339Y-88620687D01*
X122292327Y-88585699D01*
X122389000Y-88352310D01*
X122389000Y-87661750D01*
X122230250Y-87503000D01*
X121031000Y-87503000D01*
X121031000Y-87523000D01*
X120777000Y-87523000D01*
X120777000Y-87503000D01*
X119577750Y-87503000D01*
X119419000Y-87661750D01*
X119419000Y-88352310D01*
X119515673Y-88585699D01*
X119560974Y-88631000D01*
X118388958Y-88631000D01*
X118262400Y-88605826D01*
X117761018Y-88705557D01*
X117551766Y-88845375D01*
X117335967Y-88989567D01*
X117264278Y-89096857D01*
X116528859Y-89832277D01*
X116421567Y-89903967D01*
X116349878Y-90011258D01*
X116137557Y-90329019D01*
X116037826Y-90830400D01*
X116063000Y-90956958D01*
X116063001Y-103957076D01*
X115797009Y-103558991D01*
X115723000Y-103509540D01*
X115723000Y-86399690D01*
X119419000Y-86399690D01*
X119419000Y-87090250D01*
X119577750Y-87249000D01*
X120777000Y-87249000D01*
X120777000Y-86049750D01*
X121031000Y-86049750D01*
X121031000Y-87249000D01*
X122230250Y-87249000D01*
X122389000Y-87090250D01*
X122389000Y-86399690D01*
X122292327Y-86166301D01*
X122113698Y-85987673D01*
X121880309Y-85891000D01*
X121189750Y-85891000D01*
X121031000Y-86049750D01*
X120777000Y-86049750D01*
X120618250Y-85891000D01*
X119927691Y-85891000D01*
X119694302Y-85987673D01*
X119515673Y-86166301D01*
X119419000Y-86399690D01*
X115723000Y-86399690D01*
X115723000Y-83508639D01*
X115748174Y-83382081D01*
X115648443Y-82880699D01*
X115436122Y-82562938D01*
X115364433Y-82455648D01*
X115257144Y-82383960D01*
X113660183Y-80787000D01*
X119392210Y-80787000D01*
X119562582Y-80900839D01*
X119995744Y-80987000D01*
X120288256Y-80987000D01*
X120721418Y-80900839D01*
X121212625Y-80572625D01*
X121540839Y-80081418D01*
X121656092Y-79502000D01*
X121540839Y-78922582D01*
X121212625Y-78431375D01*
X121190967Y-78416904D01*
X121351698Y-78350327D01*
X121530327Y-78171699D01*
X121627000Y-77938310D01*
X121627000Y-77247750D01*
X125515000Y-77247750D01*
X125515000Y-77938309D01*
X125611673Y-78171698D01*
X125790301Y-78350327D01*
X126023690Y-78447000D01*
X126714250Y-78447000D01*
X126873000Y-78288250D01*
X126873000Y-77089000D01*
X125673750Y-77089000D01*
X125515000Y-77247750D01*
X121627000Y-77247750D01*
X121468250Y-77089000D01*
X120269000Y-77089000D01*
X120269000Y-77109000D01*
X120015000Y-77109000D01*
X120015000Y-77089000D01*
X118815750Y-77089000D01*
X118657000Y-77247750D01*
X118657000Y-77938310D01*
X118753673Y-78171699D01*
X118798974Y-78217000D01*
X113103026Y-78217000D01*
X113148327Y-78171699D01*
X113245000Y-77938310D01*
X113245000Y-77247750D01*
X113086250Y-77089000D01*
X111887000Y-77089000D01*
X111887000Y-77109000D01*
X111633000Y-77109000D01*
X111633000Y-77089000D01*
X110433750Y-77089000D01*
X110275000Y-77247750D01*
X110275000Y-77938310D01*
X110371673Y-78171699D01*
X110550302Y-78350327D01*
X110711033Y-78416904D01*
X110689375Y-78431375D01*
X110361161Y-78922582D01*
X110245908Y-79502000D01*
X110361161Y-80081418D01*
X110475000Y-80251790D01*
X110475000Y-80577523D01*
X110449826Y-80704081D01*
X110475000Y-80830639D01*
X110549557Y-81205463D01*
X110833568Y-81630514D01*
X110940857Y-81702203D01*
X113153000Y-83914346D01*
X113153000Y-84708998D01*
X113030630Y-84708998D01*
X113151914Y-84486959D01*
X112912389Y-83980866D01*
X112497423Y-83604959D01*
X112109039Y-83444096D01*
X111887000Y-83566085D01*
X111887000Y-84709000D01*
X111907000Y-84709000D01*
X111907000Y-84963000D01*
X111887000Y-84963000D01*
X111887000Y-86105915D01*
X112109039Y-86227904D01*
X112497423Y-86067041D01*
X112912389Y-85691134D01*
X113151914Y-85185041D01*
X113030630Y-84963002D01*
X113153000Y-84963002D01*
X113153001Y-99689166D01*
X112976534Y-99263138D01*
X112572862Y-98859466D01*
X112045439Y-98641000D01*
X111474561Y-98641000D01*
X110947138Y-98859466D01*
X110543466Y-99263138D01*
X110325000Y-99790561D01*
X110325000Y-100361439D01*
X110475000Y-100723571D01*
X110475001Y-102613734D01*
X110068175Y-103020560D01*
X107738000Y-103020560D01*
X107490235Y-103069843D01*
X107280191Y-103210191D01*
X107139843Y-103420235D01*
X107090560Y-103668000D01*
X104342000Y-103668000D01*
X104342000Y-85185041D01*
X110368086Y-85185041D01*
X110607611Y-85691134D01*
X111022577Y-86067041D01*
X111410961Y-86227904D01*
X111633000Y-86105915D01*
X111633000Y-84963000D01*
X110489371Y-84963000D01*
X110368086Y-85185041D01*
X104342000Y-85185041D01*
X104342000Y-84486959D01*
X110368086Y-84486959D01*
X110489371Y-84709000D01*
X111633000Y-84709000D01*
X111633000Y-83566085D01*
X111410961Y-83444096D01*
X111022577Y-83604959D01*
X110607611Y-83980866D01*
X110368086Y-84486959D01*
X104342000Y-84486959D01*
X104342000Y-75985690D01*
X110275000Y-75985690D01*
X110275000Y-76676250D01*
X110433750Y-76835000D01*
X111633000Y-76835000D01*
X111633000Y-75635750D01*
X111887000Y-75635750D01*
X111887000Y-76835000D01*
X113086250Y-76835000D01*
X113245000Y-76676250D01*
X113245000Y-75985690D01*
X118657000Y-75985690D01*
X118657000Y-76676250D01*
X118815750Y-76835000D01*
X120015000Y-76835000D01*
X120015000Y-75635750D01*
X120269000Y-75635750D01*
X120269000Y-76835000D01*
X121468250Y-76835000D01*
X121627000Y-76676250D01*
X121627000Y-75985691D01*
X125515000Y-75985691D01*
X125515000Y-76676250D01*
X125673750Y-76835000D01*
X126873000Y-76835000D01*
X126873000Y-75635750D01*
X127127000Y-75635750D01*
X127127000Y-76835000D01*
X127147000Y-76835000D01*
X127147000Y-77089000D01*
X127127000Y-77089000D01*
X127127000Y-78288250D01*
X127285750Y-78447000D01*
X127976310Y-78447000D01*
X128209699Y-78350327D01*
X128255000Y-78305026D01*
X128255001Y-83364249D01*
X128226275Y-83376148D01*
X127826148Y-83776275D01*
X127609600Y-84299067D01*
X127609600Y-84864933D01*
X127826148Y-85387725D01*
X128226275Y-85787852D01*
X128749067Y-86004400D01*
X129314933Y-86004400D01*
X129837725Y-85787852D01*
X130044960Y-85580617D01*
X130752989Y-85580617D01*
X130825575Y-85825432D01*
X131358235Y-86016426D01*
X131923438Y-85989041D01*
X132318425Y-85825432D01*
X132391011Y-85580617D01*
X131572000Y-84761605D01*
X130752989Y-85580617D01*
X130044960Y-85580617D01*
X130237852Y-85387725D01*
X130295491Y-85248571D01*
X130328568Y-85328425D01*
X130573383Y-85401011D01*
X131392395Y-84582000D01*
X131378253Y-84567858D01*
X131557858Y-84388252D01*
X131572000Y-84402395D01*
X132391011Y-83583383D01*
X132318425Y-83338568D01*
X131785765Y-83147574D01*
X131220562Y-83174959D01*
X130825575Y-83338568D01*
X130825000Y-83340507D01*
X130825000Y-77711790D01*
X130938839Y-77541418D01*
X131054092Y-76962000D01*
X130938839Y-76382582D01*
X130610625Y-75891375D01*
X130119418Y-75563161D01*
X129686256Y-75477000D01*
X129393744Y-75477000D01*
X128960582Y-75563161D01*
X128469375Y-75891375D01*
X128454904Y-75913033D01*
X128388327Y-75752302D01*
X128209699Y-75573673D01*
X127976310Y-75477000D01*
X127285750Y-75477000D01*
X127127000Y-75635750D01*
X126873000Y-75635750D01*
X126714250Y-75477000D01*
X126023690Y-75477000D01*
X125790301Y-75573673D01*
X125611673Y-75752302D01*
X125515000Y-75985691D01*
X121627000Y-75985691D01*
X121627000Y-75985690D01*
X121530327Y-75752301D01*
X121351698Y-75573673D01*
X121118309Y-75477000D01*
X120427750Y-75477000D01*
X120269000Y-75635750D01*
X120015000Y-75635750D01*
X119856250Y-75477000D01*
X119165691Y-75477000D01*
X118932302Y-75573673D01*
X118753673Y-75752301D01*
X118657000Y-75985690D01*
X113245000Y-75985690D01*
X113148327Y-75752301D01*
X112969698Y-75573673D01*
X112736309Y-75477000D01*
X112045750Y-75477000D01*
X111887000Y-75635750D01*
X111633000Y-75635750D01*
X111474250Y-75477000D01*
X110783691Y-75477000D01*
X110550302Y-75573673D01*
X110371673Y-75752301D01*
X110275000Y-75985690D01*
X104342000Y-75985690D01*
X104342000Y-71691431D01*
X104953000Y-71691431D01*
X104953000Y-72580569D01*
X105293259Y-73402026D01*
X105921974Y-74030741D01*
X106743431Y-74371000D01*
X107632569Y-74371000D01*
X108454026Y-74030741D01*
X109082741Y-73402026D01*
X109423000Y-72580569D01*
X109423000Y-71691431D01*
X177851000Y-71691431D01*
X177851000Y-72580569D01*
X178191259Y-73402026D01*
X178819974Y-74030741D01*
X179641431Y-74371000D01*
X180530569Y-74371000D01*
X181352026Y-74030741D01*
X181980741Y-73402026D01*
X182321000Y-72580569D01*
X182321000Y-71691431D01*
X181980741Y-70869974D01*
X181352026Y-70241259D01*
X180530569Y-69901000D01*
X179641431Y-69901000D01*
X178819974Y-70241259D01*
X178191259Y-70869974D01*
X177851000Y-71691431D01*
X109423000Y-71691431D01*
X109082741Y-70869974D01*
X108454026Y-70241259D01*
X107632569Y-69901000D01*
X106743431Y-69901000D01*
X105921974Y-70241259D01*
X105293259Y-70869974D01*
X104953000Y-71691431D01*
X104342000Y-71691431D01*
X104342000Y-69290000D01*
X182932001Y-69290000D01*
X182932000Y-120194000D01*
G36*
X163386148Y-85387725D02*
X163786275Y-85787852D01*
X164094399Y-85915481D01*
X164094400Y-90272036D01*
X164069225Y-90398599D01*
X164168956Y-90899980D01*
X164226851Y-90986625D01*
X164452967Y-91325032D01*
X164560256Y-91396720D01*
X165847000Y-92683465D01*
X165847001Y-99134930D01*
X165797852Y-99016275D01*
X165397725Y-98616148D01*
X164874933Y-98399600D01*
X164309067Y-98399600D01*
X163786275Y-98616148D01*
X163386148Y-99016275D01*
X163322000Y-99171142D01*
X163257852Y-99016275D01*
X162857725Y-98616148D01*
X162334933Y-98399600D01*
X161769067Y-98399600D01*
X161246275Y-98616148D01*
X160846148Y-99016275D01*
X160782000Y-99171142D01*
X160717852Y-99016275D01*
X160317725Y-98616148D01*
X159794933Y-98399600D01*
X159229067Y-98399600D01*
X158706275Y-98616148D01*
X158306148Y-99016275D01*
X158242000Y-99171142D01*
X158177852Y-99016275D01*
X157777725Y-98616148D01*
X157254933Y-98399600D01*
X156689067Y-98399600D01*
X156166275Y-98616148D01*
X155766148Y-99016275D01*
X155702000Y-99171142D01*
X155637852Y-99016275D01*
X155237725Y-98616148D01*
X154714933Y-98399600D01*
X154149067Y-98399600D01*
X153626275Y-98616148D01*
X153226148Y-99016275D01*
X153162000Y-99171142D01*
X153097852Y-99016275D01*
X152697725Y-98616148D01*
X152174933Y-98399600D01*
X151609067Y-98399600D01*
X151086275Y-98616148D01*
X150686148Y-99016275D01*
X150622000Y-99171142D01*
X150557852Y-99016275D01*
X150157725Y-98616148D01*
X149634933Y-98399600D01*
X149069067Y-98399600D01*
X148546275Y-98616148D01*
X148146148Y-99016275D01*
X148082000Y-99171142D01*
X148017852Y-99016275D01*
X147617725Y-98616148D01*
X147094933Y-98399600D01*
X146529067Y-98399600D01*
X146006275Y-98616148D01*
X145606148Y-99016275D01*
X145542000Y-99171142D01*
X145477852Y-99016275D01*
X145077725Y-98616148D01*
X144554933Y-98399600D01*
X143989067Y-98399600D01*
X143466275Y-98616148D01*
X143066148Y-99016275D01*
X143002000Y-99171142D01*
X142937852Y-99016275D01*
X142537725Y-98616148D01*
X142014933Y-98399600D01*
X141449067Y-98399600D01*
X140926275Y-98616148D01*
X140526148Y-99016275D01*
X140462000Y-99171142D01*
X140397852Y-99016275D01*
X139997725Y-98616148D01*
X139474933Y-98399600D01*
X138909067Y-98399600D01*
X138386275Y-98616148D01*
X137986148Y-99016275D01*
X137928509Y-99155429D01*
X137895432Y-99075575D01*
X137650617Y-99002989D01*
X136831605Y-99822000D01*
X137650617Y-100641011D01*
X137895432Y-100568425D01*
X137907000Y-100536163D01*
X137907001Y-104066975D01*
X137861699Y-104021673D01*
X137628310Y-103925000D01*
X136937750Y-103925000D01*
X136779000Y-104083750D01*
X136779000Y-105283000D01*
X136799000Y-105283000D01*
X136799000Y-105537000D01*
X136779000Y-105537000D01*
X136779000Y-106736250D01*
X136937750Y-106895000D01*
X137628310Y-106895000D01*
X137861699Y-106798327D01*
X137907000Y-106753026D01*
X137907001Y-112859727D01*
X137678309Y-112765000D01*
X136937750Y-112765000D01*
X136779000Y-112923750D01*
X136779000Y-114173000D01*
X136799000Y-114173000D01*
X136799000Y-114427000D01*
X136779000Y-114427000D01*
X136779000Y-115676250D01*
X136937750Y-115835000D01*
X137112528Y-115835000D01*
X136186028Y-116761500D01*
X133361564Y-116761500D01*
X131185814Y-114585750D01*
X135117000Y-114585750D01*
X135117000Y-115326310D01*
X135213673Y-115559699D01*
X135392302Y-115738327D01*
X135625691Y-115835000D01*
X136366250Y-115835000D01*
X136525000Y-115676250D01*
X136525000Y-114427000D01*
X135275750Y-114427000D01*
X135117000Y-114585750D01*
X131185814Y-114585750D01*
X130842924Y-114242860D01*
X130771233Y-114135567D01*
X130346182Y-113851557D01*
X129971358Y-113777000D01*
X129844800Y-113751826D01*
X129718242Y-113777000D01*
X121413777Y-113777000D01*
X121298309Y-113604191D01*
X121088265Y-113463843D01*
X120840500Y-113414560D01*
X118935500Y-113414560D01*
X118687735Y-113463843D01*
X118633000Y-113500416D01*
X118633000Y-113273690D01*
X135117000Y-113273690D01*
X135117000Y-114014250D01*
X135275750Y-114173000D01*
X136525000Y-114173000D01*
X136525000Y-112923750D01*
X136366250Y-112765000D01*
X135625691Y-112765000D01*
X135392302Y-112861673D01*
X135213673Y-113040301D01*
X135117000Y-113273690D01*
X118633000Y-113273690D01*
X118633000Y-108325241D01*
X118644906Y-108340699D01*
X119283974Y-108708114D01*
X119468355Y-108755695D01*
X119761000Y-108639572D01*
X119761000Y-106045000D01*
X120015000Y-106045000D01*
X120015000Y-108639572D01*
X120307645Y-108755695D01*
X120492026Y-108708114D01*
X121131094Y-108340699D01*
X121580912Y-107756691D01*
X121773000Y-107045000D01*
X121773000Y-106045000D01*
X120015000Y-106045000D01*
X119761000Y-106045000D01*
X119741000Y-106045000D01*
X119741000Y-105791000D01*
X119761000Y-105791000D01*
X119761000Y-103196428D01*
X120015000Y-103196428D01*
X120015000Y-105791000D01*
X121773000Y-105791000D01*
X121773000Y-105695750D01*
X125007000Y-105695750D01*
X125007000Y-106386309D01*
X125103673Y-106619698D01*
X125282301Y-106798327D01*
X125515690Y-106895000D01*
X126206250Y-106895000D01*
X126365000Y-106736250D01*
X126365000Y-105537000D01*
X125165750Y-105537000D01*
X125007000Y-105695750D01*
X121773000Y-105695750D01*
X121773000Y-104791000D01*
X121676561Y-104433691D01*
X125007000Y-104433691D01*
X125007000Y-105124250D01*
X125165750Y-105283000D01*
X126365000Y-105283000D01*
X126365000Y-104083750D01*
X126619000Y-104083750D01*
X126619000Y-105283000D01*
X126639000Y-105283000D01*
X126639000Y-105537000D01*
X126619000Y-105537000D01*
X126619000Y-106736250D01*
X126777750Y-106895000D01*
X127468310Y-106895000D01*
X127701699Y-106798327D01*
X127880327Y-106619698D01*
X127946904Y-106458967D01*
X127961375Y-106480625D01*
X128452582Y-106808839D01*
X128885744Y-106895000D01*
X129178256Y-106895000D01*
X129611418Y-106808839D01*
X130102625Y-106480625D01*
X130302000Y-106182239D01*
X130501375Y-106480625D01*
X130992582Y-106808839D01*
X131425744Y-106895000D01*
X131718256Y-106895000D01*
X132151418Y-106808839D01*
X132642625Y-106480625D01*
X132970839Y-105989418D01*
X133029252Y-105695750D01*
X135167000Y-105695750D01*
X135167000Y-106386309D01*
X135263673Y-106619698D01*
X135442301Y-106798327D01*
X135675690Y-106895000D01*
X136366250Y-106895000D01*
X136525000Y-106736250D01*
X136525000Y-105537000D01*
X135325750Y-105537000D01*
X135167000Y-105695750D01*
X133029252Y-105695750D01*
X133086092Y-105410000D01*
X132970839Y-104830582D01*
X132857000Y-104660210D01*
X132857000Y-104433691D01*
X135167000Y-104433691D01*
X135167000Y-105124250D01*
X135325750Y-105283000D01*
X136525000Y-105283000D01*
X136525000Y-104083750D01*
X136366250Y-103925000D01*
X135675690Y-103925000D01*
X135442301Y-104021673D01*
X135263673Y-104200302D01*
X135167000Y-104433691D01*
X132857000Y-104433691D01*
X132857000Y-100509071D01*
X132906148Y-100627725D01*
X133306275Y-101027852D01*
X133829067Y-101244400D01*
X134394933Y-101244400D01*
X134917725Y-101027852D01*
X135124960Y-100820617D01*
X135832989Y-100820617D01*
X135905575Y-101065432D01*
X136438235Y-101256426D01*
X137003438Y-101229041D01*
X137398425Y-101065432D01*
X137471011Y-100820617D01*
X136652000Y-100001605D01*
X135832989Y-100820617D01*
X135124960Y-100820617D01*
X135317852Y-100627725D01*
X135375491Y-100488571D01*
X135408568Y-100568425D01*
X135653383Y-100641011D01*
X136472395Y-99822000D01*
X135653383Y-99002989D01*
X135408568Y-99075575D01*
X135377873Y-99161179D01*
X135317852Y-99016275D01*
X135124960Y-98823383D01*
X135832989Y-98823383D01*
X136652000Y-99642395D01*
X137471011Y-98823383D01*
X137398425Y-98578568D01*
X136865765Y-98387574D01*
X136300562Y-98414959D01*
X135905575Y-98578568D01*
X135832989Y-98823383D01*
X135124960Y-98823383D01*
X134917725Y-98616148D01*
X134394933Y-98399600D01*
X133829067Y-98399600D01*
X133306275Y-98616148D01*
X132906148Y-99016275D01*
X132842000Y-99171142D01*
X132777852Y-99016275D01*
X132377725Y-98616148D01*
X131854933Y-98399600D01*
X131289067Y-98399600D01*
X130766275Y-98616148D01*
X130366148Y-99016275D01*
X130302000Y-99171142D01*
X130237852Y-99016275D01*
X129837725Y-98616148D01*
X129314933Y-98399600D01*
X128749067Y-98399600D01*
X128226275Y-98616148D01*
X127826148Y-99016275D01*
X127609600Y-99539067D01*
X127609600Y-100104933D01*
X127747000Y-100436646D01*
X127747001Y-104066975D01*
X127701699Y-104021673D01*
X127468310Y-103925000D01*
X126777750Y-103925000D01*
X126619000Y-104083750D01*
X126365000Y-104083750D01*
X126206250Y-103925000D01*
X125515690Y-103925000D01*
X125282301Y-104021673D01*
X125103673Y-104200302D01*
X125007000Y-104433691D01*
X121676561Y-104433691D01*
X121580912Y-104079309D01*
X121131094Y-103495301D01*
X120492026Y-103127886D01*
X120307645Y-103080305D01*
X120015000Y-103196428D01*
X119761000Y-103196428D01*
X119468355Y-103080305D01*
X119283974Y-103127886D01*
X118644906Y-103495301D01*
X118633000Y-103510759D01*
X118633000Y-91362664D01*
X118794665Y-91201000D01*
X120109312Y-91201000D01*
X119833375Y-91385375D01*
X119505161Y-91876582D01*
X119389908Y-92456000D01*
X119505161Y-93035418D01*
X119833375Y-93526625D01*
X120131761Y-93726000D01*
X119833375Y-93925375D01*
X119505161Y-94416582D01*
X119389908Y-94996000D01*
X119505161Y-95575418D01*
X119833375Y-96066625D01*
X120324582Y-96394839D01*
X120757744Y-96481000D01*
X121050256Y-96481000D01*
X121483418Y-96394839D01*
X121653790Y-96281000D01*
X154064142Y-96281000D01*
X154190700Y-96306174D01*
X154317258Y-96281000D01*
X154692082Y-96206443D01*
X155117133Y-95922433D01*
X155188824Y-95815140D01*
X160331141Y-90672823D01*
X160438433Y-90601133D01*
X160722443Y-90176082D01*
X160722443Y-90176081D01*
X160822174Y-89674700D01*
X160797000Y-89548142D01*
X160797000Y-85269071D01*
X160846148Y-85387725D01*
X161246275Y-85787852D01*
X161769067Y-86004400D01*
X162334933Y-86004400D01*
X162857725Y-85787852D01*
X163257852Y-85387725D01*
X163322000Y-85232858D01*
X163386148Y-85387725D01*
X163386148Y-85387725D01*
G37*
X163386148Y-85387725D02*
X163786275Y-85787852D01*
X164094399Y-85915481D01*
X164094400Y-90272036D01*
X164069225Y-90398599D01*
X164168956Y-90899980D01*
X164226851Y-90986625D01*
X164452967Y-91325032D01*
X164560256Y-91396720D01*
X165847000Y-92683465D01*
X165847001Y-99134930D01*
X165797852Y-99016275D01*
X165397725Y-98616148D01*
X164874933Y-98399600D01*
X164309067Y-98399600D01*
X163786275Y-98616148D01*
X163386148Y-99016275D01*
X163322000Y-99171142D01*
X163257852Y-99016275D01*
X162857725Y-98616148D01*
X162334933Y-98399600D01*
X161769067Y-98399600D01*
X161246275Y-98616148D01*
X160846148Y-99016275D01*
X160782000Y-99171142D01*
X160717852Y-99016275D01*
X160317725Y-98616148D01*
X159794933Y-98399600D01*
X159229067Y-98399600D01*
X158706275Y-98616148D01*
X158306148Y-99016275D01*
X158242000Y-99171142D01*
X158177852Y-99016275D01*
X157777725Y-98616148D01*
X157254933Y-98399600D01*
X156689067Y-98399600D01*
X156166275Y-98616148D01*
X155766148Y-99016275D01*
X155702000Y-99171142D01*
X155637852Y-99016275D01*
X155237725Y-98616148D01*
X154714933Y-98399600D01*
X154149067Y-98399600D01*
X153626275Y-98616148D01*
X153226148Y-99016275D01*
X153162000Y-99171142D01*
X153097852Y-99016275D01*
X152697725Y-98616148D01*
X152174933Y-98399600D01*
X151609067Y-98399600D01*
X151086275Y-98616148D01*
X150686148Y-99016275D01*
X150622000Y-99171142D01*
X150557852Y-99016275D01*
X150157725Y-98616148D01*
X149634933Y-98399600D01*
X149069067Y-98399600D01*
X148546275Y-98616148D01*
X148146148Y-99016275D01*
X148082000Y-99171142D01*
X148017852Y-99016275D01*
X147617725Y-98616148D01*
X147094933Y-98399600D01*
X146529067Y-98399600D01*
X146006275Y-98616148D01*
X145606148Y-99016275D01*
X145542000Y-99171142D01*
X145477852Y-99016275D01*
X145077725Y-98616148D01*
X144554933Y-98399600D01*
X143989067Y-98399600D01*
X143466275Y-98616148D01*
X143066148Y-99016275D01*
X143002000Y-99171142D01*
X142937852Y-99016275D01*
X142537725Y-98616148D01*
X142014933Y-98399600D01*
X141449067Y-98399600D01*
X140926275Y-98616148D01*
X140526148Y-99016275D01*
X140462000Y-99171142D01*
X140397852Y-99016275D01*
X139997725Y-98616148D01*
X139474933Y-98399600D01*
X138909067Y-98399600D01*
X138386275Y-98616148D01*
X137986148Y-99016275D01*
X137928509Y-99155429D01*
X137895432Y-99075575D01*
X137650617Y-99002989D01*
X136831605Y-99822000D01*
X137650617Y-100641011D01*
X137895432Y-100568425D01*
X137907000Y-100536163D01*
X137907001Y-104066975D01*
X137861699Y-104021673D01*
X137628310Y-103925000D01*
X136937750Y-103925000D01*
X136779000Y-104083750D01*
X136779000Y-105283000D01*
X136799000Y-105283000D01*
X136799000Y-105537000D01*
X136779000Y-105537000D01*
X136779000Y-106736250D01*
X136937750Y-106895000D01*
X137628310Y-106895000D01*
X137861699Y-106798327D01*
X137907000Y-106753026D01*
X137907001Y-112859727D01*
X137678309Y-112765000D01*
X136937750Y-112765000D01*
X136779000Y-112923750D01*
X136779000Y-114173000D01*
X136799000Y-114173000D01*
X136799000Y-114427000D01*
X136779000Y-114427000D01*
X136779000Y-115676250D01*
X136937750Y-115835000D01*
X137112528Y-115835000D01*
X136186028Y-116761500D01*
X133361564Y-116761500D01*
X131185814Y-114585750D01*
X135117000Y-114585750D01*
X135117000Y-115326310D01*
X135213673Y-115559699D01*
X135392302Y-115738327D01*
X135625691Y-115835000D01*
X136366250Y-115835000D01*
X136525000Y-115676250D01*
X136525000Y-114427000D01*
X135275750Y-114427000D01*
X135117000Y-114585750D01*
X131185814Y-114585750D01*
X130842924Y-114242860D01*
X130771233Y-114135567D01*
X130346182Y-113851557D01*
X129971358Y-113777000D01*
X129844800Y-113751826D01*
X129718242Y-113777000D01*
X121413777Y-113777000D01*
X121298309Y-113604191D01*
X121088265Y-113463843D01*
X120840500Y-113414560D01*
X118935500Y-113414560D01*
X118687735Y-113463843D01*
X118633000Y-113500416D01*
X118633000Y-113273690D01*
X135117000Y-113273690D01*
X135117000Y-114014250D01*
X135275750Y-114173000D01*
X136525000Y-114173000D01*
X136525000Y-112923750D01*
X136366250Y-112765000D01*
X135625691Y-112765000D01*
X135392302Y-112861673D01*
X135213673Y-113040301D01*
X135117000Y-113273690D01*
X118633000Y-113273690D01*
X118633000Y-108325241D01*
X118644906Y-108340699D01*
X119283974Y-108708114D01*
X119468355Y-108755695D01*
X119761000Y-108639572D01*
X119761000Y-106045000D01*
X120015000Y-106045000D01*
X120015000Y-108639572D01*
X120307645Y-108755695D01*
X120492026Y-108708114D01*
X121131094Y-108340699D01*
X121580912Y-107756691D01*
X121773000Y-107045000D01*
X121773000Y-106045000D01*
X120015000Y-106045000D01*
X119761000Y-106045000D01*
X119741000Y-106045000D01*
X119741000Y-105791000D01*
X119761000Y-105791000D01*
X119761000Y-103196428D01*
X120015000Y-103196428D01*
X120015000Y-105791000D01*
X121773000Y-105791000D01*
X121773000Y-105695750D01*
X125007000Y-105695750D01*
X125007000Y-106386309D01*
X125103673Y-106619698D01*
X125282301Y-106798327D01*
X125515690Y-106895000D01*
X126206250Y-106895000D01*
X126365000Y-106736250D01*
X126365000Y-105537000D01*
X125165750Y-105537000D01*
X125007000Y-105695750D01*
X121773000Y-105695750D01*
X121773000Y-104791000D01*
X121676561Y-104433691D01*
X125007000Y-104433691D01*
X125007000Y-105124250D01*
X125165750Y-105283000D01*
X126365000Y-105283000D01*
X126365000Y-104083750D01*
X126619000Y-104083750D01*
X126619000Y-105283000D01*
X126639000Y-105283000D01*
X126639000Y-105537000D01*
X126619000Y-105537000D01*
X126619000Y-106736250D01*
X126777750Y-106895000D01*
X127468310Y-106895000D01*
X127701699Y-106798327D01*
X127880327Y-106619698D01*
X127946904Y-106458967D01*
X127961375Y-106480625D01*
X128452582Y-106808839D01*
X128885744Y-106895000D01*
X129178256Y-106895000D01*
X129611418Y-106808839D01*
X130102625Y-106480625D01*
X130302000Y-106182239D01*
X130501375Y-106480625D01*
X130992582Y-106808839D01*
X131425744Y-106895000D01*
X131718256Y-106895000D01*
X132151418Y-106808839D01*
X132642625Y-106480625D01*
X132970839Y-105989418D01*
X133029252Y-105695750D01*
X135167000Y-105695750D01*
X135167000Y-106386309D01*
X135263673Y-106619698D01*
X135442301Y-106798327D01*
X135675690Y-106895000D01*
X136366250Y-106895000D01*
X136525000Y-106736250D01*
X136525000Y-105537000D01*
X135325750Y-105537000D01*
X135167000Y-105695750D01*
X133029252Y-105695750D01*
X133086092Y-105410000D01*
X132970839Y-104830582D01*
X132857000Y-104660210D01*
X132857000Y-104433691D01*
X135167000Y-104433691D01*
X135167000Y-105124250D01*
X135325750Y-105283000D01*
X136525000Y-105283000D01*
X136525000Y-104083750D01*
X136366250Y-103925000D01*
X135675690Y-103925000D01*
X135442301Y-104021673D01*
X135263673Y-104200302D01*
X135167000Y-104433691D01*
X132857000Y-104433691D01*
X132857000Y-100509071D01*
X132906148Y-100627725D01*
X133306275Y-101027852D01*
X133829067Y-101244400D01*
X134394933Y-101244400D01*
X134917725Y-101027852D01*
X135124960Y-100820617D01*
X135832989Y-100820617D01*
X135905575Y-101065432D01*
X136438235Y-101256426D01*
X137003438Y-101229041D01*
X137398425Y-101065432D01*
X137471011Y-100820617D01*
X136652000Y-100001605D01*
X135832989Y-100820617D01*
X135124960Y-100820617D01*
X135317852Y-100627725D01*
X135375491Y-100488571D01*
X135408568Y-100568425D01*
X135653383Y-100641011D01*
X136472395Y-99822000D01*
X135653383Y-99002989D01*
X135408568Y-99075575D01*
X135377873Y-99161179D01*
X135317852Y-99016275D01*
X135124960Y-98823383D01*
X135832989Y-98823383D01*
X136652000Y-99642395D01*
X137471011Y-98823383D01*
X137398425Y-98578568D01*
X136865765Y-98387574D01*
X136300562Y-98414959D01*
X135905575Y-98578568D01*
X135832989Y-98823383D01*
X135124960Y-98823383D01*
X134917725Y-98616148D01*
X134394933Y-98399600D01*
X133829067Y-98399600D01*
X133306275Y-98616148D01*
X132906148Y-99016275D01*
X132842000Y-99171142D01*
X132777852Y-99016275D01*
X132377725Y-98616148D01*
X131854933Y-98399600D01*
X131289067Y-98399600D01*
X130766275Y-98616148D01*
X130366148Y-99016275D01*
X130302000Y-99171142D01*
X130237852Y-99016275D01*
X129837725Y-98616148D01*
X129314933Y-98399600D01*
X128749067Y-98399600D01*
X128226275Y-98616148D01*
X127826148Y-99016275D01*
X127609600Y-99539067D01*
X127609600Y-100104933D01*
X127747000Y-100436646D01*
X127747001Y-104066975D01*
X127701699Y-104021673D01*
X127468310Y-103925000D01*
X126777750Y-103925000D01*
X126619000Y-104083750D01*
X126365000Y-104083750D01*
X126206250Y-103925000D01*
X125515690Y-103925000D01*
X125282301Y-104021673D01*
X125103673Y-104200302D01*
X125007000Y-104433691D01*
X121676561Y-104433691D01*
X121580912Y-104079309D01*
X121131094Y-103495301D01*
X120492026Y-103127886D01*
X120307645Y-103080305D01*
X120015000Y-103196428D01*
X119761000Y-103196428D01*
X119468355Y-103080305D01*
X119283974Y-103127886D01*
X118644906Y-103495301D01*
X118633000Y-103510759D01*
X118633000Y-91362664D01*
X118794665Y-91201000D01*
X120109312Y-91201000D01*
X119833375Y-91385375D01*
X119505161Y-91876582D01*
X119389908Y-92456000D01*
X119505161Y-93035418D01*
X119833375Y-93526625D01*
X120131761Y-93726000D01*
X119833375Y-93925375D01*
X119505161Y-94416582D01*
X119389908Y-94996000D01*
X119505161Y-95575418D01*
X119833375Y-96066625D01*
X120324582Y-96394839D01*
X120757744Y-96481000D01*
X121050256Y-96481000D01*
X121483418Y-96394839D01*
X121653790Y-96281000D01*
X154064142Y-96281000D01*
X154190700Y-96306174D01*
X154317258Y-96281000D01*
X154692082Y-96206443D01*
X155117133Y-95922433D01*
X155188824Y-95815140D01*
X160331141Y-90672823D01*
X160438433Y-90601133D01*
X160722443Y-90176082D01*
X160722443Y-90176081D01*
X160822174Y-89674700D01*
X160797000Y-89548142D01*
X160797000Y-85269071D01*
X160846148Y-85387725D01*
X161246275Y-85787852D01*
X161769067Y-86004400D01*
X162334933Y-86004400D01*
X162857725Y-85787852D01*
X163257852Y-85387725D01*
X163322000Y-85232858D01*
X163386148Y-85387725D01*
G04 #@! TD*
M02*
