G04 #@! TF.GenerationSoftware,KiCad,Pcbnew,5.0.0-fee4fd1~66~ubuntu18.04.1*
G04 #@! TF.CreationDate,2018-08-30T15:57:46+01:00*
G04 #@! TF.ProjectId,ArduBoard,41726475426F6172642E6B696361645F,rev?*
G04 #@! TF.SameCoordinates,PX59a0560PY7df6180*
G04 #@! TF.FileFunction,Copper,L2,Bot,Signal*
G04 #@! TF.FilePolarity,Positive*
%FSLAX46Y46*%
G04 Gerber Fmt 4.6, Leading zero omitted, Abs format (unit mm)*
G04 Created by KiCad (PCBNEW 5.0.0-fee4fd1~66~ubuntu18.04.1) date Thu Aug 30 15:57:46 2018*
%MOMM*%
%LPD*%
G01*
G04 APERTURE LIST*
G04 #@! TA.AperFunction,ComponentPad*
%ADD10C,1.574800*%
G04 #@! TD*
G04 #@! TA.AperFunction,ComponentPad*
%ADD11R,1.800000X1.800000*%
G04 #@! TD*
G04 #@! TA.AperFunction,ComponentPad*
%ADD12C,1.800000*%
G04 #@! TD*
G04 #@! TA.AperFunction,ComponentPad*
%ADD13R,1.700000X1.700000*%
G04 #@! TD*
G04 #@! TA.AperFunction,ComponentPad*
%ADD14O,1.700000X1.700000*%
G04 #@! TD*
G04 #@! TA.AperFunction,ComponentPad*
%ADD15R,1.905000X2.000000*%
G04 #@! TD*
G04 #@! TA.AperFunction,ComponentPad*
%ADD16O,1.905000X2.000000*%
G04 #@! TD*
G04 #@! TA.AperFunction,ComponentPad*
%ADD17R,2.500000X4.500000*%
G04 #@! TD*
G04 #@! TA.AperFunction,ComponentPad*
%ADD18O,2.500000X4.500000*%
G04 #@! TD*
G04 #@! TA.AperFunction,ComponentPad*
%ADD19C,1.600000*%
G04 #@! TD*
G04 #@! TA.AperFunction,ComponentPad*
%ADD20O,1.600000X1.600000*%
G04 #@! TD*
G04 #@! TA.AperFunction,ViaPad*
%ADD21C,0.800000*%
G04 #@! TD*
G04 #@! TA.AperFunction,Conductor*
%ADD22C,0.900000*%
G04 #@! TD*
G04 #@! TA.AperFunction,Conductor*
%ADD23C,0.254000*%
G04 #@! TD*
G04 APERTURE END LIST*
D10*
G04 #@! TO.P,A1,30*
G04 #@! TO.N,Net-(A1-Pad30)*
X33020000Y44958000D03*
G04 #@! TO.P,A1,1*
G04 #@! TO.N,D1*
X33020000Y29718000D03*
G04 #@! TO.P,A1,29*
G04 #@! TO.N,GND*
X35560000Y44958000D03*
G04 #@! TO.P,A1,2*
G04 #@! TO.N,D0*
X35560000Y29718000D03*
G04 #@! TO.P,A1,28*
G04 #@! TO.N,N/C*
X38100000Y44958000D03*
G04 #@! TO.P,A1,3*
X38100000Y29718000D03*
G04 #@! TO.P,A1,27*
G04 #@! TO.N,5V*
X40640000Y44958000D03*
G04 #@! TO.P,A1,4*
G04 #@! TO.N,GND*
X40640000Y29718000D03*
G04 #@! TO.P,A1,26*
G04 #@! TO.N,AD7*
X43180000Y44958000D03*
G04 #@! TO.P,A1,5*
G04 #@! TO.N,D2*
X43180000Y29718000D03*
G04 #@! TO.P,A1,25*
G04 #@! TO.N,AD6*
X45720000Y44958000D03*
G04 #@! TO.P,A1,6*
G04 #@! TO.N,D3*
X45720000Y29718000D03*
G04 #@! TO.P,A1,24*
G04 #@! TO.N,AD5*
X48260000Y44958000D03*
G04 #@! TO.P,A1,7*
G04 #@! TO.N,D4*
X48260000Y29718000D03*
G04 #@! TO.P,A1,23*
G04 #@! TO.N,AD4*
X50800000Y44958000D03*
G04 #@! TO.P,A1,8*
G04 #@! TO.N,D5*
X50800000Y29718000D03*
G04 #@! TO.P,A1,22*
G04 #@! TO.N,AD3*
X53340000Y44958000D03*
G04 #@! TO.P,A1,9*
G04 #@! TO.N,D6*
X53340000Y29718000D03*
G04 #@! TO.P,A1,21*
G04 #@! TO.N,AD2*
X55880000Y44958000D03*
G04 #@! TO.P,A1,10*
G04 #@! TO.N,D7*
X55880000Y29718000D03*
G04 #@! TO.P,A1,20*
G04 #@! TO.N,AD1*
X58420000Y44958000D03*
G04 #@! TO.P,A1,11*
G04 #@! TO.N,D8*
X58420000Y29718000D03*
G04 #@! TO.P,A1,19*
G04 #@! TO.N,AD0*
X60960000Y44958000D03*
G04 #@! TO.P,A1,12*
G04 #@! TO.N,D9*
X60960000Y29718000D03*
G04 #@! TO.P,A1,18*
G04 #@! TO.N,Net-(A1-Pad18)*
X63500000Y44958000D03*
G04 #@! TO.P,A1,13*
G04 #@! TO.N,D10*
X63500000Y29718000D03*
G04 #@! TO.P,A1,17*
G04 #@! TO.N,Net-(A1-Pad17)*
X66040000Y44958000D03*
G04 #@! TO.P,A1,14*
G04 #@! TO.N,D11*
X66040000Y29718000D03*
G04 #@! TO.P,A1,16*
G04 #@! TO.N,D13*
X68580000Y44958000D03*
G04 #@! TO.P,A1,15*
G04 #@! TO.N,D12*
X68580000Y29718000D03*
G04 #@! TD*
D11*
G04 #@! TO.P,D1,1*
G04 #@! TO.N,GND*
X40640000Y22098000D03*
D12*
G04 #@! TO.P,D1,2*
G04 #@! TO.N,D2*
X43180000Y22098000D03*
G04 #@! TD*
D13*
G04 #@! TO.P,J3,1*
G04 #@! TO.N,GND*
X30480000Y67564000D03*
D14*
G04 #@! TO.P,J3,2*
G04 #@! TO.N,Net-(A1-Pad30)*
X33020000Y67564000D03*
G04 #@! TD*
D13*
G04 #@! TO.P,J6,1*
G04 #@! TO.N,GND*
X9144000Y67564000D03*
D14*
G04 #@! TO.P,J6,2*
G04 #@! TO.N,36V*
X11684000Y67564000D03*
G04 #@! TD*
G04 #@! TO.P,J7,2*
G04 #@! TO.N,36V*
X8636000Y48260000D03*
D13*
G04 #@! TO.P,J7,1*
G04 #@! TO.N,GND*
X8636000Y50800000D03*
G04 #@! TD*
D15*
G04 #@! TO.P,Q1,1*
G04 #@! TO.N,D2*
X14224000Y8636000D03*
D16*
G04 #@! TO.P,Q1,2*
G04 #@! TO.N,5V*
X11684000Y8636000D03*
G04 #@! TO.P,Q1,3*
G04 #@! TO.N,CONTROL*
X9144000Y8636000D03*
G04 #@! TD*
D17*
G04 #@! TO.P,Q2,1*
G04 #@! TO.N,CONTROL*
X8636000Y18288000D03*
D18*
G04 #@! TO.P,Q2,2*
G04 #@! TO.N,36V*
X14086000Y18288000D03*
G04 #@! TO.P,Q2,3*
G04 #@! TO.N,GND*
X19536000Y18288000D03*
G04 #@! TD*
D19*
G04 #@! TO.P,R1,1*
G04 #@! TO.N,CONTROL*
X6858000Y25908000D03*
D20*
G04 #@! TO.P,R1,2*
G04 #@! TO.N,GND*
X22098000Y25908000D03*
G04 #@! TD*
D13*
G04 #@! TO.P,J1,1*
G04 #@! TO.N,GND*
X24892000Y42164000D03*
D14*
G04 #@! TO.P,J1,2*
G04 #@! TO.N,5V*
X24892000Y39624000D03*
G04 #@! TO.P,J1,3*
G04 #@! TO.N,Net-(A1-Pad17)*
X24892000Y37084000D03*
G04 #@! TO.P,J1,4*
G04 #@! TO.N,Net-(A1-Pad18)*
X24892000Y34544000D03*
G04 #@! TD*
D13*
G04 #@! TO.P,J2,1*
G04 #@! TO.N,GND*
X40640000Y11684000D03*
D14*
G04 #@! TO.P,J2,2*
G04 #@! TO.N,D2*
X43180000Y11684000D03*
G04 #@! TO.P,J2,3*
G04 #@! TO.N,D3*
X45720000Y11684000D03*
G04 #@! TO.P,J2,4*
G04 #@! TO.N,D4*
X48260000Y11684000D03*
G04 #@! TO.P,J2,5*
G04 #@! TO.N,D5*
X50800000Y11684000D03*
G04 #@! TO.P,J2,6*
G04 #@! TO.N,D6*
X53340000Y11684000D03*
G04 #@! TO.P,J2,7*
G04 #@! TO.N,D7*
X55880000Y11684000D03*
G04 #@! TO.P,J2,8*
G04 #@! TO.N,D8*
X58420000Y11684000D03*
G04 #@! TO.P,J2,9*
G04 #@! TO.N,D9*
X60960000Y11684000D03*
G04 #@! TO.P,J2,10*
G04 #@! TO.N,D10*
X63500000Y11684000D03*
G04 #@! TO.P,J2,11*
G04 #@! TO.N,D11*
X66040000Y11684000D03*
G04 #@! TO.P,J2,12*
G04 #@! TO.N,D12*
X68580000Y11684000D03*
G04 #@! TO.P,J2,13*
G04 #@! TO.N,D13*
X71120000Y11684000D03*
G04 #@! TD*
D13*
G04 #@! TO.P,J4,1*
G04 #@! TO.N,GND*
X63500000Y67564000D03*
D14*
G04 #@! TO.P,J4,2*
G04 #@! TO.N,AD0*
X60960000Y67564000D03*
G04 #@! TO.P,J4,3*
G04 #@! TO.N,AD1*
X58420000Y67564000D03*
G04 #@! TO.P,J4,4*
G04 #@! TO.N,AD2*
X55880000Y67564000D03*
G04 #@! TO.P,J4,5*
G04 #@! TO.N,AD3*
X53340000Y67564000D03*
G04 #@! TO.P,J4,6*
G04 #@! TO.N,AD4*
X50800000Y67564000D03*
G04 #@! TO.P,J4,7*
G04 #@! TO.N,AD5*
X48260000Y67564000D03*
G04 #@! TO.P,J4,8*
G04 #@! TO.N,AD6*
X45720000Y67564000D03*
G04 #@! TO.P,J4,9*
G04 #@! TO.N,AD7*
X43180000Y67564000D03*
G04 #@! TD*
D13*
G04 #@! TO.P,J5,1*
G04 #@! TO.N,GND*
X30480000Y11684000D03*
D14*
G04 #@! TO.P,J5,2*
G04 #@! TO.N,D1*
X33020000Y11684000D03*
G04 #@! TO.P,J5,3*
G04 #@! TO.N,D0*
X35560000Y11684000D03*
G04 #@! TD*
D21*
G04 #@! TO.N,D13*
X79502000Y35814000D03*
X70104000Y49530000D03*
G04 #@! TD*
D22*
G04 #@! TO.N,Net-(A1-Pad17)*
X24892000Y37084000D02*
X61976000Y37084000D01*
X66040000Y41148000D02*
X66040000Y44958000D01*
X61976000Y37084000D02*
X66040000Y41148000D01*
G04 #@! TO.N,Net-(A1-Pad18)*
X63500000Y50800000D02*
X63500000Y44958000D01*
X66802000Y34544000D02*
X73914000Y41656000D01*
X24892000Y34544000D02*
X66802000Y34544000D01*
X73914000Y41656000D02*
X73914000Y50038000D01*
X73914000Y50038000D02*
X69596000Y54356000D01*
X69596000Y54356000D02*
X67056000Y54356000D01*
X67056000Y54356000D02*
X63500000Y50800000D01*
G04 #@! TO.N,D1*
X33020000Y12886081D02*
X33020000Y29718000D01*
X33020000Y11684000D02*
X33020000Y12886081D01*
G04 #@! TO.N,D0*
X35560000Y28604449D02*
X35560000Y11684000D01*
X35560000Y29718000D02*
X35560000Y28604449D01*
G04 #@! TO.N,D2*
X16076500Y8636000D02*
X20140500Y4572000D01*
X14224000Y8636000D02*
X16076500Y8636000D01*
X20140500Y4572000D02*
X40894000Y4572000D01*
X43180000Y6858000D02*
X43180000Y11684000D01*
X40894000Y4572000D02*
X43180000Y6858000D01*
X43180000Y11684000D02*
X43180000Y22098000D01*
X43180000Y29718000D02*
X43180000Y22098000D01*
G04 #@! TO.N,D3*
X45720000Y29718000D02*
X45720000Y11684000D01*
G04 #@! TO.N,D4*
X48260000Y11684000D02*
X48260000Y29718000D01*
G04 #@! TO.N,D5*
X50800000Y28604449D02*
X50800000Y11684000D01*
X50800000Y29718000D02*
X50800000Y28604449D01*
G04 #@! TO.N,D6*
X53340000Y11684000D02*
X53340000Y29718000D01*
G04 #@! TO.N,D7*
X55880000Y29718000D02*
X55880000Y11684000D01*
G04 #@! TO.N,D8*
X58420000Y11684000D02*
X58420000Y29718000D01*
G04 #@! TO.N,D9*
X60960000Y29718000D02*
X60960000Y11684000D01*
G04 #@! TO.N,D10*
X63500000Y28604449D02*
X63500000Y11684000D01*
X63500000Y29718000D02*
X63500000Y28604449D01*
G04 #@! TO.N,D11*
X66040000Y29718000D02*
X66040000Y11684000D01*
G04 #@! TO.N,D12*
X68580000Y12886081D02*
X68580000Y29718000D01*
X68580000Y11684000D02*
X68580000Y12886081D01*
G04 #@! TO.N,D13*
X71120000Y11684000D02*
X71120000Y20574000D01*
X71120000Y20574000D02*
X79502000Y28956000D01*
X79502000Y28956000D02*
X79502000Y35814000D01*
X70104000Y46482000D02*
X68580000Y44958000D01*
X70104000Y49530000D02*
X70104000Y46482000D01*
G04 #@! TO.N,AD0*
X60960000Y67564000D02*
X60960000Y44958000D01*
G04 #@! TO.N,AD1*
X58420000Y67564000D02*
X58420000Y44958000D01*
G04 #@! TO.N,AD2*
X55880000Y66361919D02*
X55880000Y44958000D01*
X55880000Y67564000D02*
X55880000Y66361919D01*
G04 #@! TO.N,AD3*
X53340000Y67564000D02*
X53340000Y44958000D01*
G04 #@! TO.N,AD4*
X50800000Y67564000D02*
X50800000Y44958000D01*
G04 #@! TO.N,AD5*
X48260000Y66361919D02*
X48260000Y44958000D01*
X48260000Y67564000D02*
X48260000Y66361919D01*
G04 #@! TO.N,AD6*
X45720000Y44958000D02*
X45720000Y67564000D01*
G04 #@! TO.N,AD7*
X43180000Y67564000D02*
X43180000Y44958000D01*
G04 #@! TO.N,Net-(A1-Pad30)*
X33020000Y66361919D02*
X33020000Y44958000D01*
X33020000Y67564000D02*
X33020000Y66361919D01*
G04 #@! TO.N,36V*
X9838081Y48260000D02*
X8636000Y48260000D01*
X11684000Y50105919D02*
X9838081Y48260000D01*
X11684000Y67564000D02*
X11684000Y50105919D01*
X8636000Y48260000D02*
X8636000Y41148000D01*
X14086000Y35698000D02*
X14086000Y18288000D01*
X8636000Y41148000D02*
X14086000Y35698000D01*
G04 #@! TO.N,5V*
X24892000Y39624000D02*
X37592000Y39624000D01*
X40640000Y42672000D02*
X40640000Y44958000D01*
X37592000Y39624000D02*
X40640000Y42672000D01*
X24042001Y38774001D02*
X19470001Y38774001D01*
X24892000Y39624000D02*
X24042001Y38774001D01*
X19470001Y38774001D02*
X16510000Y35814000D01*
X16510000Y35814000D02*
X16510000Y13208000D01*
X16510000Y13208000D02*
X15240000Y11938000D01*
X13086000Y11938000D02*
X11684000Y10536000D01*
X11684000Y10536000D02*
X11684000Y8636000D01*
X15240000Y11938000D02*
X13086000Y11938000D01*
G04 #@! TO.N,CONTROL*
X6858000Y20066000D02*
X8636000Y18288000D01*
X6858000Y25908000D02*
X6858000Y20066000D01*
X9144000Y17780000D02*
X8636000Y18288000D01*
X9144000Y8636000D02*
X9144000Y17780000D01*
G04 #@! TD*
D23*
G04 #@! TO.N,GND*
G36*
X99620000Y710000D02*
X710000Y710000D01*
X710000Y4000569D01*
X1321000Y4000569D01*
X1321000Y3111431D01*
X1661259Y2289974D01*
X2289974Y1661259D01*
X3111431Y1321000D01*
X4000569Y1321000D01*
X4822026Y1661259D01*
X5450741Y2289974D01*
X5791000Y3111431D01*
X5791000Y4000569D01*
X5450741Y4822026D01*
X4822026Y5450741D01*
X4000569Y5791000D01*
X3111431Y5791000D01*
X2289974Y5450741D01*
X1661259Y4822026D01*
X1321000Y4000569D01*
X710000Y4000569D01*
X710000Y26193439D01*
X5423000Y26193439D01*
X5423000Y25622561D01*
X5641466Y25095138D01*
X5773000Y24963604D01*
X5773001Y20172862D01*
X5751745Y20066000D01*
X5835953Y19642655D01*
X5835954Y19642654D01*
X6075760Y19283759D01*
X6166353Y19223226D01*
X6738560Y18651019D01*
X6738560Y16038000D01*
X6787843Y15790235D01*
X6928191Y15580191D01*
X7138235Y15439843D01*
X7386000Y15390560D01*
X8059001Y15390560D01*
X8059000Y9867795D01*
X7999477Y9828023D01*
X7648609Y9302911D01*
X7556500Y8839850D01*
X7556500Y8432151D01*
X7648609Y7969090D01*
X7999477Y7443977D01*
X8524589Y7093109D01*
X9144000Y6969900D01*
X9763410Y7093109D01*
X10288523Y7443977D01*
X10414000Y7631767D01*
X10539477Y7443977D01*
X11064589Y7093109D01*
X11684000Y6969900D01*
X12303410Y7093109D01*
X12695491Y7355088D01*
X12813691Y7178191D01*
X13023735Y7037843D01*
X13271500Y6988560D01*
X15176500Y6988560D01*
X15424265Y7037843D01*
X15634309Y7178191D01*
X15774657Y7388235D01*
X15777177Y7400903D01*
X19297728Y3880350D01*
X19358259Y3789759D01*
X19448850Y3729228D01*
X19448851Y3729227D01*
X19717154Y3549953D01*
X20033639Y3487000D01*
X20033643Y3487000D01*
X20140500Y3465745D01*
X20247357Y3487000D01*
X40787143Y3487000D01*
X40894000Y3465745D01*
X41000857Y3487000D01*
X41000861Y3487000D01*
X41317346Y3549953D01*
X41676241Y3789759D01*
X41736776Y3880356D01*
X41856989Y4000569D01*
X94539000Y4000569D01*
X94539000Y3111431D01*
X94879259Y2289974D01*
X95507974Y1661259D01*
X96329431Y1321000D01*
X97218569Y1321000D01*
X98040026Y1661259D01*
X98668741Y2289974D01*
X99009000Y3111431D01*
X99009000Y4000569D01*
X98668741Y4822026D01*
X98040026Y5450741D01*
X97218569Y5791000D01*
X96329431Y5791000D01*
X95507974Y5450741D01*
X94879259Y4822026D01*
X94539000Y4000569D01*
X41856989Y4000569D01*
X43871647Y6015226D01*
X43962241Y6075759D01*
X44202047Y6434654D01*
X44265000Y6751139D01*
X44265000Y6751142D01*
X44286255Y6857999D01*
X44265000Y6964856D01*
X44265000Y10634889D01*
X44450000Y10911761D01*
X44649375Y10613375D01*
X45140582Y10285161D01*
X45573744Y10199000D01*
X45866256Y10199000D01*
X46299418Y10285161D01*
X46790625Y10613375D01*
X46990000Y10911761D01*
X47189375Y10613375D01*
X47680582Y10285161D01*
X48113744Y10199000D01*
X48406256Y10199000D01*
X48839418Y10285161D01*
X49330625Y10613375D01*
X49530000Y10911761D01*
X49729375Y10613375D01*
X50220582Y10285161D01*
X50653744Y10199000D01*
X50946256Y10199000D01*
X51379418Y10285161D01*
X51870625Y10613375D01*
X52070000Y10911761D01*
X52269375Y10613375D01*
X52760582Y10285161D01*
X53193744Y10199000D01*
X53486256Y10199000D01*
X53919418Y10285161D01*
X54410625Y10613375D01*
X54610000Y10911761D01*
X54809375Y10613375D01*
X55300582Y10285161D01*
X55733744Y10199000D01*
X56026256Y10199000D01*
X56459418Y10285161D01*
X56950625Y10613375D01*
X57150000Y10911761D01*
X57349375Y10613375D01*
X57840582Y10285161D01*
X58273744Y10199000D01*
X58566256Y10199000D01*
X58999418Y10285161D01*
X59490625Y10613375D01*
X59690000Y10911761D01*
X59889375Y10613375D01*
X60380582Y10285161D01*
X60813744Y10199000D01*
X61106256Y10199000D01*
X61539418Y10285161D01*
X62030625Y10613375D01*
X62230000Y10911761D01*
X62429375Y10613375D01*
X62920582Y10285161D01*
X63353744Y10199000D01*
X63646256Y10199000D01*
X64079418Y10285161D01*
X64570625Y10613375D01*
X64770000Y10911761D01*
X64969375Y10613375D01*
X65460582Y10285161D01*
X65893744Y10199000D01*
X66186256Y10199000D01*
X66619418Y10285161D01*
X67110625Y10613375D01*
X67310000Y10911761D01*
X67509375Y10613375D01*
X68000582Y10285161D01*
X68433744Y10199000D01*
X68726256Y10199000D01*
X69159418Y10285161D01*
X69650625Y10613375D01*
X69850000Y10911761D01*
X70049375Y10613375D01*
X70540582Y10285161D01*
X70973744Y10199000D01*
X71266256Y10199000D01*
X71699418Y10285161D01*
X72190625Y10613375D01*
X72518839Y11104582D01*
X72634092Y11684000D01*
X72518839Y12263418D01*
X72205000Y12733111D01*
X72205000Y20124580D01*
X80193648Y28113227D01*
X80284241Y28173759D01*
X80524047Y28532654D01*
X80587000Y28849139D01*
X80587000Y28849142D01*
X80608255Y28955999D01*
X80587000Y29062856D01*
X80587000Y35920861D01*
X80524047Y36237346D01*
X80284241Y36596241D01*
X79925346Y36836047D01*
X79502000Y36920256D01*
X79078655Y36836047D01*
X78719760Y36596241D01*
X78479954Y36237346D01*
X78417001Y35920861D01*
X78417000Y29405421D01*
X70428354Y21416774D01*
X70337760Y21356241D01*
X70190705Y21136157D01*
X70097953Y20997345D01*
X70013745Y20574000D01*
X70035001Y20467138D01*
X70035000Y12733111D01*
X69850000Y12456239D01*
X69665000Y12733111D01*
X69665000Y28791423D01*
X69785852Y28912275D01*
X70002400Y29435067D01*
X70002400Y30000933D01*
X69785852Y30523725D01*
X69385725Y30923852D01*
X68862933Y31140400D01*
X68297067Y31140400D01*
X67774275Y30923852D01*
X67374148Y30523725D01*
X67310000Y30368858D01*
X67245852Y30523725D01*
X66845725Y30923852D01*
X66322933Y31140400D01*
X65757067Y31140400D01*
X65234275Y30923852D01*
X64834148Y30523725D01*
X64770000Y30368858D01*
X64705852Y30523725D01*
X64305725Y30923852D01*
X63782933Y31140400D01*
X63217067Y31140400D01*
X62694275Y30923852D01*
X62294148Y30523725D01*
X62230000Y30368858D01*
X62165852Y30523725D01*
X61765725Y30923852D01*
X61242933Y31140400D01*
X60677067Y31140400D01*
X60154275Y30923852D01*
X59754148Y30523725D01*
X59690000Y30368858D01*
X59625852Y30523725D01*
X59225725Y30923852D01*
X58702933Y31140400D01*
X58137067Y31140400D01*
X57614275Y30923852D01*
X57214148Y30523725D01*
X57150000Y30368858D01*
X57085852Y30523725D01*
X56685725Y30923852D01*
X56162933Y31140400D01*
X55597067Y31140400D01*
X55074275Y30923852D01*
X54674148Y30523725D01*
X54610000Y30368858D01*
X54545852Y30523725D01*
X54145725Y30923852D01*
X53622933Y31140400D01*
X53057067Y31140400D01*
X52534275Y30923852D01*
X52134148Y30523725D01*
X52070000Y30368858D01*
X52005852Y30523725D01*
X51605725Y30923852D01*
X51082933Y31140400D01*
X50517067Y31140400D01*
X49994275Y30923852D01*
X49594148Y30523725D01*
X49530000Y30368858D01*
X49465852Y30523725D01*
X49065725Y30923852D01*
X48542933Y31140400D01*
X47977067Y31140400D01*
X47454275Y30923852D01*
X47054148Y30523725D01*
X46990000Y30368858D01*
X46925852Y30523725D01*
X46525725Y30923852D01*
X46002933Y31140400D01*
X45437067Y31140400D01*
X44914275Y30923852D01*
X44514148Y30523725D01*
X44450000Y30368858D01*
X44385852Y30523725D01*
X43985725Y30923852D01*
X43462933Y31140400D01*
X42897067Y31140400D01*
X42374275Y30923852D01*
X41974148Y30523725D01*
X41916509Y30384571D01*
X41883432Y30464425D01*
X41638617Y30537011D01*
X40819605Y29718000D01*
X41638617Y28898989D01*
X41883432Y28971575D01*
X41914127Y29057179D01*
X41974148Y28912275D01*
X42095000Y28791423D01*
X42095001Y23317445D01*
X42078327Y23357699D01*
X41899698Y23536327D01*
X41666309Y23633000D01*
X40925750Y23633000D01*
X40767000Y23474250D01*
X40767000Y22225000D01*
X40787000Y22225000D01*
X40787000Y21971000D01*
X40767000Y21971000D01*
X40767000Y20721750D01*
X40925750Y20563000D01*
X41666309Y20563000D01*
X41899698Y20659673D01*
X42078327Y20838301D01*
X42095001Y20878555D01*
X42095000Y12733111D01*
X42094904Y12732967D01*
X42028327Y12893698D01*
X41849699Y13072327D01*
X41616310Y13169000D01*
X40925750Y13169000D01*
X40767000Y13010250D01*
X40767000Y11811000D01*
X40787000Y11811000D01*
X40787000Y11557000D01*
X40767000Y11557000D01*
X40767000Y10357750D01*
X40925750Y10199000D01*
X41616310Y10199000D01*
X41849699Y10295673D01*
X42028327Y10474302D01*
X42094904Y10635033D01*
X42095001Y10634888D01*
X42095000Y7307421D01*
X40444580Y5657000D01*
X20589922Y5657000D01*
X16919276Y9327644D01*
X16858741Y9418241D01*
X16499846Y9658047D01*
X16183361Y9721000D01*
X16183357Y9721000D01*
X16076500Y9742255D01*
X15969643Y9721000D01*
X15807033Y9721000D01*
X15774657Y9883765D01*
X15634309Y10093809D01*
X15424265Y10234157D01*
X15176500Y10283440D01*
X13271500Y10283440D01*
X13023735Y10234157D01*
X12813691Y10093809D01*
X12769000Y10026925D01*
X12769000Y10086579D01*
X13535421Y10853000D01*
X15133143Y10853000D01*
X15240000Y10831745D01*
X15346857Y10853000D01*
X15346861Y10853000D01*
X15663346Y10915953D01*
X16022241Y11155759D01*
X16082776Y11246356D01*
X16234670Y11398250D01*
X28995000Y11398250D01*
X28995000Y10707691D01*
X29091673Y10474302D01*
X29270301Y10295673D01*
X29503690Y10199000D01*
X30194250Y10199000D01*
X30353000Y10357750D01*
X30353000Y11557000D01*
X29153750Y11557000D01*
X28995000Y11398250D01*
X16234670Y11398250D01*
X17201647Y12365226D01*
X17292241Y12425759D01*
X17448962Y12660309D01*
X28995000Y12660309D01*
X28995000Y11969750D01*
X29153750Y11811000D01*
X30353000Y11811000D01*
X30353000Y13010250D01*
X30607000Y13010250D01*
X30607000Y11811000D01*
X30627000Y11811000D01*
X30627000Y11557000D01*
X30607000Y11557000D01*
X30607000Y10357750D01*
X30765750Y10199000D01*
X31456310Y10199000D01*
X31689699Y10295673D01*
X31868327Y10474302D01*
X31934904Y10635033D01*
X31949375Y10613375D01*
X32440582Y10285161D01*
X32873744Y10199000D01*
X33166256Y10199000D01*
X33599418Y10285161D01*
X34090625Y10613375D01*
X34290000Y10911761D01*
X34489375Y10613375D01*
X34980582Y10285161D01*
X35413744Y10199000D01*
X35706256Y10199000D01*
X36139418Y10285161D01*
X36630625Y10613375D01*
X36958839Y11104582D01*
X37017252Y11398250D01*
X39155000Y11398250D01*
X39155000Y10707691D01*
X39251673Y10474302D01*
X39430301Y10295673D01*
X39663690Y10199000D01*
X40354250Y10199000D01*
X40513000Y10357750D01*
X40513000Y11557000D01*
X39313750Y11557000D01*
X39155000Y11398250D01*
X37017252Y11398250D01*
X37074092Y11684000D01*
X36958839Y12263418D01*
X36693645Y12660309D01*
X39155000Y12660309D01*
X39155000Y11969750D01*
X39313750Y11811000D01*
X40513000Y11811000D01*
X40513000Y13010250D01*
X40354250Y13169000D01*
X39663690Y13169000D01*
X39430301Y13072327D01*
X39251673Y12893698D01*
X39155000Y12660309D01*
X36693645Y12660309D01*
X36645000Y12733111D01*
X36645000Y21812250D01*
X39105000Y21812250D01*
X39105000Y21071690D01*
X39201673Y20838301D01*
X39380302Y20659673D01*
X39613691Y20563000D01*
X40354250Y20563000D01*
X40513000Y20721750D01*
X40513000Y21971000D01*
X39263750Y21971000D01*
X39105000Y21812250D01*
X36645000Y21812250D01*
X36645000Y23124310D01*
X39105000Y23124310D01*
X39105000Y22383750D01*
X39263750Y22225000D01*
X40513000Y22225000D01*
X40513000Y23474250D01*
X40354250Y23633000D01*
X39613691Y23633000D01*
X39380302Y23536327D01*
X39201673Y23357699D01*
X39105000Y23124310D01*
X36645000Y23124310D01*
X36645000Y28791423D01*
X36765852Y28912275D01*
X36830000Y29067142D01*
X36894148Y28912275D01*
X37294275Y28512148D01*
X37817067Y28295600D01*
X38382933Y28295600D01*
X38905725Y28512148D01*
X39112960Y28719383D01*
X39820989Y28719383D01*
X39893575Y28474568D01*
X40426235Y28283574D01*
X40991438Y28310959D01*
X41386425Y28474568D01*
X41459011Y28719383D01*
X40640000Y29538395D01*
X39820989Y28719383D01*
X39112960Y28719383D01*
X39305852Y28912275D01*
X39363491Y29051429D01*
X39396568Y28971575D01*
X39641383Y28898989D01*
X40460395Y29718000D01*
X39641383Y30537011D01*
X39396568Y30464425D01*
X39365873Y30378821D01*
X39305852Y30523725D01*
X39112960Y30716617D01*
X39820989Y30716617D01*
X40640000Y29897605D01*
X41459011Y30716617D01*
X41386425Y30961432D01*
X40853765Y31152426D01*
X40288562Y31125041D01*
X39893575Y30961432D01*
X39820989Y30716617D01*
X39112960Y30716617D01*
X38905725Y30923852D01*
X38382933Y31140400D01*
X37817067Y31140400D01*
X37294275Y30923852D01*
X36894148Y30523725D01*
X36830000Y30368858D01*
X36765852Y30523725D01*
X36365725Y30923852D01*
X35842933Y31140400D01*
X35277067Y31140400D01*
X34754275Y30923852D01*
X34354148Y30523725D01*
X34290000Y30368858D01*
X34225852Y30523725D01*
X33825725Y30923852D01*
X33302933Y31140400D01*
X32737067Y31140400D01*
X32214275Y30923852D01*
X31814148Y30523725D01*
X31597600Y30000933D01*
X31597600Y29435067D01*
X31814148Y28912275D01*
X31935001Y28791422D01*
X31935000Y12992942D01*
X31935000Y12733111D01*
X31934904Y12732967D01*
X31868327Y12893698D01*
X31689699Y13072327D01*
X31456310Y13169000D01*
X30765750Y13169000D01*
X30607000Y13010250D01*
X30353000Y13010250D01*
X30194250Y13169000D01*
X29503690Y13169000D01*
X29270301Y13072327D01*
X29091673Y12893698D01*
X28995000Y12660309D01*
X17448962Y12660309D01*
X17532047Y12784654D01*
X17595000Y13101139D01*
X17595000Y13101142D01*
X17616255Y13207999D01*
X17595000Y13314856D01*
X17595000Y18161000D01*
X17651000Y18161000D01*
X17651000Y17161000D01*
X17843088Y16449309D01*
X18292906Y15865301D01*
X18931974Y15497886D01*
X19116355Y15450305D01*
X19409000Y15566428D01*
X19409000Y18161000D01*
X19663000Y18161000D01*
X19663000Y15566428D01*
X19955645Y15450305D01*
X20140026Y15497886D01*
X20779094Y15865301D01*
X21228912Y16449309D01*
X21421000Y17161000D01*
X21421000Y18161000D01*
X19663000Y18161000D01*
X19409000Y18161000D01*
X17651000Y18161000D01*
X17595000Y18161000D01*
X17595000Y19415000D01*
X17651000Y19415000D01*
X17651000Y18415000D01*
X19409000Y18415000D01*
X19409000Y21009572D01*
X19663000Y21009572D01*
X19663000Y18415000D01*
X21421000Y18415000D01*
X21421000Y19415000D01*
X21228912Y20126691D01*
X20779094Y20710699D01*
X20140026Y21078114D01*
X19955645Y21125695D01*
X19663000Y21009572D01*
X19409000Y21009572D01*
X19116355Y21125695D01*
X18931974Y21078114D01*
X18292906Y20710699D01*
X17843088Y20126691D01*
X17651000Y19415000D01*
X17595000Y19415000D01*
X17595000Y25558961D01*
X20706096Y25558961D01*
X20866959Y25170577D01*
X21242866Y24755611D01*
X21748959Y24516086D01*
X21971000Y24637371D01*
X21971000Y25781000D01*
X22225000Y25781000D01*
X22225000Y24637371D01*
X22447041Y24516086D01*
X22953134Y24755611D01*
X23329041Y25170577D01*
X23489904Y25558961D01*
X23367915Y25781000D01*
X22225000Y25781000D01*
X21971000Y25781000D01*
X20828085Y25781000D01*
X20706096Y25558961D01*
X17595000Y25558961D01*
X17595000Y26257039D01*
X20706096Y26257039D01*
X20828085Y26035000D01*
X21971000Y26035000D01*
X21971000Y27178629D01*
X22225000Y27178629D01*
X22225000Y26035000D01*
X23367915Y26035000D01*
X23489904Y26257039D01*
X23329041Y26645423D01*
X22953134Y27060389D01*
X22447041Y27299914D01*
X22225000Y27178629D01*
X21971000Y27178629D01*
X21748959Y27299914D01*
X21242866Y27060389D01*
X20866959Y26645423D01*
X20706096Y26257039D01*
X17595000Y26257039D01*
X17595000Y35364580D01*
X19919423Y37689001D01*
X23510255Y37689001D01*
X23493161Y37663418D01*
X23377908Y37084000D01*
X23493161Y36504582D01*
X23821375Y36013375D01*
X24119761Y35814000D01*
X23821375Y35614625D01*
X23493161Y35123418D01*
X23377908Y34544000D01*
X23493161Y33964582D01*
X23821375Y33473375D01*
X24312582Y33145161D01*
X24745744Y33059000D01*
X25038256Y33059000D01*
X25471418Y33145161D01*
X25941111Y33459000D01*
X66695143Y33459000D01*
X66802000Y33437745D01*
X66908857Y33459000D01*
X66908861Y33459000D01*
X67225346Y33521953D01*
X67584241Y33761759D01*
X67644776Y33852356D01*
X74605650Y40813228D01*
X74696241Y40873759D01*
X74808082Y41041140D01*
X74936047Y41232654D01*
X74936047Y41232655D01*
X74999000Y41549139D01*
X74999000Y41549143D01*
X75020255Y41656000D01*
X74999000Y41762857D01*
X74999000Y49931144D01*
X75020255Y50038001D01*
X74999000Y50144858D01*
X74999000Y50144861D01*
X74936047Y50461346D01*
X74696241Y50820241D01*
X74605647Y50880774D01*
X70438776Y55047644D01*
X70378241Y55138241D01*
X70019346Y55378047D01*
X69702861Y55441000D01*
X69702857Y55441000D01*
X69596000Y55462255D01*
X69489143Y55441000D01*
X67162855Y55441000D01*
X67055999Y55462255D01*
X66949143Y55441000D01*
X66949139Y55441000D01*
X66632654Y55378047D01*
X66273759Y55138241D01*
X66213228Y55047650D01*
X62808356Y51642776D01*
X62717759Y51582241D01*
X62477953Y51223345D01*
X62415000Y50906860D01*
X62415000Y50906857D01*
X62393745Y50800000D01*
X62415000Y50693143D01*
X62415001Y45884578D01*
X62294148Y45763725D01*
X62230000Y45608858D01*
X62165852Y45763725D01*
X62045000Y45884577D01*
X62045000Y66514889D01*
X62045096Y66515033D01*
X62111673Y66354302D01*
X62290301Y66175673D01*
X62523690Y66079000D01*
X63214250Y66079000D01*
X63373000Y66237750D01*
X63373000Y67437000D01*
X63627000Y67437000D01*
X63627000Y66237750D01*
X63785750Y66079000D01*
X64476310Y66079000D01*
X64709699Y66175673D01*
X64888327Y66354302D01*
X64985000Y66587691D01*
X64985000Y67278250D01*
X64826250Y67437000D01*
X63627000Y67437000D01*
X63373000Y67437000D01*
X63353000Y67437000D01*
X63353000Y67691000D01*
X63373000Y67691000D01*
X63373000Y68890250D01*
X63627000Y68890250D01*
X63627000Y67691000D01*
X64826250Y67691000D01*
X64985000Y67849750D01*
X64985000Y68540309D01*
X64888327Y68773698D01*
X64709699Y68952327D01*
X64476310Y69049000D01*
X63785750Y69049000D01*
X63627000Y68890250D01*
X63373000Y68890250D01*
X63214250Y69049000D01*
X62523690Y69049000D01*
X62290301Y68952327D01*
X62111673Y68773698D01*
X62045096Y68612967D01*
X62030625Y68634625D01*
X61539418Y68962839D01*
X61106256Y69049000D01*
X60813744Y69049000D01*
X60380582Y68962839D01*
X59889375Y68634625D01*
X59690000Y68336239D01*
X59490625Y68634625D01*
X58999418Y68962839D01*
X58566256Y69049000D01*
X58273744Y69049000D01*
X57840582Y68962839D01*
X57349375Y68634625D01*
X57150000Y68336239D01*
X56950625Y68634625D01*
X56459418Y68962839D01*
X56026256Y69049000D01*
X55733744Y69049000D01*
X55300582Y68962839D01*
X54809375Y68634625D01*
X54610000Y68336239D01*
X54410625Y68634625D01*
X53919418Y68962839D01*
X53486256Y69049000D01*
X53193744Y69049000D01*
X52760582Y68962839D01*
X52269375Y68634625D01*
X52070000Y68336239D01*
X51870625Y68634625D01*
X51379418Y68962839D01*
X50946256Y69049000D01*
X50653744Y69049000D01*
X50220582Y68962839D01*
X49729375Y68634625D01*
X49530000Y68336239D01*
X49330625Y68634625D01*
X48839418Y68962839D01*
X48406256Y69049000D01*
X48113744Y69049000D01*
X47680582Y68962839D01*
X47189375Y68634625D01*
X46990000Y68336239D01*
X46790625Y68634625D01*
X46299418Y68962839D01*
X45866256Y69049000D01*
X45573744Y69049000D01*
X45140582Y68962839D01*
X44649375Y68634625D01*
X44450000Y68336239D01*
X44250625Y68634625D01*
X43759418Y68962839D01*
X43326256Y69049000D01*
X43033744Y69049000D01*
X42600582Y68962839D01*
X42109375Y68634625D01*
X41781161Y68143418D01*
X41665908Y67564000D01*
X41781161Y66984582D01*
X42095000Y66514889D01*
X42095001Y45884578D01*
X41974148Y45763725D01*
X41910000Y45608858D01*
X41845852Y45763725D01*
X41445725Y46163852D01*
X40922933Y46380400D01*
X40357067Y46380400D01*
X39834275Y46163852D01*
X39434148Y45763725D01*
X39370000Y45608858D01*
X39305852Y45763725D01*
X38905725Y46163852D01*
X38382933Y46380400D01*
X37817067Y46380400D01*
X37294275Y46163852D01*
X36894148Y45763725D01*
X36836509Y45624571D01*
X36803432Y45704425D01*
X36558617Y45777011D01*
X35739605Y44958000D01*
X36558617Y44138989D01*
X36803432Y44211575D01*
X36834127Y44297179D01*
X36894148Y44152275D01*
X37294275Y43752148D01*
X37817067Y43535600D01*
X38382933Y43535600D01*
X38905725Y43752148D01*
X39305852Y44152275D01*
X39370000Y44307142D01*
X39434148Y44152275D01*
X39555001Y44031422D01*
X39555000Y43121422D01*
X37142580Y40709000D01*
X25941111Y40709000D01*
X25940967Y40709096D01*
X26101698Y40775673D01*
X26280327Y40954301D01*
X26377000Y41187690D01*
X26377000Y41878250D01*
X26218250Y42037000D01*
X25019000Y42037000D01*
X25019000Y42017000D01*
X24765000Y42017000D01*
X24765000Y42037000D01*
X23565750Y42037000D01*
X23407000Y41878250D01*
X23407000Y41187690D01*
X23503673Y40954301D01*
X23682302Y40775673D01*
X23843033Y40709096D01*
X23821375Y40694625D01*
X23493161Y40203418D01*
X23424652Y39859001D01*
X19576862Y39859001D01*
X19470001Y39880257D01*
X19046655Y39796048D01*
X18778352Y39616774D01*
X18778351Y39616773D01*
X18687760Y39556242D01*
X18627229Y39465651D01*
X15818356Y36656776D01*
X15727759Y36596241D01*
X15487953Y36237345D01*
X15425000Y35920860D01*
X15425000Y35920857D01*
X15403745Y35814000D01*
X15425000Y35707143D01*
X15425001Y20660378D01*
X15171000Y20830096D01*
X15171000Y35591143D01*
X15192255Y35698000D01*
X15171000Y35804857D01*
X15171000Y35804861D01*
X15108047Y36121346D01*
X15030538Y36237346D01*
X14928773Y36389649D01*
X14928772Y36389650D01*
X14868241Y36480241D01*
X14777650Y36540772D01*
X9721000Y41597420D01*
X9721000Y43140310D01*
X23407000Y43140310D01*
X23407000Y42449750D01*
X23565750Y42291000D01*
X24765000Y42291000D01*
X24765000Y43490250D01*
X25019000Y43490250D01*
X25019000Y42291000D01*
X26218250Y42291000D01*
X26377000Y42449750D01*
X26377000Y43140310D01*
X26280327Y43373699D01*
X26101698Y43552327D01*
X25868309Y43649000D01*
X25177750Y43649000D01*
X25019000Y43490250D01*
X24765000Y43490250D01*
X24606250Y43649000D01*
X23915691Y43649000D01*
X23682302Y43552327D01*
X23503673Y43373699D01*
X23407000Y43140310D01*
X9721000Y43140310D01*
X9721000Y47175000D01*
X9731224Y47175000D01*
X9838081Y47153745D01*
X9944938Y47175000D01*
X9944942Y47175000D01*
X10261427Y47237953D01*
X10620322Y47477759D01*
X10680857Y47568356D01*
X12375650Y49263147D01*
X12466241Y49323678D01*
X12706047Y49682573D01*
X12769000Y49999058D01*
X12790256Y50105919D01*
X12769000Y50212780D01*
X12769000Y66514889D01*
X13082839Y66984582D01*
X13141252Y67278250D01*
X28995000Y67278250D01*
X28995000Y66587691D01*
X29091673Y66354302D01*
X29270301Y66175673D01*
X29503690Y66079000D01*
X30194250Y66079000D01*
X30353000Y66237750D01*
X30353000Y67437000D01*
X29153750Y67437000D01*
X28995000Y67278250D01*
X13141252Y67278250D01*
X13198092Y67564000D01*
X13082839Y68143418D01*
X12817645Y68540309D01*
X28995000Y68540309D01*
X28995000Y67849750D01*
X29153750Y67691000D01*
X30353000Y67691000D01*
X30353000Y68890250D01*
X30607000Y68890250D01*
X30607000Y67691000D01*
X30627000Y67691000D01*
X30627000Y67437000D01*
X30607000Y67437000D01*
X30607000Y66237750D01*
X30765750Y66079000D01*
X31456310Y66079000D01*
X31689699Y66175673D01*
X31868327Y66354302D01*
X31934904Y66515033D01*
X31935000Y66514889D01*
X31935000Y66468779D01*
X31935001Y45884578D01*
X31814148Y45763725D01*
X31597600Y45240933D01*
X31597600Y44675067D01*
X31814148Y44152275D01*
X32214275Y43752148D01*
X32737067Y43535600D01*
X33302933Y43535600D01*
X33825725Y43752148D01*
X34032960Y43959383D01*
X34740989Y43959383D01*
X34813575Y43714568D01*
X35346235Y43523574D01*
X35911438Y43550959D01*
X36306425Y43714568D01*
X36379011Y43959383D01*
X35560000Y44778395D01*
X34740989Y43959383D01*
X34032960Y43959383D01*
X34225852Y44152275D01*
X34283491Y44291429D01*
X34316568Y44211575D01*
X34561383Y44138989D01*
X35380395Y44958000D01*
X34561383Y45777011D01*
X34316568Y45704425D01*
X34285873Y45618821D01*
X34225852Y45763725D01*
X34105000Y45884577D01*
X34105000Y45956617D01*
X34740989Y45956617D01*
X35560000Y45137605D01*
X36379011Y45956617D01*
X36306425Y46201432D01*
X35773765Y46392426D01*
X35208562Y46365041D01*
X34813575Y46201432D01*
X34740989Y45956617D01*
X34105000Y45956617D01*
X34105000Y66514889D01*
X34418839Y66984582D01*
X34534092Y67564000D01*
X34418839Y68143418D01*
X34090625Y68634625D01*
X33599418Y68962839D01*
X33166256Y69049000D01*
X32873744Y69049000D01*
X32440582Y68962839D01*
X31949375Y68634625D01*
X31934904Y68612967D01*
X31868327Y68773698D01*
X31689699Y68952327D01*
X31456310Y69049000D01*
X30765750Y69049000D01*
X30607000Y68890250D01*
X30353000Y68890250D01*
X30194250Y69049000D01*
X29503690Y69049000D01*
X29270301Y68952327D01*
X29091673Y68773698D01*
X28995000Y68540309D01*
X12817645Y68540309D01*
X12754625Y68634625D01*
X12263418Y68962839D01*
X11830256Y69049000D01*
X11537744Y69049000D01*
X11104582Y68962839D01*
X10613375Y68634625D01*
X10598904Y68612967D01*
X10532327Y68773698D01*
X10353699Y68952327D01*
X10120310Y69049000D01*
X9429750Y69049000D01*
X9271000Y68890250D01*
X9271000Y67691000D01*
X9291000Y67691000D01*
X9291000Y67437000D01*
X9271000Y67437000D01*
X9271000Y66237750D01*
X9429750Y66079000D01*
X10120310Y66079000D01*
X10353699Y66175673D01*
X10532327Y66354302D01*
X10598904Y66515033D01*
X10599000Y66514889D01*
X10599001Y50555342D01*
X10121000Y50077340D01*
X10121000Y50514250D01*
X9962250Y50673000D01*
X8763000Y50673000D01*
X8763000Y50653000D01*
X8509000Y50653000D01*
X8509000Y50673000D01*
X7309750Y50673000D01*
X7151000Y50514250D01*
X7151000Y49823690D01*
X7247673Y49590301D01*
X7426302Y49411673D01*
X7587033Y49345096D01*
X7565375Y49330625D01*
X7237161Y48839418D01*
X7121908Y48260000D01*
X7237161Y47680582D01*
X7551000Y47210888D01*
X7551001Y41254862D01*
X7529745Y41148000D01*
X7613953Y40724655D01*
X7674558Y40633953D01*
X7853760Y40365759D01*
X7944354Y40305226D01*
X13001000Y35248578D01*
X13001001Y20830096D01*
X12726991Y20647009D01*
X12310369Y20023489D01*
X12201000Y19473654D01*
X12201001Y17102345D01*
X12310370Y16552510D01*
X12726992Y15928991D01*
X13350511Y15512369D01*
X14086000Y15366071D01*
X14821490Y15512369D01*
X15425001Y15915622D01*
X15425001Y13657422D01*
X14790580Y13023000D01*
X13192855Y13023000D01*
X13085999Y13044255D01*
X12979143Y13023000D01*
X12979139Y13023000D01*
X12662654Y12960047D01*
X12303759Y12720241D01*
X12243228Y12629649D01*
X10992355Y11378776D01*
X10901759Y11318241D01*
X10661953Y10959345D01*
X10599000Y10642860D01*
X10599000Y10642857D01*
X10577745Y10536000D01*
X10599000Y10429143D01*
X10599000Y9867795D01*
X10539477Y9828023D01*
X10414000Y9640233D01*
X10288523Y9828023D01*
X10229000Y9867795D01*
X10229000Y15503477D01*
X10343809Y15580191D01*
X10484157Y15790235D01*
X10533440Y16038000D01*
X10533440Y20538000D01*
X10484157Y20785765D01*
X10343809Y20995809D01*
X10133765Y21136157D01*
X9886000Y21185440D01*
X7943000Y21185440D01*
X7943000Y24963604D01*
X8074534Y25095138D01*
X8293000Y25622561D01*
X8293000Y26193439D01*
X8074534Y26720862D01*
X7670862Y27124534D01*
X7143439Y27343000D01*
X6572561Y27343000D01*
X6045138Y27124534D01*
X5641466Y26720862D01*
X5423000Y26193439D01*
X710000Y26193439D01*
X710000Y51776310D01*
X7151000Y51776310D01*
X7151000Y51085750D01*
X7309750Y50927000D01*
X8509000Y50927000D01*
X8509000Y52126250D01*
X8763000Y52126250D01*
X8763000Y50927000D01*
X9962250Y50927000D01*
X10121000Y51085750D01*
X10121000Y51776310D01*
X10024327Y52009699D01*
X9845698Y52188327D01*
X9612309Y52285000D01*
X8921750Y52285000D01*
X8763000Y52126250D01*
X8509000Y52126250D01*
X8350250Y52285000D01*
X7659691Y52285000D01*
X7426302Y52188327D01*
X7247673Y52009699D01*
X7151000Y51776310D01*
X710000Y51776310D01*
X710000Y67278250D01*
X7659000Y67278250D01*
X7659000Y66587691D01*
X7755673Y66354302D01*
X7934301Y66175673D01*
X8167690Y66079000D01*
X8858250Y66079000D01*
X9017000Y66237750D01*
X9017000Y67437000D01*
X7817750Y67437000D01*
X7659000Y67278250D01*
X710000Y67278250D01*
X710000Y68540309D01*
X7659000Y68540309D01*
X7659000Y67849750D01*
X7817750Y67691000D01*
X9017000Y67691000D01*
X9017000Y68890250D01*
X8858250Y69049000D01*
X8167690Y69049000D01*
X7934301Y68952327D01*
X7755673Y68773698D01*
X7659000Y68540309D01*
X710000Y68540309D01*
X710000Y71818569D01*
X1321000Y71818569D01*
X1321000Y70929431D01*
X1661259Y70107974D01*
X2289974Y69479259D01*
X3111431Y69139000D01*
X4000569Y69139000D01*
X4822026Y69479259D01*
X5450741Y70107974D01*
X5791000Y70929431D01*
X5791000Y71818569D01*
X94539000Y71818569D01*
X94539000Y70929431D01*
X94879259Y70107974D01*
X95507974Y69479259D01*
X96329431Y69139000D01*
X97218569Y69139000D01*
X98040026Y69479259D01*
X98668741Y70107974D01*
X99009000Y70929431D01*
X99009000Y71818569D01*
X98668741Y72640026D01*
X98040026Y73268741D01*
X97218569Y73609000D01*
X96329431Y73609000D01*
X95507974Y73268741D01*
X94879259Y72640026D01*
X94539000Y71818569D01*
X5791000Y71818569D01*
X5450741Y72640026D01*
X4822026Y73268741D01*
X4000569Y73609000D01*
X3111431Y73609000D01*
X2289974Y73268741D01*
X1661259Y72640026D01*
X1321000Y71818569D01*
X710000Y71818569D01*
X710000Y74220000D01*
X99620001Y74220000D01*
X99620000Y710000D01*
X99620000Y710000D01*
G37*
X99620000Y710000D02*
X710000Y710000D01*
X710000Y4000569D01*
X1321000Y4000569D01*
X1321000Y3111431D01*
X1661259Y2289974D01*
X2289974Y1661259D01*
X3111431Y1321000D01*
X4000569Y1321000D01*
X4822026Y1661259D01*
X5450741Y2289974D01*
X5791000Y3111431D01*
X5791000Y4000569D01*
X5450741Y4822026D01*
X4822026Y5450741D01*
X4000569Y5791000D01*
X3111431Y5791000D01*
X2289974Y5450741D01*
X1661259Y4822026D01*
X1321000Y4000569D01*
X710000Y4000569D01*
X710000Y26193439D01*
X5423000Y26193439D01*
X5423000Y25622561D01*
X5641466Y25095138D01*
X5773000Y24963604D01*
X5773001Y20172862D01*
X5751745Y20066000D01*
X5835953Y19642655D01*
X5835954Y19642654D01*
X6075760Y19283759D01*
X6166353Y19223226D01*
X6738560Y18651019D01*
X6738560Y16038000D01*
X6787843Y15790235D01*
X6928191Y15580191D01*
X7138235Y15439843D01*
X7386000Y15390560D01*
X8059001Y15390560D01*
X8059000Y9867795D01*
X7999477Y9828023D01*
X7648609Y9302911D01*
X7556500Y8839850D01*
X7556500Y8432151D01*
X7648609Y7969090D01*
X7999477Y7443977D01*
X8524589Y7093109D01*
X9144000Y6969900D01*
X9763410Y7093109D01*
X10288523Y7443977D01*
X10414000Y7631767D01*
X10539477Y7443977D01*
X11064589Y7093109D01*
X11684000Y6969900D01*
X12303410Y7093109D01*
X12695491Y7355088D01*
X12813691Y7178191D01*
X13023735Y7037843D01*
X13271500Y6988560D01*
X15176500Y6988560D01*
X15424265Y7037843D01*
X15634309Y7178191D01*
X15774657Y7388235D01*
X15777177Y7400903D01*
X19297728Y3880350D01*
X19358259Y3789759D01*
X19448850Y3729228D01*
X19448851Y3729227D01*
X19717154Y3549953D01*
X20033639Y3487000D01*
X20033643Y3487000D01*
X20140500Y3465745D01*
X20247357Y3487000D01*
X40787143Y3487000D01*
X40894000Y3465745D01*
X41000857Y3487000D01*
X41000861Y3487000D01*
X41317346Y3549953D01*
X41676241Y3789759D01*
X41736776Y3880356D01*
X41856989Y4000569D01*
X94539000Y4000569D01*
X94539000Y3111431D01*
X94879259Y2289974D01*
X95507974Y1661259D01*
X96329431Y1321000D01*
X97218569Y1321000D01*
X98040026Y1661259D01*
X98668741Y2289974D01*
X99009000Y3111431D01*
X99009000Y4000569D01*
X98668741Y4822026D01*
X98040026Y5450741D01*
X97218569Y5791000D01*
X96329431Y5791000D01*
X95507974Y5450741D01*
X94879259Y4822026D01*
X94539000Y4000569D01*
X41856989Y4000569D01*
X43871647Y6015226D01*
X43962241Y6075759D01*
X44202047Y6434654D01*
X44265000Y6751139D01*
X44265000Y6751142D01*
X44286255Y6857999D01*
X44265000Y6964856D01*
X44265000Y10634889D01*
X44450000Y10911761D01*
X44649375Y10613375D01*
X45140582Y10285161D01*
X45573744Y10199000D01*
X45866256Y10199000D01*
X46299418Y10285161D01*
X46790625Y10613375D01*
X46990000Y10911761D01*
X47189375Y10613375D01*
X47680582Y10285161D01*
X48113744Y10199000D01*
X48406256Y10199000D01*
X48839418Y10285161D01*
X49330625Y10613375D01*
X49530000Y10911761D01*
X49729375Y10613375D01*
X50220582Y10285161D01*
X50653744Y10199000D01*
X50946256Y10199000D01*
X51379418Y10285161D01*
X51870625Y10613375D01*
X52070000Y10911761D01*
X52269375Y10613375D01*
X52760582Y10285161D01*
X53193744Y10199000D01*
X53486256Y10199000D01*
X53919418Y10285161D01*
X54410625Y10613375D01*
X54610000Y10911761D01*
X54809375Y10613375D01*
X55300582Y10285161D01*
X55733744Y10199000D01*
X56026256Y10199000D01*
X56459418Y10285161D01*
X56950625Y10613375D01*
X57150000Y10911761D01*
X57349375Y10613375D01*
X57840582Y10285161D01*
X58273744Y10199000D01*
X58566256Y10199000D01*
X58999418Y10285161D01*
X59490625Y10613375D01*
X59690000Y10911761D01*
X59889375Y10613375D01*
X60380582Y10285161D01*
X60813744Y10199000D01*
X61106256Y10199000D01*
X61539418Y10285161D01*
X62030625Y10613375D01*
X62230000Y10911761D01*
X62429375Y10613375D01*
X62920582Y10285161D01*
X63353744Y10199000D01*
X63646256Y10199000D01*
X64079418Y10285161D01*
X64570625Y10613375D01*
X64770000Y10911761D01*
X64969375Y10613375D01*
X65460582Y10285161D01*
X65893744Y10199000D01*
X66186256Y10199000D01*
X66619418Y10285161D01*
X67110625Y10613375D01*
X67310000Y10911761D01*
X67509375Y10613375D01*
X68000582Y10285161D01*
X68433744Y10199000D01*
X68726256Y10199000D01*
X69159418Y10285161D01*
X69650625Y10613375D01*
X69850000Y10911761D01*
X70049375Y10613375D01*
X70540582Y10285161D01*
X70973744Y10199000D01*
X71266256Y10199000D01*
X71699418Y10285161D01*
X72190625Y10613375D01*
X72518839Y11104582D01*
X72634092Y11684000D01*
X72518839Y12263418D01*
X72205000Y12733111D01*
X72205000Y20124580D01*
X80193648Y28113227D01*
X80284241Y28173759D01*
X80524047Y28532654D01*
X80587000Y28849139D01*
X80587000Y28849142D01*
X80608255Y28955999D01*
X80587000Y29062856D01*
X80587000Y35920861D01*
X80524047Y36237346D01*
X80284241Y36596241D01*
X79925346Y36836047D01*
X79502000Y36920256D01*
X79078655Y36836047D01*
X78719760Y36596241D01*
X78479954Y36237346D01*
X78417001Y35920861D01*
X78417000Y29405421D01*
X70428354Y21416774D01*
X70337760Y21356241D01*
X70190705Y21136157D01*
X70097953Y20997345D01*
X70013745Y20574000D01*
X70035001Y20467138D01*
X70035000Y12733111D01*
X69850000Y12456239D01*
X69665000Y12733111D01*
X69665000Y28791423D01*
X69785852Y28912275D01*
X70002400Y29435067D01*
X70002400Y30000933D01*
X69785852Y30523725D01*
X69385725Y30923852D01*
X68862933Y31140400D01*
X68297067Y31140400D01*
X67774275Y30923852D01*
X67374148Y30523725D01*
X67310000Y30368858D01*
X67245852Y30523725D01*
X66845725Y30923852D01*
X66322933Y31140400D01*
X65757067Y31140400D01*
X65234275Y30923852D01*
X64834148Y30523725D01*
X64770000Y30368858D01*
X64705852Y30523725D01*
X64305725Y30923852D01*
X63782933Y31140400D01*
X63217067Y31140400D01*
X62694275Y30923852D01*
X62294148Y30523725D01*
X62230000Y30368858D01*
X62165852Y30523725D01*
X61765725Y30923852D01*
X61242933Y31140400D01*
X60677067Y31140400D01*
X60154275Y30923852D01*
X59754148Y30523725D01*
X59690000Y30368858D01*
X59625852Y30523725D01*
X59225725Y30923852D01*
X58702933Y31140400D01*
X58137067Y31140400D01*
X57614275Y30923852D01*
X57214148Y30523725D01*
X57150000Y30368858D01*
X57085852Y30523725D01*
X56685725Y30923852D01*
X56162933Y31140400D01*
X55597067Y31140400D01*
X55074275Y30923852D01*
X54674148Y30523725D01*
X54610000Y30368858D01*
X54545852Y30523725D01*
X54145725Y30923852D01*
X53622933Y31140400D01*
X53057067Y31140400D01*
X52534275Y30923852D01*
X52134148Y30523725D01*
X52070000Y30368858D01*
X52005852Y30523725D01*
X51605725Y30923852D01*
X51082933Y31140400D01*
X50517067Y31140400D01*
X49994275Y30923852D01*
X49594148Y30523725D01*
X49530000Y30368858D01*
X49465852Y30523725D01*
X49065725Y30923852D01*
X48542933Y31140400D01*
X47977067Y31140400D01*
X47454275Y30923852D01*
X47054148Y30523725D01*
X46990000Y30368858D01*
X46925852Y30523725D01*
X46525725Y30923852D01*
X46002933Y31140400D01*
X45437067Y31140400D01*
X44914275Y30923852D01*
X44514148Y30523725D01*
X44450000Y30368858D01*
X44385852Y30523725D01*
X43985725Y30923852D01*
X43462933Y31140400D01*
X42897067Y31140400D01*
X42374275Y30923852D01*
X41974148Y30523725D01*
X41916509Y30384571D01*
X41883432Y30464425D01*
X41638617Y30537011D01*
X40819605Y29718000D01*
X41638617Y28898989D01*
X41883432Y28971575D01*
X41914127Y29057179D01*
X41974148Y28912275D01*
X42095000Y28791423D01*
X42095001Y23317445D01*
X42078327Y23357699D01*
X41899698Y23536327D01*
X41666309Y23633000D01*
X40925750Y23633000D01*
X40767000Y23474250D01*
X40767000Y22225000D01*
X40787000Y22225000D01*
X40787000Y21971000D01*
X40767000Y21971000D01*
X40767000Y20721750D01*
X40925750Y20563000D01*
X41666309Y20563000D01*
X41899698Y20659673D01*
X42078327Y20838301D01*
X42095001Y20878555D01*
X42095000Y12733111D01*
X42094904Y12732967D01*
X42028327Y12893698D01*
X41849699Y13072327D01*
X41616310Y13169000D01*
X40925750Y13169000D01*
X40767000Y13010250D01*
X40767000Y11811000D01*
X40787000Y11811000D01*
X40787000Y11557000D01*
X40767000Y11557000D01*
X40767000Y10357750D01*
X40925750Y10199000D01*
X41616310Y10199000D01*
X41849699Y10295673D01*
X42028327Y10474302D01*
X42094904Y10635033D01*
X42095001Y10634888D01*
X42095000Y7307421D01*
X40444580Y5657000D01*
X20589922Y5657000D01*
X16919276Y9327644D01*
X16858741Y9418241D01*
X16499846Y9658047D01*
X16183361Y9721000D01*
X16183357Y9721000D01*
X16076500Y9742255D01*
X15969643Y9721000D01*
X15807033Y9721000D01*
X15774657Y9883765D01*
X15634309Y10093809D01*
X15424265Y10234157D01*
X15176500Y10283440D01*
X13271500Y10283440D01*
X13023735Y10234157D01*
X12813691Y10093809D01*
X12769000Y10026925D01*
X12769000Y10086579D01*
X13535421Y10853000D01*
X15133143Y10853000D01*
X15240000Y10831745D01*
X15346857Y10853000D01*
X15346861Y10853000D01*
X15663346Y10915953D01*
X16022241Y11155759D01*
X16082776Y11246356D01*
X16234670Y11398250D01*
X28995000Y11398250D01*
X28995000Y10707691D01*
X29091673Y10474302D01*
X29270301Y10295673D01*
X29503690Y10199000D01*
X30194250Y10199000D01*
X30353000Y10357750D01*
X30353000Y11557000D01*
X29153750Y11557000D01*
X28995000Y11398250D01*
X16234670Y11398250D01*
X17201647Y12365226D01*
X17292241Y12425759D01*
X17448962Y12660309D01*
X28995000Y12660309D01*
X28995000Y11969750D01*
X29153750Y11811000D01*
X30353000Y11811000D01*
X30353000Y13010250D01*
X30607000Y13010250D01*
X30607000Y11811000D01*
X30627000Y11811000D01*
X30627000Y11557000D01*
X30607000Y11557000D01*
X30607000Y10357750D01*
X30765750Y10199000D01*
X31456310Y10199000D01*
X31689699Y10295673D01*
X31868327Y10474302D01*
X31934904Y10635033D01*
X31949375Y10613375D01*
X32440582Y10285161D01*
X32873744Y10199000D01*
X33166256Y10199000D01*
X33599418Y10285161D01*
X34090625Y10613375D01*
X34290000Y10911761D01*
X34489375Y10613375D01*
X34980582Y10285161D01*
X35413744Y10199000D01*
X35706256Y10199000D01*
X36139418Y10285161D01*
X36630625Y10613375D01*
X36958839Y11104582D01*
X37017252Y11398250D01*
X39155000Y11398250D01*
X39155000Y10707691D01*
X39251673Y10474302D01*
X39430301Y10295673D01*
X39663690Y10199000D01*
X40354250Y10199000D01*
X40513000Y10357750D01*
X40513000Y11557000D01*
X39313750Y11557000D01*
X39155000Y11398250D01*
X37017252Y11398250D01*
X37074092Y11684000D01*
X36958839Y12263418D01*
X36693645Y12660309D01*
X39155000Y12660309D01*
X39155000Y11969750D01*
X39313750Y11811000D01*
X40513000Y11811000D01*
X40513000Y13010250D01*
X40354250Y13169000D01*
X39663690Y13169000D01*
X39430301Y13072327D01*
X39251673Y12893698D01*
X39155000Y12660309D01*
X36693645Y12660309D01*
X36645000Y12733111D01*
X36645000Y21812250D01*
X39105000Y21812250D01*
X39105000Y21071690D01*
X39201673Y20838301D01*
X39380302Y20659673D01*
X39613691Y20563000D01*
X40354250Y20563000D01*
X40513000Y20721750D01*
X40513000Y21971000D01*
X39263750Y21971000D01*
X39105000Y21812250D01*
X36645000Y21812250D01*
X36645000Y23124310D01*
X39105000Y23124310D01*
X39105000Y22383750D01*
X39263750Y22225000D01*
X40513000Y22225000D01*
X40513000Y23474250D01*
X40354250Y23633000D01*
X39613691Y23633000D01*
X39380302Y23536327D01*
X39201673Y23357699D01*
X39105000Y23124310D01*
X36645000Y23124310D01*
X36645000Y28791423D01*
X36765852Y28912275D01*
X36830000Y29067142D01*
X36894148Y28912275D01*
X37294275Y28512148D01*
X37817067Y28295600D01*
X38382933Y28295600D01*
X38905725Y28512148D01*
X39112960Y28719383D01*
X39820989Y28719383D01*
X39893575Y28474568D01*
X40426235Y28283574D01*
X40991438Y28310959D01*
X41386425Y28474568D01*
X41459011Y28719383D01*
X40640000Y29538395D01*
X39820989Y28719383D01*
X39112960Y28719383D01*
X39305852Y28912275D01*
X39363491Y29051429D01*
X39396568Y28971575D01*
X39641383Y28898989D01*
X40460395Y29718000D01*
X39641383Y30537011D01*
X39396568Y30464425D01*
X39365873Y30378821D01*
X39305852Y30523725D01*
X39112960Y30716617D01*
X39820989Y30716617D01*
X40640000Y29897605D01*
X41459011Y30716617D01*
X41386425Y30961432D01*
X40853765Y31152426D01*
X40288562Y31125041D01*
X39893575Y30961432D01*
X39820989Y30716617D01*
X39112960Y30716617D01*
X38905725Y30923852D01*
X38382933Y31140400D01*
X37817067Y31140400D01*
X37294275Y30923852D01*
X36894148Y30523725D01*
X36830000Y30368858D01*
X36765852Y30523725D01*
X36365725Y30923852D01*
X35842933Y31140400D01*
X35277067Y31140400D01*
X34754275Y30923852D01*
X34354148Y30523725D01*
X34290000Y30368858D01*
X34225852Y30523725D01*
X33825725Y30923852D01*
X33302933Y31140400D01*
X32737067Y31140400D01*
X32214275Y30923852D01*
X31814148Y30523725D01*
X31597600Y30000933D01*
X31597600Y29435067D01*
X31814148Y28912275D01*
X31935001Y28791422D01*
X31935000Y12992942D01*
X31935000Y12733111D01*
X31934904Y12732967D01*
X31868327Y12893698D01*
X31689699Y13072327D01*
X31456310Y13169000D01*
X30765750Y13169000D01*
X30607000Y13010250D01*
X30353000Y13010250D01*
X30194250Y13169000D01*
X29503690Y13169000D01*
X29270301Y13072327D01*
X29091673Y12893698D01*
X28995000Y12660309D01*
X17448962Y12660309D01*
X17532047Y12784654D01*
X17595000Y13101139D01*
X17595000Y13101142D01*
X17616255Y13207999D01*
X17595000Y13314856D01*
X17595000Y18161000D01*
X17651000Y18161000D01*
X17651000Y17161000D01*
X17843088Y16449309D01*
X18292906Y15865301D01*
X18931974Y15497886D01*
X19116355Y15450305D01*
X19409000Y15566428D01*
X19409000Y18161000D01*
X19663000Y18161000D01*
X19663000Y15566428D01*
X19955645Y15450305D01*
X20140026Y15497886D01*
X20779094Y15865301D01*
X21228912Y16449309D01*
X21421000Y17161000D01*
X21421000Y18161000D01*
X19663000Y18161000D01*
X19409000Y18161000D01*
X17651000Y18161000D01*
X17595000Y18161000D01*
X17595000Y19415000D01*
X17651000Y19415000D01*
X17651000Y18415000D01*
X19409000Y18415000D01*
X19409000Y21009572D01*
X19663000Y21009572D01*
X19663000Y18415000D01*
X21421000Y18415000D01*
X21421000Y19415000D01*
X21228912Y20126691D01*
X20779094Y20710699D01*
X20140026Y21078114D01*
X19955645Y21125695D01*
X19663000Y21009572D01*
X19409000Y21009572D01*
X19116355Y21125695D01*
X18931974Y21078114D01*
X18292906Y20710699D01*
X17843088Y20126691D01*
X17651000Y19415000D01*
X17595000Y19415000D01*
X17595000Y25558961D01*
X20706096Y25558961D01*
X20866959Y25170577D01*
X21242866Y24755611D01*
X21748959Y24516086D01*
X21971000Y24637371D01*
X21971000Y25781000D01*
X22225000Y25781000D01*
X22225000Y24637371D01*
X22447041Y24516086D01*
X22953134Y24755611D01*
X23329041Y25170577D01*
X23489904Y25558961D01*
X23367915Y25781000D01*
X22225000Y25781000D01*
X21971000Y25781000D01*
X20828085Y25781000D01*
X20706096Y25558961D01*
X17595000Y25558961D01*
X17595000Y26257039D01*
X20706096Y26257039D01*
X20828085Y26035000D01*
X21971000Y26035000D01*
X21971000Y27178629D01*
X22225000Y27178629D01*
X22225000Y26035000D01*
X23367915Y26035000D01*
X23489904Y26257039D01*
X23329041Y26645423D01*
X22953134Y27060389D01*
X22447041Y27299914D01*
X22225000Y27178629D01*
X21971000Y27178629D01*
X21748959Y27299914D01*
X21242866Y27060389D01*
X20866959Y26645423D01*
X20706096Y26257039D01*
X17595000Y26257039D01*
X17595000Y35364580D01*
X19919423Y37689001D01*
X23510255Y37689001D01*
X23493161Y37663418D01*
X23377908Y37084000D01*
X23493161Y36504582D01*
X23821375Y36013375D01*
X24119761Y35814000D01*
X23821375Y35614625D01*
X23493161Y35123418D01*
X23377908Y34544000D01*
X23493161Y33964582D01*
X23821375Y33473375D01*
X24312582Y33145161D01*
X24745744Y33059000D01*
X25038256Y33059000D01*
X25471418Y33145161D01*
X25941111Y33459000D01*
X66695143Y33459000D01*
X66802000Y33437745D01*
X66908857Y33459000D01*
X66908861Y33459000D01*
X67225346Y33521953D01*
X67584241Y33761759D01*
X67644776Y33852356D01*
X74605650Y40813228D01*
X74696241Y40873759D01*
X74808082Y41041140D01*
X74936047Y41232654D01*
X74936047Y41232655D01*
X74999000Y41549139D01*
X74999000Y41549143D01*
X75020255Y41656000D01*
X74999000Y41762857D01*
X74999000Y49931144D01*
X75020255Y50038001D01*
X74999000Y50144858D01*
X74999000Y50144861D01*
X74936047Y50461346D01*
X74696241Y50820241D01*
X74605647Y50880774D01*
X70438776Y55047644D01*
X70378241Y55138241D01*
X70019346Y55378047D01*
X69702861Y55441000D01*
X69702857Y55441000D01*
X69596000Y55462255D01*
X69489143Y55441000D01*
X67162855Y55441000D01*
X67055999Y55462255D01*
X66949143Y55441000D01*
X66949139Y55441000D01*
X66632654Y55378047D01*
X66273759Y55138241D01*
X66213228Y55047650D01*
X62808356Y51642776D01*
X62717759Y51582241D01*
X62477953Y51223345D01*
X62415000Y50906860D01*
X62415000Y50906857D01*
X62393745Y50800000D01*
X62415000Y50693143D01*
X62415001Y45884578D01*
X62294148Y45763725D01*
X62230000Y45608858D01*
X62165852Y45763725D01*
X62045000Y45884577D01*
X62045000Y66514889D01*
X62045096Y66515033D01*
X62111673Y66354302D01*
X62290301Y66175673D01*
X62523690Y66079000D01*
X63214250Y66079000D01*
X63373000Y66237750D01*
X63373000Y67437000D01*
X63627000Y67437000D01*
X63627000Y66237750D01*
X63785750Y66079000D01*
X64476310Y66079000D01*
X64709699Y66175673D01*
X64888327Y66354302D01*
X64985000Y66587691D01*
X64985000Y67278250D01*
X64826250Y67437000D01*
X63627000Y67437000D01*
X63373000Y67437000D01*
X63353000Y67437000D01*
X63353000Y67691000D01*
X63373000Y67691000D01*
X63373000Y68890250D01*
X63627000Y68890250D01*
X63627000Y67691000D01*
X64826250Y67691000D01*
X64985000Y67849750D01*
X64985000Y68540309D01*
X64888327Y68773698D01*
X64709699Y68952327D01*
X64476310Y69049000D01*
X63785750Y69049000D01*
X63627000Y68890250D01*
X63373000Y68890250D01*
X63214250Y69049000D01*
X62523690Y69049000D01*
X62290301Y68952327D01*
X62111673Y68773698D01*
X62045096Y68612967D01*
X62030625Y68634625D01*
X61539418Y68962839D01*
X61106256Y69049000D01*
X60813744Y69049000D01*
X60380582Y68962839D01*
X59889375Y68634625D01*
X59690000Y68336239D01*
X59490625Y68634625D01*
X58999418Y68962839D01*
X58566256Y69049000D01*
X58273744Y69049000D01*
X57840582Y68962839D01*
X57349375Y68634625D01*
X57150000Y68336239D01*
X56950625Y68634625D01*
X56459418Y68962839D01*
X56026256Y69049000D01*
X55733744Y69049000D01*
X55300582Y68962839D01*
X54809375Y68634625D01*
X54610000Y68336239D01*
X54410625Y68634625D01*
X53919418Y68962839D01*
X53486256Y69049000D01*
X53193744Y69049000D01*
X52760582Y68962839D01*
X52269375Y68634625D01*
X52070000Y68336239D01*
X51870625Y68634625D01*
X51379418Y68962839D01*
X50946256Y69049000D01*
X50653744Y69049000D01*
X50220582Y68962839D01*
X49729375Y68634625D01*
X49530000Y68336239D01*
X49330625Y68634625D01*
X48839418Y68962839D01*
X48406256Y69049000D01*
X48113744Y69049000D01*
X47680582Y68962839D01*
X47189375Y68634625D01*
X46990000Y68336239D01*
X46790625Y68634625D01*
X46299418Y68962839D01*
X45866256Y69049000D01*
X45573744Y69049000D01*
X45140582Y68962839D01*
X44649375Y68634625D01*
X44450000Y68336239D01*
X44250625Y68634625D01*
X43759418Y68962839D01*
X43326256Y69049000D01*
X43033744Y69049000D01*
X42600582Y68962839D01*
X42109375Y68634625D01*
X41781161Y68143418D01*
X41665908Y67564000D01*
X41781161Y66984582D01*
X42095000Y66514889D01*
X42095001Y45884578D01*
X41974148Y45763725D01*
X41910000Y45608858D01*
X41845852Y45763725D01*
X41445725Y46163852D01*
X40922933Y46380400D01*
X40357067Y46380400D01*
X39834275Y46163852D01*
X39434148Y45763725D01*
X39370000Y45608858D01*
X39305852Y45763725D01*
X38905725Y46163852D01*
X38382933Y46380400D01*
X37817067Y46380400D01*
X37294275Y46163852D01*
X36894148Y45763725D01*
X36836509Y45624571D01*
X36803432Y45704425D01*
X36558617Y45777011D01*
X35739605Y44958000D01*
X36558617Y44138989D01*
X36803432Y44211575D01*
X36834127Y44297179D01*
X36894148Y44152275D01*
X37294275Y43752148D01*
X37817067Y43535600D01*
X38382933Y43535600D01*
X38905725Y43752148D01*
X39305852Y44152275D01*
X39370000Y44307142D01*
X39434148Y44152275D01*
X39555001Y44031422D01*
X39555000Y43121422D01*
X37142580Y40709000D01*
X25941111Y40709000D01*
X25940967Y40709096D01*
X26101698Y40775673D01*
X26280327Y40954301D01*
X26377000Y41187690D01*
X26377000Y41878250D01*
X26218250Y42037000D01*
X25019000Y42037000D01*
X25019000Y42017000D01*
X24765000Y42017000D01*
X24765000Y42037000D01*
X23565750Y42037000D01*
X23407000Y41878250D01*
X23407000Y41187690D01*
X23503673Y40954301D01*
X23682302Y40775673D01*
X23843033Y40709096D01*
X23821375Y40694625D01*
X23493161Y40203418D01*
X23424652Y39859001D01*
X19576862Y39859001D01*
X19470001Y39880257D01*
X19046655Y39796048D01*
X18778352Y39616774D01*
X18778351Y39616773D01*
X18687760Y39556242D01*
X18627229Y39465651D01*
X15818356Y36656776D01*
X15727759Y36596241D01*
X15487953Y36237345D01*
X15425000Y35920860D01*
X15425000Y35920857D01*
X15403745Y35814000D01*
X15425000Y35707143D01*
X15425001Y20660378D01*
X15171000Y20830096D01*
X15171000Y35591143D01*
X15192255Y35698000D01*
X15171000Y35804857D01*
X15171000Y35804861D01*
X15108047Y36121346D01*
X15030538Y36237346D01*
X14928773Y36389649D01*
X14928772Y36389650D01*
X14868241Y36480241D01*
X14777650Y36540772D01*
X9721000Y41597420D01*
X9721000Y43140310D01*
X23407000Y43140310D01*
X23407000Y42449750D01*
X23565750Y42291000D01*
X24765000Y42291000D01*
X24765000Y43490250D01*
X25019000Y43490250D01*
X25019000Y42291000D01*
X26218250Y42291000D01*
X26377000Y42449750D01*
X26377000Y43140310D01*
X26280327Y43373699D01*
X26101698Y43552327D01*
X25868309Y43649000D01*
X25177750Y43649000D01*
X25019000Y43490250D01*
X24765000Y43490250D01*
X24606250Y43649000D01*
X23915691Y43649000D01*
X23682302Y43552327D01*
X23503673Y43373699D01*
X23407000Y43140310D01*
X9721000Y43140310D01*
X9721000Y47175000D01*
X9731224Y47175000D01*
X9838081Y47153745D01*
X9944938Y47175000D01*
X9944942Y47175000D01*
X10261427Y47237953D01*
X10620322Y47477759D01*
X10680857Y47568356D01*
X12375650Y49263147D01*
X12466241Y49323678D01*
X12706047Y49682573D01*
X12769000Y49999058D01*
X12790256Y50105919D01*
X12769000Y50212780D01*
X12769000Y66514889D01*
X13082839Y66984582D01*
X13141252Y67278250D01*
X28995000Y67278250D01*
X28995000Y66587691D01*
X29091673Y66354302D01*
X29270301Y66175673D01*
X29503690Y66079000D01*
X30194250Y66079000D01*
X30353000Y66237750D01*
X30353000Y67437000D01*
X29153750Y67437000D01*
X28995000Y67278250D01*
X13141252Y67278250D01*
X13198092Y67564000D01*
X13082839Y68143418D01*
X12817645Y68540309D01*
X28995000Y68540309D01*
X28995000Y67849750D01*
X29153750Y67691000D01*
X30353000Y67691000D01*
X30353000Y68890250D01*
X30607000Y68890250D01*
X30607000Y67691000D01*
X30627000Y67691000D01*
X30627000Y67437000D01*
X30607000Y67437000D01*
X30607000Y66237750D01*
X30765750Y66079000D01*
X31456310Y66079000D01*
X31689699Y66175673D01*
X31868327Y66354302D01*
X31934904Y66515033D01*
X31935000Y66514889D01*
X31935000Y66468779D01*
X31935001Y45884578D01*
X31814148Y45763725D01*
X31597600Y45240933D01*
X31597600Y44675067D01*
X31814148Y44152275D01*
X32214275Y43752148D01*
X32737067Y43535600D01*
X33302933Y43535600D01*
X33825725Y43752148D01*
X34032960Y43959383D01*
X34740989Y43959383D01*
X34813575Y43714568D01*
X35346235Y43523574D01*
X35911438Y43550959D01*
X36306425Y43714568D01*
X36379011Y43959383D01*
X35560000Y44778395D01*
X34740989Y43959383D01*
X34032960Y43959383D01*
X34225852Y44152275D01*
X34283491Y44291429D01*
X34316568Y44211575D01*
X34561383Y44138989D01*
X35380395Y44958000D01*
X34561383Y45777011D01*
X34316568Y45704425D01*
X34285873Y45618821D01*
X34225852Y45763725D01*
X34105000Y45884577D01*
X34105000Y45956617D01*
X34740989Y45956617D01*
X35560000Y45137605D01*
X36379011Y45956617D01*
X36306425Y46201432D01*
X35773765Y46392426D01*
X35208562Y46365041D01*
X34813575Y46201432D01*
X34740989Y45956617D01*
X34105000Y45956617D01*
X34105000Y66514889D01*
X34418839Y66984582D01*
X34534092Y67564000D01*
X34418839Y68143418D01*
X34090625Y68634625D01*
X33599418Y68962839D01*
X33166256Y69049000D01*
X32873744Y69049000D01*
X32440582Y68962839D01*
X31949375Y68634625D01*
X31934904Y68612967D01*
X31868327Y68773698D01*
X31689699Y68952327D01*
X31456310Y69049000D01*
X30765750Y69049000D01*
X30607000Y68890250D01*
X30353000Y68890250D01*
X30194250Y69049000D01*
X29503690Y69049000D01*
X29270301Y68952327D01*
X29091673Y68773698D01*
X28995000Y68540309D01*
X12817645Y68540309D01*
X12754625Y68634625D01*
X12263418Y68962839D01*
X11830256Y69049000D01*
X11537744Y69049000D01*
X11104582Y68962839D01*
X10613375Y68634625D01*
X10598904Y68612967D01*
X10532327Y68773698D01*
X10353699Y68952327D01*
X10120310Y69049000D01*
X9429750Y69049000D01*
X9271000Y68890250D01*
X9271000Y67691000D01*
X9291000Y67691000D01*
X9291000Y67437000D01*
X9271000Y67437000D01*
X9271000Y66237750D01*
X9429750Y66079000D01*
X10120310Y66079000D01*
X10353699Y66175673D01*
X10532327Y66354302D01*
X10598904Y66515033D01*
X10599000Y66514889D01*
X10599001Y50555342D01*
X10121000Y50077340D01*
X10121000Y50514250D01*
X9962250Y50673000D01*
X8763000Y50673000D01*
X8763000Y50653000D01*
X8509000Y50653000D01*
X8509000Y50673000D01*
X7309750Y50673000D01*
X7151000Y50514250D01*
X7151000Y49823690D01*
X7247673Y49590301D01*
X7426302Y49411673D01*
X7587033Y49345096D01*
X7565375Y49330625D01*
X7237161Y48839418D01*
X7121908Y48260000D01*
X7237161Y47680582D01*
X7551000Y47210888D01*
X7551001Y41254862D01*
X7529745Y41148000D01*
X7613953Y40724655D01*
X7674558Y40633953D01*
X7853760Y40365759D01*
X7944354Y40305226D01*
X13001000Y35248578D01*
X13001001Y20830096D01*
X12726991Y20647009D01*
X12310369Y20023489D01*
X12201000Y19473654D01*
X12201001Y17102345D01*
X12310370Y16552510D01*
X12726992Y15928991D01*
X13350511Y15512369D01*
X14086000Y15366071D01*
X14821490Y15512369D01*
X15425001Y15915622D01*
X15425001Y13657422D01*
X14790580Y13023000D01*
X13192855Y13023000D01*
X13085999Y13044255D01*
X12979143Y13023000D01*
X12979139Y13023000D01*
X12662654Y12960047D01*
X12303759Y12720241D01*
X12243228Y12629649D01*
X10992355Y11378776D01*
X10901759Y11318241D01*
X10661953Y10959345D01*
X10599000Y10642860D01*
X10599000Y10642857D01*
X10577745Y10536000D01*
X10599000Y10429143D01*
X10599000Y9867795D01*
X10539477Y9828023D01*
X10414000Y9640233D01*
X10288523Y9828023D01*
X10229000Y9867795D01*
X10229000Y15503477D01*
X10343809Y15580191D01*
X10484157Y15790235D01*
X10533440Y16038000D01*
X10533440Y20538000D01*
X10484157Y20785765D01*
X10343809Y20995809D01*
X10133765Y21136157D01*
X9886000Y21185440D01*
X7943000Y21185440D01*
X7943000Y24963604D01*
X8074534Y25095138D01*
X8293000Y25622561D01*
X8293000Y26193439D01*
X8074534Y26720862D01*
X7670862Y27124534D01*
X7143439Y27343000D01*
X6572561Y27343000D01*
X6045138Y27124534D01*
X5641466Y26720862D01*
X5423000Y26193439D01*
X710000Y26193439D01*
X710000Y51776310D01*
X7151000Y51776310D01*
X7151000Y51085750D01*
X7309750Y50927000D01*
X8509000Y50927000D01*
X8509000Y52126250D01*
X8763000Y52126250D01*
X8763000Y50927000D01*
X9962250Y50927000D01*
X10121000Y51085750D01*
X10121000Y51776310D01*
X10024327Y52009699D01*
X9845698Y52188327D01*
X9612309Y52285000D01*
X8921750Y52285000D01*
X8763000Y52126250D01*
X8509000Y52126250D01*
X8350250Y52285000D01*
X7659691Y52285000D01*
X7426302Y52188327D01*
X7247673Y52009699D01*
X7151000Y51776310D01*
X710000Y51776310D01*
X710000Y67278250D01*
X7659000Y67278250D01*
X7659000Y66587691D01*
X7755673Y66354302D01*
X7934301Y66175673D01*
X8167690Y66079000D01*
X8858250Y66079000D01*
X9017000Y66237750D01*
X9017000Y67437000D01*
X7817750Y67437000D01*
X7659000Y67278250D01*
X710000Y67278250D01*
X710000Y68540309D01*
X7659000Y68540309D01*
X7659000Y67849750D01*
X7817750Y67691000D01*
X9017000Y67691000D01*
X9017000Y68890250D01*
X8858250Y69049000D01*
X8167690Y69049000D01*
X7934301Y68952327D01*
X7755673Y68773698D01*
X7659000Y68540309D01*
X710000Y68540309D01*
X710000Y71818569D01*
X1321000Y71818569D01*
X1321000Y70929431D01*
X1661259Y70107974D01*
X2289974Y69479259D01*
X3111431Y69139000D01*
X4000569Y69139000D01*
X4822026Y69479259D01*
X5450741Y70107974D01*
X5791000Y70929431D01*
X5791000Y71818569D01*
X94539000Y71818569D01*
X94539000Y70929431D01*
X94879259Y70107974D01*
X95507974Y69479259D01*
X96329431Y69139000D01*
X97218569Y69139000D01*
X98040026Y69479259D01*
X98668741Y70107974D01*
X99009000Y70929431D01*
X99009000Y71818569D01*
X98668741Y72640026D01*
X98040026Y73268741D01*
X97218569Y73609000D01*
X96329431Y73609000D01*
X95507974Y73268741D01*
X94879259Y72640026D01*
X94539000Y71818569D01*
X5791000Y71818569D01*
X5450741Y72640026D01*
X4822026Y73268741D01*
X4000569Y73609000D01*
X3111431Y73609000D01*
X2289974Y73268741D01*
X1661259Y72640026D01*
X1321000Y71818569D01*
X710000Y71818569D01*
X710000Y74220000D01*
X99620001Y74220000D01*
X99620000Y710000D01*
G04 #@! TD*
M02*
